%TF.GenerationSoftware,KiCad,Pcbnew,(6.0.5)*%
%TF.CreationDate,2022-05-23T21:52:17-04:00*%
%TF.ProjectId,HVAC_STM32_Motor_Controller,48564143-5f53-4544-9d33-325f4d6f746f,rev?*%
%TF.SameCoordinates,Original*%
%TF.FileFunction,Soldermask,Bot*%
%TF.FilePolarity,Negative*%
%FSLAX46Y46*%
G04 Gerber Fmt 4.6, Leading zero omitted, Abs format (unit mm)*
G04 Created by KiCad (PCBNEW (6.0.5)) date 2022-05-23 21:52:17*
%MOMM*%
%LPD*%
G01*
G04 APERTURE LIST*
G04 Aperture macros list*
%AMRoundRect*
0 Rectangle with rounded corners*
0 $1 Rounding radius*
0 $2 $3 $4 $5 $6 $7 $8 $9 X,Y pos of 4 corners*
0 Add a 4 corners polygon primitive as box body*
4,1,4,$2,$3,$4,$5,$6,$7,$8,$9,$2,$3,0*
0 Add four circle primitives for the rounded corners*
1,1,$1+$1,$2,$3*
1,1,$1+$1,$4,$5*
1,1,$1+$1,$6,$7*
1,1,$1+$1,$8,$9*
0 Add four rect primitives between the rounded corners*
20,1,$1+$1,$2,$3,$4,$5,0*
20,1,$1+$1,$4,$5,$6,$7,0*
20,1,$1+$1,$6,$7,$8,$9,0*
20,1,$1+$1,$8,$9,$2,$3,0*%
G04 Aperture macros list end*
%ADD10RoundRect,0.504000X-0.600000X-0.600000X0.600000X-0.600000X0.600000X0.600000X-0.600000X0.600000X0*%
%ADD11C,2.208000*%
%ADD12C,4.908000*%
%ADD13RoundRect,0.254000X1.980000X-0.990000X1.980000X0.990000X-1.980000X0.990000X-1.980000X-0.990000X0*%
%ADD14O,4.468000X2.488000*%
%ADD15C,1.408000*%
%ADD16O,2.408000X1.708000*%
%ADD17C,1.958000*%
%ADD18RoundRect,0.254000X-0.990000X-1.980000X0.990000X-1.980000X0.990000X1.980000X-0.990000X1.980000X0*%
%ADD19O,2.488000X4.468000*%
%ADD20RoundRect,0.254000X0.850000X-0.850000X0.850000X0.850000X-0.850000X0.850000X-0.850000X-0.850000X0*%
%ADD21O,2.208000X2.208000*%
G04 APERTURE END LIST*
D10*
%TO.C,J1*%
X104972500Y-101370000D03*
D11*
X107512500Y-101370000D03*
X104972500Y-103910000D03*
X107512500Y-103910000D03*
X104972500Y-106450000D03*
X107512500Y-106450000D03*
X104972500Y-108990000D03*
X107512500Y-108990000D03*
X104972500Y-111530000D03*
X107512500Y-111530000D03*
%TD*%
D12*
%TO.C,H2*%
X168300000Y-68100000D03*
%TD*%
D13*
%TO.C,J9*%
X164900000Y-116400000D03*
D14*
X164900000Y-111400000D03*
%TD*%
D15*
%TO.C,SW1*%
X102770000Y-88800000D03*
X102770000Y-85800000D03*
%TD*%
D16*
%TO.C,J5*%
X101362500Y-80825000D03*
X101362500Y-73825000D03*
D17*
X104062500Y-79825000D03*
X104062500Y-74825000D03*
%TD*%
D12*
%TO.C,H3*%
X168500000Y-124100000D03*
%TD*%
D18*
%TO.C,J3*%
X134535000Y-120500000D03*
D19*
X139535000Y-120500000D03*
%TD*%
D12*
%TO.C,H4*%
X103100000Y-124000000D03*
%TD*%
D13*
%TO.C,J4*%
X164920000Y-104890000D03*
D14*
X164920000Y-99890000D03*
X164920000Y-94890000D03*
%TD*%
D13*
%TO.C,J6*%
X165010000Y-88195000D03*
D14*
X165010000Y-83195000D03*
X165010000Y-78195000D03*
%TD*%
D20*
%TO.C,J2*%
X111575000Y-93500000D03*
D21*
X114115000Y-93500000D03*
X116655000Y-93500000D03*
X119195000Y-93500000D03*
X121735000Y-93500000D03*
X124275000Y-93500000D03*
X126815000Y-93500000D03*
X129355000Y-93500000D03*
X131895000Y-93500000D03*
X134435000Y-93500000D03*
%TD*%
D12*
%TO.C,H1*%
X102800000Y-67800000D03*
%TD*%
M02*
