M48
; DRILL file {KiCad (6.0.5)} date Mon May 23 21:52:09 2022
; FORMAT={-:-/ absolute / metric / decimal}
; #@! TF.CreationDate,2022-05-23T21:52:09-04:00
; #@! TF.GenerationSoftware,Kicad,Pcbnew,(6.0.5)
; #@! TF.FileFunction,MixedPlating,1,4
FMAT,2
METRIC
; #@! TA.AperFunction,Plated,PTH,ViaDrill
T1C0.400
; #@! TA.AperFunction,Plated,PTH,ComponentDrill
T2C0.600
; #@! TA.AperFunction,Plated,PTH,ComponentDrill
T3C0.850
; #@! TA.AperFunction,Plated,PTH,ComponentDrill
T4C1.000
; #@! TA.AperFunction,Plated,PTH,ComponentDrill
T5C1.320
; #@! TA.AperFunction,Plated,PTH,ComponentDrill
T6C2.200
; #@! TA.AperFunction,NonPlated,NPTH,ComponentDrill
T7C0.900
%
G90
G05
T1
X104.7Y-92.2
X105.3Y-78.7
X105.3Y-83.9
X106.55Y-95.4
X107.55Y-87.0
X107.55Y-89.0
X108.3Y-79.4
X108.5Y-74.6
X111.4Y-115.6
X111.4Y-118.5
X112.25Y-82.175
X112.5Y-86.075
X112.662Y-78.362
X112.675Y-75.0
X112.8Y-123.7
X113.2Y-88.9
X113.4Y-121.0
X113.8Y-125.0
X114.124Y-74.975
X114.312Y-82.188
X114.7Y-85.0
X114.8Y-102.6
X114.85Y-88.85
X114.9Y-78.75
X115.0Y-90.3
X115.006Y-76.924
X115.3Y-74.2
X115.7Y-82.2
X116.2Y-72.2
X117.5Y-100.8
X117.5Y-104.3
X117.5Y-110.1
X117.5Y-112.7
X117.5Y-113.8
X117.9Y-72.1
X118.5Y-85.2
X118.5Y-87.7
X119.112Y-82.075
X119.25Y-77.275
X119.25Y-89.7
X119.3Y-71.8
X119.5Y-87.7
X119.512Y-85.212
X119.825Y-81.221
X120.2Y-102.7
X120.2Y-115.0
X120.6Y-87.7
X120.8Y-80.8
X121.412Y-73.4
X121.475Y-85.082
X121.6Y-87.7
X121.975Y-80.7
X122.5Y-90.0
X122.6Y-76.6
X122.7Y-72.7
X122.7Y-82.0
X122.7Y-87.7
X122.7Y-111.4
X123.75Y-82.0
X123.775Y-76.603
X124.2Y-84.7
X124.43Y-77.47
X124.75Y-82.0
X125.9Y-122.3
X126.088Y-75.488
X126.9Y-71.974
X127.7Y-71.2
X127.7Y-88.5
X128.0Y-79.3
X128.0Y-123.6
X128.725Y-84.2
X128.725Y-87.1
X128.9Y-76.4
X128.9Y-99.7
X129.5Y-80.5
X129.8Y-106.9
X130.1Y-76.4
X130.6Y-72.724
X130.901Y-82.7
X131.884Y-79.915
X131.9Y-82.7
X132.6Y-102.8
X132.896Y-79.928
X132.9Y-82.7
X133.1Y-99.7
X134.4Y-97.0
X134.7Y-102.9
X136.4Y-112.4
X137.1Y-97.837
X137.7Y-83.6
X137.8Y-89.6
X138.9Y-74.376
X140.2Y-79.9
X140.4Y-74.275
X141.9Y-73.8
X141.9Y-75.275
X141.9Y-76.3
X143.1Y-84.1
X143.1Y-90.3
X143.1Y-97.237
X143.3Y-79.5
X143.4Y-69.2
X143.4Y-87.0
X143.5Y-93.3
X143.6Y-100.237
X143.7Y-67.2
X146.4Y-78.9
X146.75Y-72.0
X147.75Y-72.0
X151.4Y-70.9
X151.4Y-72.1
X151.5Y-114.7
X151.5Y-117.7
X152.3Y-76.6
X152.8Y-109.5
X152.9Y-106.4
X153.4Y-75.873
X153.8Y-116.2
X154.1Y-107.9
X154.2Y-73.749
X154.7Y-70.3
X156.1Y-69.1
X157.5Y-70.2
T3
X104.062Y-74.825
X104.062Y-79.825
T4
X104.972Y-101.37
X104.972Y-103.91
X104.972Y-106.45
X104.972Y-108.99
X104.972Y-111.53
X107.512Y-101.37
X107.512Y-103.91
X107.512Y-106.45
X107.512Y-108.99
X107.512Y-111.53
X111.575Y-93.5
X114.115Y-93.5
X116.655Y-93.5
X119.195Y-93.5
X121.735Y-93.5
X124.275Y-93.5
X126.815Y-93.5
X129.355Y-93.5
X131.895Y-93.5
X134.435Y-93.5
T5
X134.535Y-120.5
X139.535Y-120.5
X164.9Y-111.4
X164.9Y-116.4
X164.92Y-94.89
X164.92Y-99.89
X164.92Y-104.89
X165.01Y-78.195
X165.01Y-83.195
X165.01Y-88.195
T6
X102.8Y-67.8
X103.1Y-124.0
X168.3Y-68.1
X168.5Y-124.1
T7
X102.77Y-85.8
X102.77Y-88.8
T2
G00X101.012Y-73.825
M15
G01X101.712Y-73.825
M16
G05
G00X101.712Y-80.825
M15
G01X101.012Y-80.825
M16
G05
T0
M30
