%TF.GenerationSoftware,KiCad,Pcbnew,(6.0.5)*%
%TF.CreationDate,2022-05-23T22:17:39-04:00*%
%TF.ProjectId,HVAC_STM32_Motor_Controller,48564143-5f53-4544-9d33-325f4d6f746f,rev?*%
%TF.SameCoordinates,Original*%
%TF.FileFunction,Copper,L1,Top*%
%TF.FilePolarity,Positive*%
%FSLAX46Y46*%
G04 Gerber Fmt 4.6, Leading zero omitted, Abs format (unit mm)*
G04 Created by KiCad (PCBNEW (6.0.5)) date 2022-05-23 22:17:39*
%MOMM*%
%LPD*%
G01*
G04 APERTURE LIST*
G04 Aperture macros list*
%AMRoundRect*
0 Rectangle with rounded corners*
0 $1 Rounding radius*
0 $2 $3 $4 $5 $6 $7 $8 $9 X,Y pos of 4 corners*
0 Add a 4 corners polygon primitive as box body*
4,1,4,$2,$3,$4,$5,$6,$7,$8,$9,$2,$3,0*
0 Add four circle primitives for the rounded corners*
1,1,$1+$1,$2,$3*
1,1,$1+$1,$4,$5*
1,1,$1+$1,$6,$7*
1,1,$1+$1,$8,$9*
0 Add four rect primitives between the rounded corners*
20,1,$1+$1,$2,$3,$4,$5,0*
20,1,$1+$1,$4,$5,$6,$7,0*
20,1,$1+$1,$6,$7,$8,$9,0*
20,1,$1+$1,$8,$9,$2,$3,0*%
G04 Aperture macros list end*
%TA.AperFunction,SMDPad,CuDef*%
%ADD10RoundRect,0.250000X0.625000X-0.312500X0.625000X0.312500X-0.625000X0.312500X-0.625000X-0.312500X0*%
%TD*%
%TA.AperFunction,ComponentPad*%
%ADD11RoundRect,0.250000X-0.600000X-0.600000X0.600000X-0.600000X0.600000X0.600000X-0.600000X0.600000X0*%
%TD*%
%TA.AperFunction,ComponentPad*%
%ADD12C,1.700000*%
%TD*%
%TA.AperFunction,SMDPad,CuDef*%
%ADD13R,1.500000X1.500000*%
%TD*%
%TA.AperFunction,SMDPad,CuDef*%
%ADD14RoundRect,0.250000X-0.650000X0.325000X-0.650000X-0.325000X0.650000X-0.325000X0.650000X0.325000X0*%
%TD*%
%TA.AperFunction,SMDPad,CuDef*%
%ADD15RoundRect,0.150000X-0.512500X-0.150000X0.512500X-0.150000X0.512500X0.150000X-0.512500X0.150000X0*%
%TD*%
%TA.AperFunction,SMDPad,CuDef*%
%ADD16RoundRect,0.250000X0.650000X-0.325000X0.650000X0.325000X-0.650000X0.325000X-0.650000X-0.325000X0*%
%TD*%
%TA.AperFunction,SMDPad,CuDef*%
%ADD17RoundRect,0.250000X-0.262500X-0.450000X0.262500X-0.450000X0.262500X0.450000X-0.262500X0.450000X0*%
%TD*%
%TA.AperFunction,SMDPad,CuDef*%
%ADD18RoundRect,0.200000X0.200000X0.275000X-0.200000X0.275000X-0.200000X-0.275000X0.200000X-0.275000X0*%
%TD*%
%TA.AperFunction,SMDPad,CuDef*%
%ADD19RoundRect,0.225000X-0.250000X0.225000X-0.250000X-0.225000X0.250000X-0.225000X0.250000X0.225000X0*%
%TD*%
%TA.AperFunction,SMDPad,CuDef*%
%ADD20RoundRect,0.250000X0.262500X0.450000X-0.262500X0.450000X-0.262500X-0.450000X0.262500X-0.450000X0*%
%TD*%
%TA.AperFunction,SMDPad,CuDef*%
%ADD21RoundRect,0.218750X-0.256250X0.218750X-0.256250X-0.218750X0.256250X-0.218750X0.256250X0.218750X0*%
%TD*%
%TA.AperFunction,SMDPad,CuDef*%
%ADD22RoundRect,0.250000X-0.450000X0.262500X-0.450000X-0.262500X0.450000X-0.262500X0.450000X0.262500X0*%
%TD*%
%TA.AperFunction,SMDPad,CuDef*%
%ADD23RoundRect,0.218750X0.218750X0.256250X-0.218750X0.256250X-0.218750X-0.256250X0.218750X-0.256250X0*%
%TD*%
%TA.AperFunction,SMDPad,CuDef*%
%ADD24R,1.400000X1.200000*%
%TD*%
%TA.AperFunction,SMDPad,CuDef*%
%ADD25RoundRect,0.225000X0.250000X-0.225000X0.250000X0.225000X-0.250000X0.225000X-0.250000X-0.225000X0*%
%TD*%
%TA.AperFunction,SMDPad,CuDef*%
%ADD26RoundRect,0.250000X1.950000X1.000000X-1.950000X1.000000X-1.950000X-1.000000X1.950000X-1.000000X0*%
%TD*%
%TA.AperFunction,SMDPad,CuDef*%
%ADD27RoundRect,0.250000X-0.625000X0.312500X-0.625000X-0.312500X0.625000X-0.312500X0.625000X0.312500X0*%
%TD*%
%TA.AperFunction,SMDPad,CuDef*%
%ADD28RoundRect,0.250000X0.325000X0.650000X-0.325000X0.650000X-0.325000X-0.650000X0.325000X-0.650000X0*%
%TD*%
%TA.AperFunction,ComponentPad*%
%ADD29C,4.400000*%
%TD*%
%TA.AperFunction,ComponentPad*%
%ADD30R,3.960000X1.980000*%
%TD*%
%TA.AperFunction,ComponentPad*%
%ADD31O,3.960000X1.980000*%
%TD*%
%TA.AperFunction,SMDPad,CuDef*%
%ADD32RoundRect,0.200000X-0.200000X-0.275000X0.200000X-0.275000X0.200000X0.275000X-0.200000X0.275000X0*%
%TD*%
%TA.AperFunction,SMDPad,CuDef*%
%ADD33RoundRect,0.150000X0.150000X-0.512500X0.150000X0.512500X-0.150000X0.512500X-0.150000X-0.512500X0*%
%TD*%
%TA.AperFunction,SMDPad,CuDef*%
%ADD34R,2.500000X1.800000*%
%TD*%
%TA.AperFunction,SMDPad,CuDef*%
%ADD35RoundRect,0.150000X-0.587500X-0.150000X0.587500X-0.150000X0.587500X0.150000X-0.587500X0.150000X0*%
%TD*%
%TA.AperFunction,SMDPad,CuDef*%
%ADD36RoundRect,0.100000X-0.712500X-0.100000X0.712500X-0.100000X0.712500X0.100000X-0.712500X0.100000X0*%
%TD*%
%TA.AperFunction,SMDPad,CuDef*%
%ADD37R,0.800000X1.000000*%
%TD*%
%TA.AperFunction,SMDPad,CuDef*%
%ADD38R,1.500000X0.700000*%
%TD*%
%TA.AperFunction,SMDPad,CuDef*%
%ADD39RoundRect,0.250000X-1.250000X-0.550000X1.250000X-0.550000X1.250000X0.550000X-1.250000X0.550000X0*%
%TD*%
%TA.AperFunction,SMDPad,CuDef*%
%ADD40R,1.350000X0.400000*%
%TD*%
%TA.AperFunction,ComponentPad*%
%ADD41O,1.900000X1.200000*%
%TD*%
%TA.AperFunction,SMDPad,CuDef*%
%ADD42R,1.900000X1.200000*%
%TD*%
%TA.AperFunction,SMDPad,CuDef*%
%ADD43R,1.900000X1.500000*%
%TD*%
%TA.AperFunction,ComponentPad*%
%ADD44C,1.450000*%
%TD*%
%TA.AperFunction,ComponentPad*%
%ADD45R,1.980000X3.960000*%
%TD*%
%TA.AperFunction,ComponentPad*%
%ADD46O,1.980000X3.960000*%
%TD*%
%TA.AperFunction,SMDPad,CuDef*%
%ADD47RoundRect,0.200000X-0.275000X0.200000X-0.275000X-0.200000X0.275000X-0.200000X0.275000X0.200000X0*%
%TD*%
%TA.AperFunction,SMDPad,CuDef*%
%ADD48RoundRect,0.250000X0.450000X-0.262500X0.450000X0.262500X-0.450000X0.262500X-0.450000X-0.262500X0*%
%TD*%
%TA.AperFunction,SMDPad,CuDef*%
%ADD49RoundRect,0.225000X0.225000X0.250000X-0.225000X0.250000X-0.225000X-0.250000X0.225000X-0.250000X0*%
%TD*%
%TA.AperFunction,SMDPad,CuDef*%
%ADD50RoundRect,0.250000X-0.312500X-0.625000X0.312500X-0.625000X0.312500X0.625000X-0.312500X0.625000X0*%
%TD*%
%TA.AperFunction,SMDPad,CuDef*%
%ADD51RoundRect,0.250000X0.425000X1.075000X-0.425000X1.075000X-0.425000X-1.075000X0.425000X-1.075000X0*%
%TD*%
%TA.AperFunction,SMDPad,CuDef*%
%ADD52RoundRect,0.100000X0.637500X0.100000X-0.637500X0.100000X-0.637500X-0.100000X0.637500X-0.100000X0*%
%TD*%
%TA.AperFunction,SMDPad,CuDef*%
%ADD53R,2.850000X5.400000*%
%TD*%
%TA.AperFunction,SMDPad,CuDef*%
%ADD54RoundRect,0.250000X-0.325000X-0.650000X0.325000X-0.650000X0.325000X0.650000X-0.325000X0.650000X0*%
%TD*%
%TA.AperFunction,ComponentPad*%
%ADD55R,1.700000X1.700000*%
%TD*%
%TA.AperFunction,ComponentPad*%
%ADD56O,1.700000X1.700000*%
%TD*%
%TA.AperFunction,SMDPad,CuDef*%
%ADD57RoundRect,0.250000X-1.500000X-0.550000X1.500000X-0.550000X1.500000X0.550000X-1.500000X0.550000X0*%
%TD*%
%TA.AperFunction,SMDPad,CuDef*%
%ADD58RoundRect,0.150000X0.675000X0.150000X-0.675000X0.150000X-0.675000X-0.150000X0.675000X-0.150000X0*%
%TD*%
%TA.AperFunction,SMDPad,CuDef*%
%ADD59RoundRect,0.250000X0.312500X0.625000X-0.312500X0.625000X-0.312500X-0.625000X0.312500X-0.625000X0*%
%TD*%
%TA.AperFunction,SMDPad,CuDef*%
%ADD60R,2.700000X0.800000*%
%TD*%
%TA.AperFunction,SMDPad,CuDef*%
%ADD61RoundRect,0.075000X0.662500X0.075000X-0.662500X0.075000X-0.662500X-0.075000X0.662500X-0.075000X0*%
%TD*%
%TA.AperFunction,SMDPad,CuDef*%
%ADD62RoundRect,0.075000X0.075000X0.662500X-0.075000X0.662500X-0.075000X-0.662500X0.075000X-0.662500X0*%
%TD*%
%TA.AperFunction,ViaPad*%
%ADD63C,0.800000*%
%TD*%
%TA.AperFunction,Conductor*%
%ADD64C,0.500000*%
%TD*%
%TA.AperFunction,Conductor*%
%ADD65C,0.250000*%
%TD*%
%TA.AperFunction,Conductor*%
%ADD66C,1.000000*%
%TD*%
%TA.AperFunction,Conductor*%
%ADD67C,0.200000*%
%TD*%
%TA.AperFunction,Conductor*%
%ADD68C,0.750000*%
%TD*%
G04 APERTURE END LIST*
D10*
%TO.P,R4,1*%
%TO.N,+3V3*%
X112700000Y-118462500D03*
%TO.P,R4,2*%
%TO.N,GND*%
X112700000Y-115537500D03*
%TD*%
D11*
%TO.P,J1,1,Pin_1*%
%TO.N,+3V3*%
X104972500Y-101370000D03*
D12*
%TO.P,J1,2,Pin_2*%
%TO.N,SWDIO*%
X107512500Y-101370000D03*
%TO.P,J1,3,Pin_3*%
%TO.N,GND*%
X104972500Y-103910000D03*
%TO.P,J1,4,Pin_4*%
%TO.N,SWCLK*%
X107512500Y-103910000D03*
%TO.P,J1,5,Pin_5*%
%TO.N,GND*%
X104972500Y-106450000D03*
%TO.P,J1,6,Pin_6*%
%TO.N,SWO*%
X107512500Y-106450000D03*
%TO.P,J1,7,Pin_7*%
%TO.N,unconnected-(J1-Pad7)*%
X104972500Y-108990000D03*
%TO.P,J1,8,Pin_8*%
%TO.N,unconnected-(J1-Pad8)*%
X107512500Y-108990000D03*
%TO.P,J1,9,Pin_9*%
%TO.N,GND*%
X104972500Y-111530000D03*
%TO.P,J1,10,Pin_10*%
%TO.N,NRST*%
X107512500Y-111530000D03*
%TD*%
D13*
%TO.P,TP7,1,1*%
%TO.N,MOUT3*%
X157010000Y-78295000D03*
%TD*%
D14*
%TO.P,C18,1*%
%TO.N,Net-(C18-Pad1)*%
X145400000Y-81325000D03*
%TO.P,C18,2*%
%TO.N,Net-(C18-Pad2)*%
X145400000Y-84275000D03*
%TD*%
D15*
%TO.P,U3,1,I/O1*%
%TO.N,USB_CONN_D-*%
X107212500Y-76300000D03*
%TO.P,U3,2,GND*%
%TO.N,GND*%
X107212500Y-77250000D03*
%TO.P,U3,3,I/O2*%
%TO.N,USB_CONN_D+*%
X107212500Y-78200000D03*
%TO.P,U3,4,I/O2*%
%TO.N,USB_D+*%
X109487500Y-78200000D03*
%TO.P,U3,5,VBUS*%
%TO.N,+5VD*%
X109487500Y-77250000D03*
%TO.P,U3,6,I/O1*%
%TO.N,USB_D-*%
X109487500Y-76300000D03*
%TD*%
D16*
%TO.P,C1,1*%
%TO.N,GND*%
X128400000Y-85925000D03*
%TO.P,C1,2*%
%TO.N,+3V3*%
X128400000Y-82975000D03*
%TD*%
D17*
%TO.P,R16,1*%
%TO.N,Net-(D4-Pad1)*%
X140837500Y-67250000D03*
%TO.P,R16,2*%
%TO.N,GND*%
X142662500Y-67250000D03*
%TD*%
D18*
%TO.P,R5,1*%
%TO.N,BOOT0*%
X110925000Y-88125000D03*
%TO.P,R5,2*%
%TO.N,Net-(R5-Pad2)*%
X109275000Y-88125000D03*
%TD*%
D13*
%TO.P,TP1,1,1*%
%TO.N,Net-(R9-Pad1)*%
X130700000Y-68600000D03*
%TD*%
D19*
%TO.P,C8,1*%
%TO.N,GND*%
X116237500Y-73075000D03*
%TO.P,C8,2*%
%TO.N,+3V3*%
X116237500Y-74625000D03*
%TD*%
D20*
%TO.P,R7,1*%
%TO.N,Net-(C12-Pad2)*%
X136662500Y-76350000D03*
%TO.P,R7,2*%
%TO.N,OSC_OUT*%
X134837500Y-76350000D03*
%TD*%
D21*
%TO.P,L2,1*%
%TO.N,+3V3*%
X131050000Y-76412500D03*
%TO.P,L2,2*%
%TO.N,+3.3VA*%
X131050000Y-77987500D03*
%TD*%
D22*
%TO.P,R20,1*%
%TO.N,Net-(R19-Pad2)*%
X139000000Y-68837500D03*
%TO.P,R20,2*%
%TO.N,V3P3OUT*%
X139000000Y-70662500D03*
%TD*%
D23*
%TO.P,D1,1,K*%
%TO.N,Net-(D1-Pad1)*%
X126137500Y-73200000D03*
%TO.P,D1,2,A*%
%TO.N,LED_STATUS*%
X124562500Y-73200000D03*
%TD*%
D24*
%TO.P,Y1,1,1*%
%TO.N,OSC_IN*%
X135050000Y-79950000D03*
%TO.P,Y1,2,2*%
%TO.N,GND*%
X137250000Y-79950000D03*
%TO.P,Y1,3,3*%
%TO.N,Net-(C12-Pad2)*%
X137250000Y-78250000D03*
%TO.P,Y1,4,4*%
%TO.N,GND*%
X135050000Y-78250000D03*
%TD*%
D25*
%TO.P,C6,1*%
%TO.N,GND*%
X117337500Y-84925000D03*
%TO.P,C6,2*%
%TO.N,+3V3*%
X117337500Y-83375000D03*
%TD*%
D26*
%TO.P,C7,1*%
%TO.N,BUCK_IN*%
X125900000Y-102600000D03*
%TO.P,C7,2*%
%TO.N,GND*%
X117500000Y-102600000D03*
%TD*%
D25*
%TO.P,C4,1*%
%TO.N,GND*%
X115637500Y-84925000D03*
%TO.P,C4,2*%
%TO.N,+3V3*%
X115637500Y-83375000D03*
%TD*%
D27*
%TO.P,R13,1*%
%TO.N,Net-(R13-Pad1)*%
X134700000Y-101437500D03*
%TO.P,R13,2*%
%TO.N,+3V3*%
X134700000Y-104362500D03*
%TD*%
D28*
%TO.P,C14,1*%
%TO.N,VM*%
X145400000Y-108600000D03*
%TO.P,C14,2*%
%TO.N,VCP*%
X142450000Y-108600000D03*
%TD*%
D13*
%TO.P,TP6,1,1*%
%TO.N,MOUT2*%
X157010000Y-83195000D03*
%TD*%
D25*
%TO.P,C10,1*%
%TO.N,GND*%
X129500000Y-79575000D03*
%TO.P,C10,2*%
%TO.N,+3.3VA*%
X129500000Y-78025000D03*
%TD*%
D29*
%TO.P,H2,1,1*%
%TO.N,GND*%
X168300000Y-68100000D03*
%TD*%
D30*
%TO.P,J9,1,Pin_1*%
%TO.N,BUCK_FB*%
X164900000Y-116400000D03*
D31*
%TO.P,J9,2,Pin_2*%
%TO.N,GND*%
X164900000Y-111400000D03*
%TD*%
D32*
%TO.P,R6,1*%
%TO.N,I2C1_SDA*%
X120625000Y-89050000D03*
%TO.P,R6,2*%
%TO.N,+3V3*%
X122275000Y-89050000D03*
%TD*%
D33*
%TO.P,U8,1*%
%TO.N,ADC1_IN3*%
X137850000Y-93237500D03*
%TO.P,U8,2,GND*%
%TO.N,GND*%
X138800000Y-93237500D03*
%TO.P,U8,3,+*%
%TO.N,CSENS2*%
X139750000Y-93237500D03*
%TO.P,U8,4,-*%
%TO.N,GND*%
X139750000Y-90962500D03*
%TO.P,U8,5,V+*%
%TO.N,+3V3*%
X137850000Y-90962500D03*
%TD*%
D17*
%TO.P,R19,1*%
%TO.N,Net-(R14-Pad2)*%
X137337500Y-67000000D03*
%TO.P,R19,2*%
%TO.N,Net-(R19-Pad2)*%
X139162500Y-67000000D03*
%TD*%
D34*
%TO.P,D3,1,K*%
%TO.N,BUCK_IN*%
X130000000Y-112200000D03*
%TO.P,D3,2,A*%
%TO.N,+5VD*%
X134000000Y-112200000D03*
%TD*%
D35*
%TO.P,Q1,1,G*%
%TO.N,GND*%
X129762500Y-107650000D03*
%TO.P,Q1,2,S*%
%TO.N,BUCK_IN*%
X129762500Y-109550000D03*
%TO.P,Q1,3,D*%
%TO.N,Net-(F1-Pad2)*%
X131637500Y-108600000D03*
%TD*%
D36*
%TO.P,U7,1,SDA*%
%TO.N,I2C1_SDA*%
X128887500Y-97025000D03*
%TO.P,U7,2,SCL*%
%TO.N,I2C1_SCL*%
X128887500Y-97675000D03*
%TO.P,U7,3,O.S.*%
%TO.N,Net-(R12-Pad1)*%
X128887500Y-98325000D03*
%TO.P,U7,4,GND*%
%TO.N,GND*%
X128887500Y-98975000D03*
%TO.P,U7,5,A2*%
X133112500Y-98975000D03*
%TO.P,U7,6,A1*%
X133112500Y-98325000D03*
%TO.P,U7,7,A0*%
%TO.N,Net-(R13-Pad1)*%
X133112500Y-97675000D03*
%TO.P,U7,8,+Vs*%
%TO.N,+3V3*%
X133112500Y-97025000D03*
%TD*%
D33*
%TO.P,U5,1*%
%TO.N,ADC1_IN1*%
X137750000Y-87037500D03*
%TO.P,U5,2,GND*%
%TO.N,GND*%
X138700000Y-87037500D03*
%TO.P,U5,3,+*%
%TO.N,CSENS1*%
X139650000Y-87037500D03*
%TO.P,U5,4,-*%
%TO.N,GND*%
X139650000Y-84762500D03*
%TO.P,U5,5,V+*%
%TO.N,+3V3*%
X137750000Y-84762500D03*
%TD*%
D37*
%TO.P,SW1,*%
%TO.N,*%
X101670000Y-83650000D03*
X103880000Y-83650000D03*
X103880000Y-90950000D03*
X101670000Y-90950000D03*
D38*
%TO.P,SW1,1,A*%
%TO.N,+3V3*%
X104530000Y-85050000D03*
%TO.P,SW1,2,B*%
%TO.N,Net-(R5-Pad2)*%
X104530000Y-88050000D03*
%TO.P,SW1,3,C*%
%TO.N,GND*%
X104530000Y-89550000D03*
%TD*%
D39*
%TO.P,C5,1*%
%TO.N,BUCK_FB*%
X121500000Y-123600000D03*
%TO.P,C5,2*%
%TO.N,GND*%
X125900000Y-123600000D03*
%TD*%
D22*
%TO.P,R9,1*%
%TO.N,Net-(R9-Pad1)*%
X133000000Y-68887500D03*
%TO.P,R9,2*%
%TO.N,Net-(R17-Pad1)*%
X133000000Y-70712500D03*
%TD*%
D40*
%TO.P,J5,1,VBUS*%
%TO.N,+5VD*%
X104062500Y-76025000D03*
%TO.P,J5,2,D-*%
%TO.N,USB_CONN_D-*%
X104062500Y-76675000D03*
%TO.P,J5,3,D+*%
%TO.N,USB_CONN_D+*%
X104062500Y-77325000D03*
%TO.P,J5,4,ID*%
%TO.N,unconnected-(J5-Pad4)*%
X104062500Y-77975000D03*
%TO.P,J5,5,GND*%
%TO.N,GND*%
X104062500Y-78625000D03*
D41*
%TO.P,J5,6,Shield*%
%TO.N,unconnected-(J5-Pad6)*%
X101362500Y-80825000D03*
D42*
X101362500Y-74425000D03*
X101362500Y-80225000D03*
D43*
X101362500Y-76325000D03*
D41*
X101362500Y-73825000D03*
D44*
X104062500Y-79825000D03*
D43*
X101362500Y-78325000D03*
D44*
X104062500Y-74825000D03*
%TD*%
D29*
%TO.P,H3,1,1*%
%TO.N,GND*%
X168500000Y-124100000D03*
%TD*%
D25*
%TO.P,C12,1*%
%TO.N,GND*%
X139250000Y-79975000D03*
%TO.P,C12,2*%
%TO.N,Net-(C12-Pad2)*%
X139250000Y-78425000D03*
%TD*%
D45*
%TO.P,J3,1,Pin_1*%
%TO.N,VM*%
X134535000Y-120500000D03*
D46*
%TO.P,J3,2,Pin_2*%
%TO.N,GND*%
X139535000Y-120500000D03*
%TD*%
D17*
%TO.P,R1,1*%
%TO.N,Net-(D1-Pad1)*%
X127737500Y-73262500D03*
%TO.P,R1,2*%
%TO.N,GND*%
X129562500Y-73262500D03*
%TD*%
D47*
%TO.P,R8,1*%
%TO.N,I2C1_SCL*%
X124400000Y-86975000D03*
%TO.P,R8,2*%
%TO.N,+3V3*%
X124400000Y-88625000D03*
%TD*%
D10*
%TO.P,R15,1*%
%TO.N,CSENS2*%
X141700000Y-93262500D03*
%TO.P,R15,2*%
%TO.N,GND*%
X141700000Y-90337500D03*
%TD*%
D25*
%TO.P,C16,1*%
%TO.N,V3P3OUT*%
X142500000Y-70775000D03*
%TO.P,C16,2*%
%TO.N,GND*%
X142500000Y-69225000D03*
%TD*%
D17*
%TO.P,R14,1*%
%TO.N,Net-(R14-Pad1)*%
X133837500Y-67000000D03*
%TO.P,R14,2*%
%TO.N,Net-(R14-Pad2)*%
X135662500Y-67000000D03*
%TD*%
D18*
%TO.P,R2,1*%
%TO.N,SPI2_MISO*%
X115925000Y-77550000D03*
%TO.P,R2,2*%
%TO.N,+3V3*%
X114275000Y-77550000D03*
%TD*%
D48*
%TO.P,R17,1*%
%TO.N,Net-(R17-Pad1)*%
X135000000Y-70712500D03*
%TO.P,R17,2*%
%TO.N,Net-(R17-Pad2)*%
X135000000Y-68887500D03*
%TD*%
D29*
%TO.P,H4,1,1*%
%TO.N,GND*%
X103100000Y-124000000D03*
%TD*%
D30*
%TO.P,J4,1,Pin_1*%
%TO.N,HALL1*%
X164920000Y-104890000D03*
D31*
%TO.P,J4,2,Pin_2*%
%TO.N,HALL2*%
X164920000Y-99890000D03*
%TO.P,J4,3,Pin_3*%
%TO.N,HALL3*%
X164920000Y-94890000D03*
%TD*%
D49*
%TO.P,C11,1*%
%TO.N,GND*%
X136625000Y-81650000D03*
%TO.P,C11,2*%
%TO.N,OSC_IN*%
X135075000Y-81650000D03*
%TD*%
D13*
%TO.P,TP4,1,1*%
%TO.N,MOUT1*%
X157110000Y-88295000D03*
%TD*%
D19*
%TO.P,C9,1*%
%TO.N,GND*%
X127950000Y-76425000D03*
%TO.P,C9,2*%
%TO.N,+3.3VA*%
X127950000Y-77975000D03*
%TD*%
D13*
%TO.P,TP5,1,1*%
%TO.N,+3V3*%
X126500000Y-88400000D03*
%TD*%
D30*
%TO.P,J6,1,Pin_1*%
%TO.N,MOUT1*%
X165010000Y-88195000D03*
D31*
%TO.P,J6,2,Pin_2*%
%TO.N,MOUT2*%
X165010000Y-83195000D03*
%TO.P,J6,3,Pin_3*%
%TO.N,MOUT3*%
X165010000Y-78195000D03*
%TD*%
D50*
%TO.P,R12,1*%
%TO.N,Net-(R12-Pad1)*%
X129737500Y-101500000D03*
%TO.P,R12,2*%
%TO.N,+3V3*%
X132662500Y-101500000D03*
%TD*%
D21*
%TO.P,D4,1,K*%
%TO.N,Net-(D4-Pad1)*%
X140750000Y-69212500D03*
%TO.P,D4,2,A*%
%TO.N,V3P3OUT*%
X140750000Y-70787500D03*
%TD*%
D51*
%TO.P,F1,1*%
%TO.N,VM*%
X138950000Y-108600000D03*
%TO.P,F1,2*%
%TO.N,Net-(F1-Pad2)*%
X134450000Y-108600000D03*
%TD*%
D52*
%TO.P,U4,1,CPL*%
%TO.N,Net-(C18-Pad2)*%
X150212500Y-79525000D03*
%TO.P,U4,2,CPH*%
%TO.N,Net-(C18-Pad1)*%
X150212500Y-78875000D03*
%TO.P,U4,3,VCP*%
%TO.N,VCP*%
X150212500Y-78225000D03*
%TO.P,U4,4,VM*%
%TO.N,VM*%
X150212500Y-77575000D03*
%TO.P,U4,5,OUT1*%
%TO.N,MOUT1*%
X150212500Y-76925000D03*
%TO.P,U4,6,PGND1*%
%TO.N,CSENS1*%
X150212500Y-76275000D03*
%TO.P,U4,7,PGND2*%
%TO.N,CSENS2*%
X150212500Y-75625000D03*
%TO.P,U4,8,OUT2*%
%TO.N,MOUT2*%
X150212500Y-74975000D03*
%TO.P,U4,9,OUT3*%
%TO.N,MOUT3*%
X150212500Y-74325000D03*
%TO.P,U4,10,PGND3*%
%TO.N,CSENS3*%
X150212500Y-73675000D03*
%TO.P,U4,11,VM*%
%TO.N,VM*%
X150212500Y-73025000D03*
%TO.P,U4,12,COMPP*%
%TO.N,GND*%
X150212500Y-72375000D03*
%TO.P,U4,13,COMPN*%
X150212500Y-71725000D03*
%TO.P,U4,14,GND*%
X150212500Y-71075000D03*
%TO.P,U4,15,V3P3*%
%TO.N,V3P3OUT*%
X144487500Y-71075000D03*
%TO.P,U4,16,nRESET*%
%TO.N,DRV_nRESET*%
X144487500Y-71725000D03*
%TO.P,U4,17,nSLEEP*%
%TO.N,DRV_nSLEEP*%
X144487500Y-72375000D03*
%TO.P,U4,18,nFAULT*%
%TO.N,Net-(R9-Pad1)*%
X144487500Y-73025000D03*
%TO.P,U4,19,nCOMPO*%
%TO.N,Net-(R14-Pad1)*%
X144487500Y-73675000D03*
%TO.P,U4,20,GND*%
%TO.N,GND*%
X144487500Y-74325000D03*
%TO.P,U4,21,NC*%
%TO.N,unconnected-(U4-Pad21)*%
X144487500Y-74975000D03*
%TO.P,U4,22,EN3*%
%TO.N,PWM3_EN*%
X144487500Y-75625000D03*
%TO.P,U4,23,IN3*%
%TO.N,PWM3*%
X144487500Y-76275000D03*
%TO.P,U4,24,EN2*%
%TO.N,PWM2_EN*%
X144487500Y-76925000D03*
%TO.P,U4,25,IN2*%
%TO.N,PWM2*%
X144487500Y-77575000D03*
%TO.P,U4,26,EN1*%
%TO.N,PWM1_EN*%
X144487500Y-78225000D03*
%TO.P,U4,27,IN1*%
%TO.N,PWM1*%
X144487500Y-78875000D03*
%TO.P,U4,28,GND*%
%TO.N,GND*%
X144487500Y-79525000D03*
D53*
%TO.P,U4,29,Thermal_PAD_GND*%
X147350000Y-75300000D03*
%TD*%
D19*
%TO.P,C3,1*%
%TO.N,GND*%
X117937500Y-72975000D03*
%TO.P,C3,2*%
%TO.N,+3V3*%
X117937500Y-74525000D03*
%TD*%
D34*
%TO.P,D2,1,K*%
%TO.N,BUCK_OUT*%
X116900000Y-116600000D03*
%TO.P,D2,2,A*%
%TO.N,GND*%
X120900000Y-116600000D03*
%TD*%
D54*
%TO.P,C15,1*%
%TO.N,VM*%
X149850000Y-107900000D03*
%TO.P,C15,2*%
%TO.N,GND*%
X152800000Y-107900000D03*
%TD*%
D55*
%TO.P,J2,1,Pin_1*%
%TO.N,+3V3*%
X111575000Y-93500000D03*
D56*
%TO.P,J2,2,Pin_2*%
%TO.N,I2C1_SCL*%
X114115000Y-93500000D03*
%TO.P,J2,3,Pin_3*%
%TO.N,I2C1_SDA*%
X116655000Y-93500000D03*
%TO.P,J2,4,Pin_4*%
%TO.N,SPI2_SCK*%
X119195000Y-93500000D03*
%TO.P,J2,5,Pin_5*%
%TO.N,SPI2_MISO*%
X121735000Y-93500000D03*
%TO.P,J2,6,Pin_6*%
%TO.N,SPI2_MOSI*%
X124275000Y-93500000D03*
%TO.P,J2,7,Pin_7*%
%TO.N,SPI2_NSS*%
X126815000Y-93500000D03*
%TO.P,J2,8,Pin_8*%
%TO.N,UART1_TX*%
X129355000Y-93500000D03*
%TO.P,J2,9,Pin_9*%
%TO.N,UART1_RX*%
X131895000Y-93500000D03*
%TO.P,J2,10,Pin_10*%
%TO.N,GND*%
X134435000Y-93500000D03*
%TD*%
D29*
%TO.P,H1,1,1*%
%TO.N,GND*%
X102800000Y-67800000D03*
%TD*%
D57*
%TO.P,C13,1*%
%TO.N,VM*%
X145900000Y-116200000D03*
%TO.P,C13,2*%
%TO.N,GND*%
X151500000Y-116200000D03*
%TD*%
D58*
%TO.P,U2,1,VIN*%
%TO.N,BUCK_IN*%
X125225000Y-113905000D03*
%TO.P,U2,2,OUT*%
%TO.N,BUCK_OUT*%
X125225000Y-112635000D03*
%TO.P,U2,3,FB*%
%TO.N,BUCK_FB*%
X125225000Y-111365000D03*
%TO.P,U2,4,EN*%
%TO.N,BUCK_IN*%
X125225000Y-110095000D03*
%TO.P,U2,5,GND*%
%TO.N,GND*%
X119975000Y-110095000D03*
%TO.P,U2,6,GND*%
X119975000Y-111365000D03*
%TO.P,U2,7,GND*%
X119975000Y-112635000D03*
%TO.P,U2,8,GND*%
X119975000Y-113905000D03*
%TD*%
D59*
%TO.P,R3,1*%
%TO.N,BUCK_FB*%
X116762500Y-123700000D03*
%TO.P,R3,2*%
%TO.N,+3V3*%
X113837500Y-123700000D03*
%TD*%
D10*
%TO.P,R10,1*%
%TO.N,CSENS1*%
X141700000Y-87062500D03*
%TO.P,R10,2*%
%TO.N,GND*%
X141700000Y-84137500D03*
%TD*%
%TO.P,R11,1*%
%TO.N,CSENS3*%
X141700000Y-100200000D03*
%TO.P,R11,2*%
%TO.N,GND*%
X141700000Y-97275000D03*
%TD*%
D16*
%TO.P,C17,1*%
%TO.N,VM*%
X156100000Y-73175000D03*
%TO.P,C17,2*%
%TO.N,GND*%
X156100000Y-70225000D03*
%TD*%
D60*
%TO.P,L1,1*%
%TO.N,BUCK_OUT*%
X116900000Y-119200000D03*
%TO.P,L1,2*%
%TO.N,BUCK_FB*%
X116900000Y-121400000D03*
%TD*%
D25*
%TO.P,C2,1*%
%TO.N,GND*%
X126337500Y-85825000D03*
%TO.P,C2,2*%
%TO.N,+3V3*%
X126337500Y-84275000D03*
%TD*%
D61*
%TO.P,U1,1,VBAT*%
%TO.N,+3V3*%
X126100000Y-82000000D03*
%TO.P,U1,2,PC13*%
%TO.N,unconnected-(U1-Pad2)*%
X126100000Y-81500000D03*
%TO.P,U1,3,PC14*%
%TO.N,unconnected-(U1-Pad3)*%
X126100000Y-81000000D03*
%TO.P,U1,4,PC15*%
%TO.N,unconnected-(U1-Pad4)*%
X126100000Y-80500000D03*
%TO.P,U1,5,PF0*%
%TO.N,OSC_IN*%
X126100000Y-80000000D03*
%TO.P,U1,6,PF1*%
%TO.N,OSC_OUT*%
X126100000Y-79500000D03*
%TO.P,U1,7,NRST*%
%TO.N,NRST*%
X126100000Y-79000000D03*
%TO.P,U1,8,VSSA*%
%TO.N,GND*%
X126100000Y-78500000D03*
%TO.P,U1,9,VDDA*%
%TO.N,+3.3VA*%
X126100000Y-78000000D03*
%TO.P,U1,10,PA0*%
%TO.N,ADC1_IN1*%
X126100000Y-77500000D03*
%TO.P,U1,11,PA1*%
%TO.N,PWM2*%
X126100000Y-77000000D03*
%TO.P,U1,12,PA2*%
%TO.N,ADC1_IN3*%
X126100000Y-76500000D03*
D62*
%TO.P,U1,13,PA3*%
%TO.N,PWM3_EN*%
X124687500Y-75087500D03*
%TO.P,U1,14,PA4*%
%TO.N,LED_STATUS*%
X124187500Y-75087500D03*
%TO.P,U1,15,PA5*%
%TO.N,PWM1*%
X123687500Y-75087500D03*
%TO.P,U1,16,PA6*%
%TO.N,PWM1_EN*%
X123187500Y-75087500D03*
%TO.P,U1,17,PA7*%
%TO.N,unconnected-(U1-Pad17)*%
X122687500Y-75087500D03*
%TO.P,U1,18,PB0*%
%TO.N,ADC1_IN11*%
X122187500Y-75087500D03*
%TO.P,U1,19,PB1*%
%TO.N,unconnected-(U1-Pad19)*%
X121687500Y-75087500D03*
%TO.P,U1,20,PB2*%
%TO.N,unconnected-(U1-Pad20)*%
X121187500Y-75087500D03*
%TO.P,U1,21,PB10*%
%TO.N,DRV_nSLEEP*%
X120687500Y-75087500D03*
%TO.P,U1,22,PB11*%
%TO.N,DRV_nRESET*%
X120187500Y-75087500D03*
%TO.P,U1,23,VSS*%
%TO.N,GND*%
X119687500Y-75087500D03*
%TO.P,U1,24,VDD*%
%TO.N,+3V3*%
X119187500Y-75087500D03*
D61*
%TO.P,U1,25,PB12*%
%TO.N,SPI2_NSS*%
X117775000Y-76500000D03*
%TO.P,U1,26,PB13*%
%TO.N,SPI2_SCK*%
X117775000Y-77000000D03*
%TO.P,U1,27,PB14*%
%TO.N,SPI2_MISO*%
X117775000Y-77500000D03*
%TO.P,U1,28,PB15*%
%TO.N,SPI2_MOSI*%
X117775000Y-78000000D03*
%TO.P,U1,29,PA8*%
%TO.N,HALL1*%
X117775000Y-78500000D03*
%TO.P,U1,30,PA9*%
%TO.N,PWM3*%
X117775000Y-79000000D03*
%TO.P,U1,31,PA10*%
%TO.N,UART1_RX*%
X117775000Y-79500000D03*
%TO.P,U1,32,PA11*%
%TO.N,USB_D-*%
X117775000Y-80000000D03*
%TO.P,U1,33,PA12*%
%TO.N,USB_D+*%
X117775000Y-80500000D03*
%TO.P,U1,34,PA13*%
%TO.N,SWDIO*%
X117775000Y-81000000D03*
%TO.P,U1,35,VSS*%
%TO.N,GND*%
X117775000Y-81500000D03*
%TO.P,U1,36,VDD*%
%TO.N,+3V3*%
X117775000Y-82000000D03*
D62*
%TO.P,U1,37,PA14*%
%TO.N,SWCLK*%
X119187500Y-83412500D03*
%TO.P,U1,38,PA15*%
%TO.N,HALL2*%
X119687500Y-83412500D03*
%TO.P,U1,39,PB3*%
%TO.N,SWO*%
X120187500Y-83412500D03*
%TO.P,U1,40,PB4*%
%TO.N,PWM2_EN*%
X120687500Y-83412500D03*
%TO.P,U1,41,PB5*%
%TO.N,HALL3*%
X121187500Y-83412500D03*
%TO.P,U1,42,PB6*%
%TO.N,UART1_TX*%
X121687500Y-83412500D03*
%TO.P,U1,43,PB7*%
%TO.N,I2C1_SDA*%
X122187500Y-83412500D03*
%TO.P,U1,44,BOOT0*%
%TO.N,BOOT0*%
X122687500Y-83412500D03*
%TO.P,U1,45,PB8*%
%TO.N,I2C1_SCL*%
X123187500Y-83412500D03*
%TO.P,U1,46,PB9*%
%TO.N,unconnected-(U1-Pad46)*%
X123687500Y-83412500D03*
%TO.P,U1,47,VSS*%
%TO.N,GND*%
X124187500Y-83412500D03*
%TO.P,U1,48,VDD*%
%TO.N,+3V3*%
X124687500Y-83412500D03*
%TD*%
D33*
%TO.P,U6,1*%
%TO.N,ADC1_IN11*%
X137850000Y-100175000D03*
%TO.P,U6,2,GND*%
%TO.N,GND*%
X138800000Y-100175000D03*
%TO.P,U6,3,+*%
%TO.N,CSENS3*%
X139750000Y-100175000D03*
%TO.P,U6,4,-*%
%TO.N,GND*%
X139750000Y-97900000D03*
%TO.P,U6,5,V+*%
%TO.N,+3V3*%
X137850000Y-97900000D03*
%TD*%
D22*
%TO.P,R18,1*%
%TO.N,Net-(R17-Pad2)*%
X137000000Y-68837500D03*
%TO.P,R18,2*%
%TO.N,V3P3OUT*%
X137000000Y-70662500D03*
%TD*%
D63*
%TO.N,GND*%
X117500000Y-104300000D03*
X108300000Y-79400000D03*
X120200000Y-102700000D03*
X152900000Y-106400000D03*
X157500000Y-70200000D03*
X120200000Y-115000000D03*
X151400000Y-70900000D03*
X119300000Y-71800000D03*
X143300000Y-79500000D03*
X151500000Y-114700000D03*
X129800000Y-106900000D03*
X143400000Y-69200000D03*
X143100000Y-90300000D03*
X128900000Y-99700000D03*
X125900000Y-122300000D03*
X105300000Y-78700000D03*
X143100000Y-84100000D03*
X152800000Y-109500000D03*
X129500000Y-80500000D03*
X104700000Y-92200000D03*
X114800000Y-102600000D03*
X151500000Y-117700000D03*
X117500000Y-110100000D03*
X133100000Y-99700000D03*
X130600000Y-72724500D03*
X143700000Y-67200000D03*
X114700000Y-85000000D03*
X128724500Y-87100000D03*
X128900000Y-76400000D03*
X117900000Y-72100000D03*
X116200000Y-72200000D03*
X124200000Y-84700000D03*
X156100000Y-69100000D03*
X117500000Y-113800000D03*
X154700000Y-70300000D03*
X151400000Y-72100000D03*
X143100000Y-97237500D03*
X117500000Y-100800000D03*
X111400000Y-115600000D03*
X117500000Y-112700000D03*
X128000000Y-123600000D03*
X140200000Y-79900000D03*
X154100000Y-107900000D03*
X112249951Y-82174549D03*
X153800000Y-116200000D03*
%TO.N,+3V3*%
X130100000Y-76400000D03*
X115006425Y-76924500D03*
X128724500Y-84200000D03*
X111400000Y-118500000D03*
X115300000Y-74200000D03*
X134700000Y-102900000D03*
X105300000Y-83900000D03*
X113800000Y-125000000D03*
X134400000Y-97000000D03*
X137800000Y-89600000D03*
X132600000Y-102800000D03*
X115700000Y-82200000D03*
X137700000Y-83600000D03*
X127700000Y-88500000D03*
X122500000Y-90000000D03*
X112800000Y-123700000D03*
X137100000Y-97837500D03*
%TO.N,BUCK_FB*%
X113400000Y-121000000D03*
X122700000Y-111400000D03*
%TO.N,+5VD*%
X108500000Y-74600000D03*
X136400000Y-112400000D03*
%TO.N,SWDIO*%
X107550000Y-89000000D03*
X107550000Y-87000000D03*
%TO.N,SWCLK*%
X114850000Y-88850000D03*
X118500000Y-85200000D03*
X113200000Y-88900000D03*
X118500000Y-87700000D03*
%TO.N,SWO*%
X119112000Y-82075500D03*
X106550000Y-95400000D03*
%TO.N,NRST*%
X128000000Y-79300000D03*
%TO.N,I2C1_SDA*%
X120600498Y-87699989D03*
X121475500Y-85081513D03*
%TO.N,SPI2_SCK*%
X119250000Y-89700000D03*
X119250000Y-77275500D03*
%TO.N,SPI2_MISO*%
X112662299Y-78362299D03*
X112675500Y-75000000D03*
X114124500Y-74975500D03*
%TO.N,SPI2_MOSI*%
X123750000Y-82000000D03*
%TO.N,SPI2_NSS*%
X124749503Y-82000000D03*
%TO.N,UART1_TX*%
X121975500Y-80700000D03*
X121600000Y-87700000D03*
%TO.N,UART1_RX*%
X122700000Y-82000000D03*
X122700000Y-87700000D03*
%TO.N,HALL1*%
X114900000Y-78750011D03*
X112500000Y-86075500D03*
X114312299Y-82187701D03*
%TO.N,HALL2*%
X119512299Y-85212299D03*
X115000000Y-90300000D03*
X119500000Y-87700000D03*
%TO.N,HALL3*%
X120800000Y-80800000D03*
%TO.N,CSENS1*%
X152300000Y-76600000D03*
X143400000Y-87000000D03*
%TO.N,CSENS3*%
X154200000Y-73749500D03*
X143600000Y-100237500D03*
%TO.N,CSENS2*%
X143500000Y-93300000D03*
X153400000Y-75873179D03*
%TO.N,ADC1_IN1*%
X132895825Y-79927792D03*
X132900000Y-82700000D03*
X124430159Y-77469841D03*
X126087701Y-75487701D03*
%TO.N,PWM2*%
X140400000Y-74275500D03*
X123775500Y-76602762D03*
%TO.N,ADC1_IN3*%
X131900494Y-82700037D03*
X131884023Y-79914996D03*
%TO.N,PWM1*%
X146400000Y-78900000D03*
X122700000Y-72700000D03*
%TO.N,PWM1_EN*%
X122600000Y-76600000D03*
X138900000Y-74375500D03*
%TO.N,ADC1_IN11*%
X121412000Y-73400000D03*
X130900992Y-82700000D03*
%TO.N,DRV_nSLEEP*%
X126900000Y-71974500D03*
X146750000Y-72000498D03*
%TO.N,DRV_nRESET*%
X147750000Y-72000000D03*
X127700000Y-71200000D03*
%TO.N,PWM3*%
X141900000Y-73800000D03*
X141900000Y-75274980D03*
%TO.N,PWM2_EN*%
X141900000Y-76300000D03*
X119824500Y-81220583D03*
%TD*%
D64*
%TO.N,GND*%
X107772849Y-77250000D02*
X107212500Y-77250000D01*
X108300000Y-79400000D02*
X108324520Y-79375480D01*
X114700000Y-85000000D02*
X115562500Y-85000000D01*
D65*
X136850000Y-79950000D02*
X137250000Y-79950000D01*
X122235718Y-77500000D02*
X121297494Y-77500000D01*
D64*
X104729511Y-92170489D02*
X104700000Y-92200000D01*
D66*
X125900000Y-122300000D02*
X125900000Y-123600000D01*
D65*
X119687500Y-75890006D02*
X119687500Y-75087500D01*
D64*
X139250000Y-79975000D02*
X140125000Y-79975000D01*
D65*
X116237500Y-72237500D02*
X116200000Y-72200000D01*
D64*
X136625000Y-80575000D02*
X137250000Y-79950000D01*
X140125000Y-79975000D02*
X140200000Y-79900000D01*
X143375000Y-69225000D02*
X143400000Y-69200000D01*
X154700000Y-70300000D02*
X156025000Y-70300000D01*
X111400000Y-115600000D02*
X112637500Y-115600000D01*
D66*
X119910000Y-112700000D02*
X119975000Y-112635000D01*
D64*
X138800000Y-91912500D02*
X139750000Y-90962500D01*
X117337500Y-84925000D02*
X115637500Y-84925000D01*
X147350000Y-73601391D02*
X149226391Y-71725000D01*
X139250000Y-79975000D02*
X137275000Y-79975000D01*
D66*
X120200000Y-114130000D02*
X119975000Y-113905000D01*
X120900000Y-115700000D02*
X120200000Y-115000000D01*
D64*
X112637500Y-115600000D02*
X112700000Y-115537500D01*
D65*
X124200000Y-83425000D02*
X124187500Y-83412500D01*
D64*
X142500000Y-69225000D02*
X143375000Y-69225000D01*
D66*
X117500000Y-110100000D02*
X119970000Y-110100000D01*
D65*
X135050000Y-78250000D02*
X135150000Y-78250000D01*
D66*
X128724500Y-87100000D02*
X128724500Y-86249500D01*
D65*
X124200000Y-84700000D02*
X124200000Y-83425000D01*
D64*
X138700000Y-85712500D02*
X139650000Y-84762500D01*
D65*
X116024614Y-81500000D02*
X117775000Y-81500000D01*
D64*
X143300000Y-79500000D02*
X143325000Y-79525000D01*
X146375000Y-74325000D02*
X147350000Y-75300000D01*
X130062000Y-73262500D02*
X130600000Y-72724500D01*
X105225000Y-78625000D02*
X105300000Y-78700000D01*
X129800000Y-107612500D02*
X129762500Y-107650000D01*
D66*
X126337500Y-85825000D02*
X128300000Y-85825000D01*
D64*
X149226391Y-71725000D02*
X150212500Y-71725000D01*
X138700000Y-87037500D02*
X138700000Y-85712500D01*
X104530000Y-89550000D02*
X104729511Y-89749511D01*
D65*
X123235718Y-78500000D02*
X122235718Y-77500000D01*
X121297494Y-77500000D02*
X119687500Y-75890006D01*
D66*
X128300000Y-85825000D02*
X128400000Y-85925000D01*
D64*
X138800000Y-98850000D02*
X139750000Y-97900000D01*
D65*
X117937500Y-72137500D02*
X117900000Y-72100000D01*
D66*
X117500000Y-112700000D02*
X119910000Y-112700000D01*
X128724500Y-86249500D02*
X128400000Y-85925000D01*
X119870000Y-113800000D02*
X119975000Y-113905000D01*
D64*
X108324520Y-79375480D02*
X108324520Y-77801671D01*
X129500000Y-80500000D02*
X129500000Y-79575000D01*
D65*
X112249951Y-82174549D02*
X112961310Y-81463190D01*
D66*
X119970000Y-110100000D02*
X119975000Y-110095000D01*
D64*
X143325000Y-79525000D02*
X144487500Y-79525000D01*
X143650000Y-67250000D02*
X143700000Y-67200000D01*
X104729511Y-89749511D02*
X104729511Y-92170489D01*
X147350000Y-75300000D02*
X147350000Y-73601391D01*
X136625000Y-81650000D02*
X136625000Y-80575000D01*
D65*
X119687500Y-72187500D02*
X119687500Y-75087500D01*
D64*
X129600000Y-73225000D02*
X129562500Y-73262500D01*
X128900000Y-99700000D02*
X128900000Y-98987500D01*
X133100000Y-99700000D02*
X133100000Y-98337500D01*
D66*
X120900000Y-116600000D02*
X120900000Y-115700000D01*
D64*
X108324520Y-77801671D02*
X107772849Y-77250000D01*
X142662500Y-67250000D02*
X143650000Y-67250000D01*
X157500000Y-70200000D02*
X156125000Y-70200000D01*
X138800000Y-100175000D02*
X138800000Y-98850000D01*
D65*
X115987804Y-81463190D02*
X116024614Y-81500000D01*
D64*
X137275000Y-79975000D02*
X137250000Y-79950000D01*
D66*
X128000000Y-123600000D02*
X125900000Y-123600000D01*
D64*
X128900000Y-76400000D02*
X127975000Y-76400000D01*
X104062500Y-78625000D02*
X105225000Y-78625000D01*
X144487500Y-74325000D02*
X146375000Y-74325000D01*
D65*
X119300000Y-71800000D02*
X119687500Y-72187500D01*
D64*
X129800000Y-106900000D02*
X129800000Y-107612500D01*
X127975000Y-76400000D02*
X127950000Y-76425000D01*
X133100000Y-98337500D02*
X133112500Y-98325000D01*
X156025000Y-70300000D02*
X156100000Y-70225000D01*
D66*
X120200000Y-115000000D02*
X120200000Y-114130000D01*
D64*
X115562500Y-85000000D02*
X115637500Y-84925000D01*
D65*
X126100000Y-78500000D02*
X123235718Y-78500000D01*
D64*
X156125000Y-70200000D02*
X156100000Y-70225000D01*
D65*
X112961310Y-81463190D02*
X115987804Y-81463190D01*
D66*
X117500000Y-113800000D02*
X119870000Y-113800000D01*
D65*
X117937500Y-72975000D02*
X117937500Y-72137500D01*
D64*
X156100000Y-69100000D02*
X156100000Y-70225000D01*
X129562500Y-73262500D02*
X130062000Y-73262500D01*
D65*
X116237500Y-73075000D02*
X116237500Y-72237500D01*
X135150000Y-78250000D02*
X136850000Y-79950000D01*
D64*
X138800000Y-93237500D02*
X138800000Y-91912500D01*
X128900000Y-98987500D02*
X128887500Y-98975000D01*
%TO.N,+3V3*%
X137787500Y-97837500D02*
X137850000Y-97900000D01*
X113800000Y-123737500D02*
X113837500Y-123700000D01*
X115006425Y-76924500D02*
X114900500Y-76924500D01*
X137700000Y-84712500D02*
X137750000Y-84762500D01*
X111400000Y-118500000D02*
X112662500Y-118500000D01*
D65*
X118500000Y-75087500D02*
X117937500Y-74525000D01*
D64*
X134700000Y-102900000D02*
X134700000Y-104362500D01*
X112662500Y-118500000D02*
X112700000Y-118462500D01*
X132600000Y-102800000D02*
X132600000Y-101562500D01*
X131037500Y-76400000D02*
X131050000Y-76412500D01*
D66*
X126275000Y-88625000D02*
X126500000Y-88400000D01*
D64*
X112800000Y-123700000D02*
X113837500Y-123700000D01*
D66*
X127700000Y-88500000D02*
X126600000Y-88500000D01*
D64*
X105300000Y-84280000D02*
X104530000Y-85050000D01*
X133137500Y-97000000D02*
X133112500Y-97025000D01*
D65*
X125750000Y-83100000D02*
X126300000Y-83100000D01*
X125437500Y-83412500D02*
X125750000Y-83100000D01*
D64*
X122500000Y-89275000D02*
X122275000Y-89050000D01*
X114900500Y-76924500D02*
X114275000Y-77550000D01*
D66*
X126600000Y-88500000D02*
X126500000Y-88400000D01*
D65*
X124687500Y-83412500D02*
X125437500Y-83412500D01*
X117775000Y-82937500D02*
X117337500Y-83375000D01*
D64*
X130100000Y-76400000D02*
X131037500Y-76400000D01*
D65*
X126337500Y-83137500D02*
X126337500Y-84275000D01*
D64*
X115812500Y-74200000D02*
X116237500Y-74625000D01*
D65*
X117775000Y-82000000D02*
X117775000Y-82937500D01*
D64*
X113800000Y-125000000D02*
X113800000Y-123737500D01*
D65*
X119187500Y-75087500D02*
X118500000Y-75087500D01*
D64*
X137800000Y-89600000D02*
X137800000Y-90912500D01*
D65*
X126100000Y-82000000D02*
X127075000Y-82975000D01*
D64*
X137700000Y-83600000D02*
X137700000Y-84712500D01*
D65*
X127075000Y-82975000D02*
X128400000Y-82975000D01*
D64*
X137100000Y-97837500D02*
X137787500Y-97837500D01*
X137800000Y-90912500D02*
X137850000Y-90962500D01*
X134400000Y-97000000D02*
X133137500Y-97000000D01*
X115300000Y-74200000D02*
X115812500Y-74200000D01*
D65*
X126300000Y-83100000D02*
X126337500Y-83137500D01*
D64*
X105300000Y-83900000D02*
X105300000Y-84280000D01*
X122500000Y-90000000D02*
X122500000Y-89275000D01*
X115700000Y-83312500D02*
X115637500Y-83375000D01*
X132600000Y-101562500D02*
X132662500Y-101500000D01*
D66*
X124400000Y-88625000D02*
X126275000Y-88625000D01*
D64*
X115700000Y-82200000D02*
X115700000Y-83312500D01*
D66*
%TO.N,BUCK_FB*%
X113400000Y-121000000D02*
X116500000Y-121000000D01*
X121500000Y-123600000D02*
X123600000Y-125700000D01*
X125225000Y-111365000D02*
X122735000Y-111365000D01*
X148500000Y-125700000D02*
X157800000Y-116400000D01*
X157800000Y-116400000D02*
X164900000Y-116400000D01*
X123600000Y-125700000D02*
X148500000Y-125700000D01*
X122735000Y-111365000D02*
X122700000Y-111400000D01*
X116500000Y-121000000D02*
X116900000Y-121400000D01*
%TO.N,BUCK_IN*%
X125225000Y-113905000D02*
X125981402Y-113905000D01*
X126095000Y-110095000D02*
X125225000Y-110095000D01*
X125981402Y-113905000D02*
X126749520Y-113136882D01*
X126749520Y-113136882D02*
X126749520Y-110749520D01*
X126749520Y-110749520D02*
X126095000Y-110095000D01*
D65*
%TO.N,+3.3VA*%
X126100000Y-78000000D02*
X127925000Y-78000000D01*
X127925000Y-78000000D02*
X127950000Y-77975000D01*
%TO.N,OSC_IN*%
X133100000Y-81900000D02*
X135050000Y-79950000D01*
X126100000Y-80000000D02*
X126902506Y-80000000D01*
X126902506Y-80000000D02*
X128802506Y-81900000D01*
D64*
X135075000Y-79975000D02*
X135050000Y-79950000D01*
D65*
X128802506Y-81900000D02*
X133100000Y-81900000D01*
D64*
X135075000Y-81650000D02*
X135075000Y-79975000D01*
D65*
%TO.N,VM*%
X149524639Y-77575000D02*
X149150480Y-77200841D01*
X149475000Y-73025000D02*
X150212500Y-73025000D01*
X150212500Y-77575000D02*
X150914643Y-77575000D01*
X150914643Y-77575000D02*
X151113675Y-77774031D01*
X153374031Y-77774031D02*
X153800000Y-78200000D01*
X149150480Y-77200841D02*
X149150480Y-73349520D01*
X149150480Y-73349520D02*
X149475000Y-73025000D01*
X150212500Y-73025000D02*
X155950000Y-73025000D01*
X153800000Y-102500000D02*
X149850000Y-106450000D01*
X151113675Y-77774031D02*
X153374031Y-77774031D01*
X149850000Y-106450000D02*
X149850000Y-107900000D01*
X155950000Y-73025000D02*
X156100000Y-73175000D01*
X153800000Y-78200000D02*
X153800000Y-102500000D01*
X150212500Y-77575000D02*
X149524639Y-77575000D01*
%TO.N,VCP*%
X150900361Y-78225000D02*
X151300000Y-78624639D01*
X143600000Y-105800000D02*
X142450000Y-106950000D01*
X147900000Y-105800000D02*
X143600000Y-105800000D01*
X151300000Y-102400000D02*
X147900000Y-105800000D01*
X150212500Y-78225000D02*
X150900361Y-78225000D01*
X142450000Y-106950000D02*
X142450000Y-108600000D01*
X151300000Y-78624639D02*
X151300000Y-102400000D01*
%TO.N,V3P3OUT*%
X144487500Y-71075000D02*
X142800000Y-71075000D01*
X142800000Y-71075000D02*
X142500000Y-70775000D01*
%TO.N,Net-(C18-Pad1)*%
X145400000Y-81325000D02*
X147850000Y-78875000D01*
X147850000Y-78875000D02*
X150212500Y-78875000D01*
%TO.N,Net-(C18-Pad2)*%
X146780359Y-82894641D02*
X146780359Y-80580359D01*
X145400000Y-84275000D02*
X146780359Y-82894641D01*
X146780359Y-80580359D02*
X147835718Y-79525000D01*
X147835718Y-79525000D02*
X150212500Y-79525000D01*
D66*
%TO.N,Net-(D1-Pad1)*%
X127675000Y-73200000D02*
X127737500Y-73262500D01*
X126137500Y-73200000D02*
X127675000Y-73200000D01*
D65*
%TO.N,LED_STATUS*%
X124187500Y-75087500D02*
X124187500Y-73575000D01*
X124187500Y-73575000D02*
X124562500Y-73200000D01*
D66*
%TO.N,BUCK_OUT*%
X123500000Y-113603598D02*
X123500000Y-117600000D01*
X122600000Y-118500000D02*
X118800000Y-118500000D01*
X124468598Y-112635000D02*
X123500000Y-113603598D01*
X123500000Y-117600000D02*
X122600000Y-118500000D01*
X118800000Y-118500000D02*
X116900000Y-116600000D01*
X125225000Y-112635000D02*
X124468598Y-112635000D01*
D65*
%TO.N,+5VD*%
X108050000Y-75300000D02*
X108400000Y-75650000D01*
X108400000Y-75650000D02*
X108400000Y-76850000D01*
X108974614Y-77250000D02*
X108574614Y-76850000D01*
X104062500Y-76025000D02*
X104537500Y-76025000D01*
X108500000Y-74600000D02*
X108500000Y-76775386D01*
X136400000Y-112400000D02*
X134200000Y-112400000D01*
X108574614Y-76850000D02*
X108400000Y-76850000D01*
X109487500Y-77250000D02*
X108974614Y-77250000D01*
X105262500Y-75300000D02*
X108050000Y-75300000D01*
X108500000Y-76775386D02*
X108812307Y-77087693D01*
X104537500Y-76025000D02*
X105262500Y-75300000D01*
X134200000Y-112400000D02*
X134000000Y-112200000D01*
%TO.N,Net-(D4-Pad1)*%
X140837500Y-69125000D02*
X140750000Y-69212500D01*
X140837500Y-67250000D02*
X140837500Y-69125000D01*
D66*
%TO.N,Net-(F1-Pad2)*%
X131637500Y-108600000D02*
X134450000Y-108600000D01*
D65*
%TO.N,SWDIO*%
X108150000Y-81000000D02*
X107550000Y-81600000D01*
X107550000Y-89000000D02*
X107512500Y-89037500D01*
X117775000Y-81000000D02*
X108150000Y-81000000D01*
X107512500Y-89037500D02*
X107512500Y-101370000D01*
X107550000Y-81600000D02*
X107550000Y-87000000D01*
%TO.N,SWCLK*%
X118450000Y-87750000D02*
X115950000Y-87750000D01*
X109900000Y-89200000D02*
X108687011Y-90412989D01*
X115950000Y-87750000D02*
X114850000Y-88850000D01*
X118500000Y-87700000D02*
X118450000Y-87750000D01*
X112900000Y-89200000D02*
X109900000Y-89200000D01*
X119187500Y-84512500D02*
X119187500Y-83412500D01*
X108687011Y-90412989D02*
X108687011Y-102735489D01*
X118500000Y-85200000D02*
X119187500Y-84512500D01*
X113200000Y-88900000D02*
X112900000Y-89200000D01*
X108687011Y-102735489D02*
X107512500Y-103910000D01*
%TO.N,SWO*%
X106337989Y-95612011D02*
X106337989Y-105275489D01*
X119927986Y-82350480D02*
X120187500Y-82609994D01*
X119112000Y-82075500D02*
X119386980Y-82350480D01*
X119386980Y-82350480D02*
X119927986Y-82350480D01*
X120187500Y-82609994D02*
X120187500Y-83412500D01*
X106550000Y-95400000D02*
X106337989Y-95612011D01*
X106337989Y-105275489D02*
X107512500Y-106450000D01*
%TO.N,NRST*%
X127700000Y-79000000D02*
X128000000Y-79300000D01*
X126100000Y-79000000D02*
X127700000Y-79000000D01*
%TO.N,I2C1_SCL*%
X115474511Y-86975489D02*
X114115000Y-88335000D01*
X114115000Y-88335000D02*
X114115000Y-93500000D01*
X118290000Y-97675000D02*
X114115000Y-93500000D01*
X123187500Y-83412500D02*
X123187500Y-85762500D01*
X122075000Y-86975000D02*
X122074511Y-86975489D01*
X128887500Y-97675000D02*
X118290000Y-97675000D01*
X124400000Y-86975000D02*
X122075000Y-86975000D01*
X122074511Y-86975489D02*
X115474511Y-86975489D01*
X123187500Y-85762500D02*
X124400000Y-86975000D01*
%TO.N,I2C1_SDA*%
X119655000Y-96500000D02*
X116655000Y-93500000D01*
X120600498Y-89025498D02*
X120625000Y-89050000D01*
X128887500Y-97025000D02*
X128362500Y-96500000D01*
X120600498Y-87699989D02*
X120600498Y-89025498D01*
X120625000Y-89050000D02*
X120550489Y-88975489D01*
X121475500Y-84927006D02*
X122187500Y-84215006D01*
X116655000Y-91270386D02*
X116655000Y-93500000D01*
X128362500Y-96500000D02*
X119655000Y-96500000D01*
X120550489Y-88975489D02*
X118949897Y-88975489D01*
X118949897Y-88975489D02*
X116655000Y-91270386D01*
X121475500Y-85081513D02*
X121475500Y-84927006D01*
X122187500Y-84215006D02*
X122187500Y-83412500D01*
%TO.N,SPI2_SCK*%
X117775000Y-77000000D02*
X118974500Y-77000000D01*
X118974500Y-77000000D02*
X119250000Y-77275500D01*
X119195000Y-89755000D02*
X119195000Y-93500000D01*
X119250000Y-89700000D02*
X119195000Y-89755000D01*
%TO.N,SPI2_MISO*%
X112675500Y-75000000D02*
X112662299Y-75013201D01*
X114975500Y-74975500D02*
X114124500Y-74975500D01*
X115975000Y-77500000D02*
X115925000Y-77550000D01*
X112662299Y-75013201D02*
X112662299Y-78362299D01*
X115925000Y-77550000D02*
X115925000Y-75925000D01*
X117775000Y-77500000D02*
X115975000Y-77500000D01*
X115925000Y-75925000D02*
X114975500Y-74975500D01*
%TO.N,SPI2_MOSI*%
X123750000Y-80314282D02*
X123750000Y-82000000D01*
X117775000Y-78000000D02*
X118577506Y-78000000D01*
X122486198Y-79050480D02*
X123750000Y-80314282D01*
X118577506Y-78000000D02*
X119627986Y-79050480D01*
X119627986Y-79050480D02*
X122486198Y-79050480D01*
%TO.N,SPI2_NSS*%
X119499114Y-76500000D02*
X120000000Y-77000886D01*
X122700000Y-78600000D02*
X124749503Y-80649503D01*
X117775000Y-76500000D02*
X119499114Y-76500000D01*
X124749503Y-80649503D02*
X124749503Y-82000000D01*
X120649520Y-78600000D02*
X122700000Y-78600000D01*
X120000000Y-77000886D02*
X120000000Y-77950480D01*
X120000000Y-77950480D02*
X120649520Y-78600000D01*
%TO.N,UART1_TX*%
X121687500Y-80988000D02*
X121687500Y-83412500D01*
X126755000Y-90900000D02*
X129355000Y-93500000D01*
X121900000Y-90900000D02*
X126755000Y-90900000D01*
X121600000Y-87700000D02*
X121550480Y-87749520D01*
X121975500Y-80700000D02*
X121687500Y-80988000D01*
X121550480Y-90550480D02*
X121900000Y-90900000D01*
X121550480Y-87749520D02*
X121550480Y-90550480D01*
%TO.N,UART1_RX*%
X123833087Y-90009056D02*
X128404056Y-90009056D01*
X122700000Y-79900000D02*
X122700000Y-82000000D01*
X122300000Y-79500000D02*
X122700000Y-79900000D01*
X122700000Y-87700000D02*
X123387980Y-88387980D01*
X117775000Y-79500000D02*
X122300000Y-79500000D01*
X123387980Y-89563949D02*
X123833087Y-90009056D01*
X128404056Y-90009056D02*
X131895000Y-93500000D01*
X123387980Y-88387980D02*
X123387980Y-89563949D01*
D67*
%TO.N,USB_CONN_D-*%
X106513803Y-76650480D02*
X106862020Y-76650480D01*
X104062500Y-76675000D02*
X104212989Y-76825489D01*
X104212989Y-76825489D02*
X105037011Y-76825489D01*
X105037011Y-76825489D02*
X105037011Y-77024999D01*
X106862020Y-76650480D02*
X107212500Y-76300000D01*
X105037011Y-77024999D02*
X106139284Y-77024999D01*
X106139284Y-77024999D02*
X106513803Y-76650480D01*
%TO.N,USB_CONN_D+*%
X104062500Y-77325000D02*
X104076103Y-77325000D01*
X104076103Y-77325000D02*
X104226104Y-77475001D01*
X106513803Y-77849520D02*
X106862020Y-77849520D01*
X106139284Y-77475001D02*
X106513803Y-77849520D01*
X106862020Y-77849520D02*
X107212500Y-78200000D01*
X104226104Y-77475001D02*
X106139284Y-77475001D01*
D68*
%TO.N,unconnected-(J5-Pad6)*%
X103662500Y-80225000D02*
X104062500Y-79825000D01*
X101362500Y-74425000D02*
X101362500Y-80225000D01*
X103062500Y-73825000D02*
X104062500Y-74825000D01*
X101362500Y-80225000D02*
X103662500Y-80225000D01*
X101362500Y-73825000D02*
X103062500Y-73825000D01*
D65*
%TO.N,MOUT1*%
X154624511Y-77324511D02*
X154800000Y-77500000D01*
X154800000Y-85985000D02*
X157110000Y-88295000D01*
X150212500Y-76925000D02*
X150900361Y-76925000D01*
X151299872Y-77324511D02*
X154624511Y-77324511D01*
X154800000Y-77500000D02*
X154800000Y-85985000D01*
X150900361Y-76925000D02*
X151299872Y-77324511D01*
%TO.N,MOUT2*%
X151088323Y-75148679D02*
X154648679Y-75148679D01*
X155500000Y-76000000D02*
X155500000Y-81685000D01*
X150914643Y-74975000D02*
X151088323Y-75148679D01*
X155500000Y-81685000D02*
X157010000Y-83195000D01*
X154648679Y-75148679D02*
X155500000Y-76000000D01*
X150212500Y-74975000D02*
X150914643Y-74975000D01*
%TO.N,MOUT3*%
X155199159Y-74699159D02*
X157010000Y-76510000D01*
X150900361Y-74325000D02*
X151274520Y-74699159D01*
X150212500Y-74325000D02*
X150900361Y-74325000D01*
X151274520Y-74699159D02*
X155199159Y-74699159D01*
X157010000Y-76510000D02*
X157010000Y-78295000D01*
%TO.N,HALL1*%
X114312299Y-82187701D02*
X112500000Y-84000000D01*
X115150011Y-78500000D02*
X114900000Y-78750011D01*
X112500000Y-84000000D02*
X112500000Y-86075500D01*
X117775000Y-78500000D02*
X115150011Y-78500000D01*
%TO.N,HALL2*%
X116924614Y-90300000D02*
X115000000Y-90300000D01*
X119512299Y-84823419D02*
X119687500Y-84648218D01*
X119512299Y-85212299D02*
X119512299Y-84823419D01*
X119500000Y-87724614D02*
X116924614Y-90300000D01*
X119500000Y-87700000D02*
X119500000Y-87724614D01*
X119687500Y-84648218D02*
X119687500Y-83412500D01*
%TO.N,HALL3*%
X121187500Y-81187500D02*
X120800000Y-80800000D01*
X121187500Y-83412500D02*
X121187500Y-81187500D01*
%TO.N,BOOT0*%
X110925000Y-88125000D02*
X112250000Y-86800000D01*
X115475489Y-85974511D02*
X121763103Y-85974511D01*
X114650000Y-86800000D02*
X115475489Y-85974511D01*
X121763103Y-85974511D02*
X122687500Y-85050114D01*
X122687500Y-85050114D02*
X122687500Y-83412500D01*
X112250000Y-86800000D02*
X114650000Y-86800000D01*
D64*
%TO.N,Net-(R5-Pad2)*%
X109200000Y-88050000D02*
X109275000Y-88125000D01*
X104530000Y-88050000D02*
X109200000Y-88050000D01*
D65*
%TO.N,OSC_OUT*%
X132649520Y-81450480D02*
X128988704Y-81450480D01*
X127038224Y-79500000D02*
X126100000Y-79500000D01*
X128988704Y-81450480D02*
X127038224Y-79500000D01*
X133750000Y-80350000D02*
X132649520Y-81450480D01*
X134837500Y-76350000D02*
X133750000Y-77437500D01*
X133750000Y-77437500D02*
X133750000Y-80350000D01*
%TO.N,Net-(R9-Pad1)*%
X144487500Y-73025000D02*
X143799639Y-73025000D01*
X143799639Y-73025000D02*
X143425480Y-72650841D01*
X132312027Y-71549520D02*
X130700000Y-69937493D01*
X130700000Y-69937493D02*
X130700000Y-68600000D01*
X142349520Y-71549520D02*
X132312027Y-71549520D01*
X143425480Y-72650841D02*
X143425480Y-72625480D01*
X130987500Y-68887500D02*
X130700000Y-68600000D01*
X133000000Y-68887500D02*
X130987500Y-68887500D01*
X143425480Y-72625480D02*
X142349520Y-71549520D01*
%TO.N,Net-(R17-Pad1)*%
X133000000Y-70712500D02*
X135000000Y-70712500D01*
%TO.N,CSENS1*%
X141762500Y-87000000D02*
X141700000Y-87062500D01*
X151975000Y-76275000D02*
X152300000Y-76600000D01*
X150212500Y-76275000D02*
X151975000Y-76275000D01*
%TO.N,CSENS3*%
X143600000Y-100237500D02*
X141737500Y-100237500D01*
X154125500Y-73675000D02*
X150212500Y-73675000D01*
X141737500Y-100237500D02*
X141700000Y-100200000D01*
X154200000Y-73749500D02*
X154125500Y-73675000D01*
%TO.N,Net-(R12-Pad1)*%
X130024520Y-98524520D02*
X130024520Y-101212980D01*
X128887500Y-98325000D02*
X129825000Y-98325000D01*
X129825000Y-98325000D02*
X130024520Y-98524520D01*
X130024520Y-101212980D02*
X129737500Y-101500000D01*
%TO.N,Net-(R13-Pad1)*%
X134737500Y-101500000D02*
X134737500Y-98537139D01*
X134737500Y-98537139D02*
X133875361Y-97675000D01*
X133875361Y-97675000D02*
X133112500Y-97675000D01*
%TO.N,Net-(R14-Pad1)*%
X129400000Y-67000000D02*
X133837500Y-67000000D01*
X129000000Y-69800000D02*
X129000000Y-67400000D01*
X144487500Y-73675000D02*
X143799639Y-73675000D01*
X132125830Y-71999040D02*
X130152759Y-70025969D01*
X129000000Y-67400000D02*
X129400000Y-67000000D01*
X142123679Y-71999040D02*
X132125830Y-71999040D01*
X143799639Y-73675000D02*
X142123679Y-71999040D01*
X130152759Y-70025969D02*
X129225969Y-70025969D01*
X129225969Y-70025969D02*
X129000000Y-69800000D01*
%TO.N,Net-(R14-Pad2)*%
X135662500Y-67000000D02*
X137337500Y-67000000D01*
%TO.N,CSENS2*%
X141737500Y-93300000D02*
X141700000Y-93262500D01*
X150212500Y-75625000D02*
X153151821Y-75625000D01*
X143500000Y-93300000D02*
X141737500Y-93300000D01*
X153151821Y-75625000D02*
X153400000Y-75873179D01*
%TO.N,Net-(R17-Pad2)*%
X136950000Y-68887500D02*
X137000000Y-68837500D01*
X135000000Y-68887500D02*
X136950000Y-68887500D01*
%TO.N,Net-(R19-Pad2)*%
X139162500Y-68675000D02*
X139000000Y-68837500D01*
X139162500Y-67000000D02*
X139162500Y-68675000D01*
%TO.N,ADC1_IN1*%
X132900000Y-82700000D02*
X132900000Y-86300000D01*
X132000000Y-75000000D02*
X126800000Y-75000000D01*
X132700000Y-75700000D02*
X132000000Y-75000000D01*
X126100000Y-77500000D02*
X124460318Y-77500000D01*
X132700000Y-79731967D02*
X132700000Y-75700000D01*
X126800000Y-75000000D02*
X126312299Y-75487701D01*
X133600000Y-87000000D02*
X137712500Y-87000000D01*
X126312299Y-75487701D02*
X126087701Y-75487701D01*
X137712500Y-87000000D02*
X137750000Y-87037500D01*
X124460318Y-77500000D02*
X124430159Y-77469841D01*
X132900000Y-86300000D02*
X133600000Y-87000000D01*
X132895825Y-79927792D02*
X132700000Y-79731967D01*
%TO.N,PWM2*%
X140400000Y-75824614D02*
X142150386Y-77575000D01*
X123775500Y-76602762D02*
X123918068Y-76745330D01*
X124984932Y-77000000D02*
X126100000Y-77000000D01*
X140400000Y-74275500D02*
X140400000Y-75824614D01*
X124730262Y-76745330D02*
X124984932Y-77000000D01*
X142150386Y-77575000D02*
X144487500Y-77575000D01*
X123918068Y-76745330D02*
X124730262Y-76745330D01*
%TO.N,ADC1_IN3*%
X136700000Y-92000000D02*
X137850000Y-93150000D01*
X132200000Y-79599019D02*
X132200000Y-75900000D01*
X137850000Y-93150000D02*
X137850000Y-93237500D01*
X131884023Y-79914996D02*
X132200000Y-79599019D01*
X136700000Y-91146072D02*
X136700000Y-92000000D01*
X131900494Y-82700037D02*
X131900000Y-82700531D01*
X131900000Y-82700531D02*
X131900000Y-86346072D01*
X131900000Y-86346072D02*
X136700000Y-91146072D01*
X127100000Y-75500000D02*
X126100000Y-76500000D01*
X131800000Y-75500000D02*
X127100000Y-75500000D01*
X132200000Y-75900000D02*
X131800000Y-75500000D01*
%TO.N,PWM3_EN*%
X125773227Y-74001773D02*
X126058474Y-74287020D01*
X142174145Y-74524511D02*
X143274634Y-75625000D01*
X131391597Y-73376968D02*
X131568565Y-73200000D01*
X124687500Y-75087500D02*
X125773227Y-74001773D01*
X141599897Y-74524511D02*
X142174145Y-74524511D01*
X126058474Y-74287020D02*
X130062973Y-74287020D01*
X140849634Y-73200000D02*
X141175489Y-73525855D01*
X130062973Y-74287020D02*
X130399520Y-73950473D01*
X143274634Y-75625000D02*
X144487500Y-75625000D01*
X141175489Y-73525855D02*
X141175489Y-74100103D01*
X131568565Y-73200000D02*
X140849634Y-73200000D01*
X131391597Y-73950473D02*
X131391597Y-73376968D01*
X130399520Y-73950473D02*
X131391597Y-73950473D01*
X141175489Y-74100103D02*
X141599897Y-74524511D01*
%TO.N,PWM1*%
X144512500Y-78900000D02*
X144487500Y-78875000D01*
X123687500Y-75087500D02*
X123687500Y-73687500D01*
X123687500Y-73687500D02*
X122700000Y-72700000D01*
X146400000Y-78900000D02*
X144512500Y-78900000D01*
%TO.N,PWM1_EN*%
X141825000Y-78225000D02*
X144487500Y-78225000D01*
X123187500Y-75087500D02*
X123187500Y-76012500D01*
X138900000Y-74375500D02*
X139400000Y-74875500D01*
X139400000Y-75800000D02*
X141825000Y-78225000D01*
X139400000Y-74875500D02*
X139400000Y-75800000D01*
X123187500Y-76012500D02*
X122600000Y-76600000D01*
%TO.N,ADC1_IN11*%
X122187500Y-74175500D02*
X121412000Y-73400000D01*
X133200000Y-94300000D02*
X135700000Y-96800000D01*
X135700000Y-98025000D02*
X137850000Y-100175000D01*
X130900992Y-82700000D02*
X130900992Y-86300992D01*
X122187500Y-75087500D02*
X122187500Y-74175500D01*
X130900992Y-86300992D02*
X133200000Y-88600000D01*
X133200000Y-88600000D02*
X133200000Y-94300000D01*
X135700000Y-96800000D02*
X135700000Y-98025000D01*
%TO.N,DRV_nSLEEP*%
X121100000Y-71900000D02*
X120687500Y-72312500D01*
X144612980Y-72249520D02*
X144487500Y-72375000D01*
X126825500Y-71900000D02*
X121100000Y-71900000D01*
X120687500Y-72312500D02*
X120687500Y-75087500D01*
X126900000Y-71974500D02*
X126825500Y-71900000D01*
X146500978Y-72249520D02*
X144612980Y-72249520D01*
X146750000Y-72000498D02*
X146500978Y-72249520D01*
%TO.N,DRV_nRESET*%
X127650000Y-71250000D02*
X120750000Y-71250000D01*
X120187500Y-71812500D02*
X120187500Y-75087500D01*
X127700000Y-71200000D02*
X127650000Y-71250000D01*
X120750000Y-71250000D02*
X120187500Y-71812500D01*
X147750000Y-71975884D02*
X147050103Y-71275987D01*
X145724013Y-71275987D02*
X145275000Y-71725000D01*
X147050103Y-71275987D02*
X145724013Y-71275987D01*
X147750000Y-72000000D02*
X147750000Y-71975884D01*
X145275000Y-71725000D02*
X144487500Y-71725000D01*
%TO.N,PWM3*%
X141700000Y-72500000D02*
X141900000Y-72700000D01*
X117775000Y-79000000D02*
X116972494Y-79000000D01*
X129966561Y-70475489D02*
X131991072Y-72500000D01*
X141900000Y-75274980D02*
X142900020Y-76275000D01*
X142900020Y-76275000D02*
X144487500Y-76275000D01*
X141900000Y-72700000D02*
X141900000Y-73800000D01*
X131991072Y-72500000D02*
X141700000Y-72500000D01*
X116972494Y-79000000D02*
X116497983Y-79474511D01*
X114274511Y-79474511D02*
X113400000Y-78600000D01*
X116497983Y-79474511D02*
X114274511Y-79474511D01*
X113400000Y-73700000D02*
X116624511Y-70475489D01*
X113400000Y-78600000D02*
X113400000Y-73700000D01*
X116624511Y-70475489D02*
X129966561Y-70475489D01*
D67*
%TO.N,USB_D-*%
X110186197Y-76650480D02*
X110449520Y-76913803D01*
X110449520Y-76913803D02*
X110449520Y-77262020D01*
X109487500Y-76300000D02*
X109837980Y-76650480D01*
X109837980Y-76650480D02*
X110186197Y-76650480D01*
X113212499Y-80024999D02*
X117750001Y-80024999D01*
X110449520Y-77262020D02*
X113212499Y-80024999D01*
X117750001Y-80024999D02*
X117775000Y-80000000D01*
%TO.N,USB_D+*%
X113026104Y-80475001D02*
X117750001Y-80475001D01*
X109487500Y-78200000D02*
X110751103Y-78200000D01*
X117750001Y-80475001D02*
X117775000Y-80500000D01*
X110751103Y-78200000D02*
X113026104Y-80475001D01*
D65*
%TO.N,PWM2_EN*%
X141900000Y-76300000D02*
X142525000Y-76925000D01*
X142525000Y-76925000D02*
X144487500Y-76925000D01*
X119824500Y-81220583D02*
X120687500Y-82083583D01*
X120687500Y-82083583D02*
X120687500Y-83412500D01*
D68*
%TO.N,Net-(C12-Pad2)*%
X139250000Y-78425000D02*
X137425000Y-78425000D01*
X136662500Y-76350000D02*
X136662500Y-77662500D01*
X136662500Y-77662500D02*
X137250000Y-78250000D01*
X137425000Y-78425000D02*
X137250000Y-78250000D01*
%TD*%
%TA.AperFunction,Conductor*%
%TO.N,GND*%
G36*
X143642121Y-82420002D02*
G01*
X143688614Y-82473658D01*
X143700000Y-82526000D01*
X143700000Y-85274000D01*
X143679998Y-85342121D01*
X143626342Y-85388614D01*
X143574000Y-85400000D01*
X142648497Y-85400000D01*
X142580376Y-85379998D01*
X142533883Y-85326342D01*
X142523779Y-85256068D01*
X142553273Y-85191488D01*
X142608621Y-85154476D01*
X142641784Y-85143412D01*
X142654962Y-85137239D01*
X142792807Y-85051937D01*
X142804208Y-85042901D01*
X142918739Y-84928171D01*
X142927751Y-84916760D01*
X143012816Y-84778757D01*
X143018963Y-84765576D01*
X143070138Y-84611290D01*
X143073005Y-84597914D01*
X143082672Y-84503562D01*
X143083000Y-84497146D01*
X143083000Y-84409615D01*
X143078525Y-84394376D01*
X143077135Y-84393171D01*
X143069452Y-84391500D01*
X141572000Y-84391500D01*
X141503879Y-84371498D01*
X141457386Y-84317842D01*
X141446000Y-84265500D01*
X141446000Y-83865385D01*
X141954000Y-83865385D01*
X141958475Y-83880624D01*
X141959865Y-83881829D01*
X141967548Y-83883500D01*
X143064884Y-83883500D01*
X143080123Y-83879025D01*
X143081328Y-83877635D01*
X143082999Y-83869952D01*
X143082999Y-83777905D01*
X143082662Y-83771386D01*
X143072743Y-83675794D01*
X143069851Y-83662400D01*
X143018412Y-83508216D01*
X143012239Y-83495038D01*
X142926937Y-83357193D01*
X142917901Y-83345792D01*
X142803171Y-83231261D01*
X142791760Y-83222249D01*
X142653757Y-83137184D01*
X142640576Y-83131037D01*
X142486290Y-83079862D01*
X142472914Y-83076995D01*
X142378562Y-83067328D01*
X142372145Y-83067000D01*
X141972115Y-83067000D01*
X141956876Y-83071475D01*
X141955671Y-83072865D01*
X141954000Y-83080548D01*
X141954000Y-83865385D01*
X141446000Y-83865385D01*
X141446000Y-83085116D01*
X141441525Y-83069877D01*
X141440135Y-83068672D01*
X141432452Y-83067001D01*
X141027905Y-83067001D01*
X141021386Y-83067338D01*
X140925794Y-83077257D01*
X140912400Y-83080149D01*
X140758216Y-83131588D01*
X140745038Y-83137761D01*
X140607193Y-83223063D01*
X140595792Y-83232099D01*
X140481261Y-83346829D01*
X140472249Y-83358240D01*
X140387184Y-83496243D01*
X140381036Y-83509426D01*
X140341579Y-83628386D01*
X140301148Y-83686746D01*
X140235584Y-83713983D01*
X140165703Y-83701450D01*
X140157847Y-83697173D01*
X140070221Y-83645352D01*
X140055790Y-83639107D01*
X139921395Y-83600061D01*
X139907294Y-83600101D01*
X139904000Y-83607370D01*
X139904000Y-84890500D01*
X139883998Y-84958621D01*
X139830342Y-85005114D01*
X139778000Y-85016500D01*
X139522000Y-85016500D01*
X139453879Y-84996498D01*
X139407386Y-84942842D01*
X139396000Y-84890500D01*
X139396000Y-83613122D01*
X139392027Y-83599591D01*
X139384129Y-83598456D01*
X139244210Y-83639107D01*
X139229779Y-83645352D01*
X139100322Y-83721911D01*
X139087896Y-83731551D01*
X138981551Y-83837896D01*
X138971911Y-83850322D01*
X138895352Y-83979779D01*
X138889106Y-83994212D01*
X138846997Y-84139150D01*
X138808784Y-84198986D01*
X138744287Y-84228663D01*
X138673985Y-84218759D01*
X138620197Y-84172420D01*
X138600000Y-84103997D01*
X138600000Y-83735089D01*
X138600690Y-83721919D01*
X138612814Y-83606565D01*
X138613504Y-83600000D01*
X138600690Y-83478081D01*
X138600000Y-83464911D01*
X138600000Y-82526000D01*
X138620002Y-82457879D01*
X138673658Y-82411386D01*
X138726000Y-82400000D01*
X143574000Y-82400000D01*
X143642121Y-82420002D01*
G37*
%TD.AperFunction*%
%TD*%
%TA.AperFunction,Conductor*%
%TO.N,+3V3*%
G36*
X118133621Y-74291002D02*
G01*
X118180114Y-74344658D01*
X118191500Y-74397000D01*
X118191500Y-74653000D01*
X118171498Y-74721121D01*
X118117842Y-74767614D01*
X118065500Y-74779000D01*
X117278615Y-74779000D01*
X117263376Y-74783475D01*
X117257657Y-74790075D01*
X117229253Y-74842094D01*
X117166941Y-74876120D01*
X117140156Y-74879000D01*
X116109500Y-74879000D01*
X116041379Y-74858998D01*
X115994886Y-74805342D01*
X115983500Y-74753000D01*
X115983500Y-74497000D01*
X116003502Y-74428879D01*
X116057158Y-74382386D01*
X116109500Y-74371000D01*
X116896385Y-74371000D01*
X116911624Y-74366525D01*
X116917343Y-74359925D01*
X116945747Y-74307906D01*
X117008059Y-74273880D01*
X117034844Y-74271000D01*
X118065500Y-74271000D01*
X118133621Y-74291002D01*
G37*
%TD.AperFunction*%
%TD*%
%TA.AperFunction,Conductor*%
%TO.N,GND*%
G36*
X151842121Y-70320002D02*
G01*
X151888614Y-70373658D01*
X151900000Y-70426000D01*
X151900000Y-72265500D01*
X151879998Y-72333621D01*
X151826342Y-72380114D01*
X151774000Y-72391500D01*
X151583999Y-72391500D01*
X151515878Y-72371498D01*
X151469385Y-72317842D01*
X151457999Y-72265500D01*
X151457999Y-72239276D01*
X151457461Y-72231065D01*
X151443428Y-72124467D01*
X151439191Y-72108655D01*
X151434869Y-72098221D01*
X151427278Y-72027631D01*
X151434869Y-72001779D01*
X151439190Y-71991348D01*
X151443428Y-71975531D01*
X151447716Y-71942960D01*
X151445505Y-71928778D01*
X151432348Y-71925000D01*
X150430615Y-71925000D01*
X150415376Y-71929475D01*
X150414171Y-71930865D01*
X150412500Y-71938548D01*
X150412500Y-72190500D01*
X150392498Y-72258621D01*
X150338842Y-72305114D01*
X150286501Y-72316500D01*
X150212501Y-72316500D01*
X150138499Y-72316501D01*
X150070380Y-72296499D01*
X150023887Y-72242844D01*
X150012500Y-72190501D01*
X150012500Y-71506885D01*
X150412500Y-71506885D01*
X150416975Y-71522124D01*
X150418365Y-71523329D01*
X150426048Y-71525000D01*
X151431965Y-71525000D01*
X151445736Y-71520956D01*
X151447765Y-71507417D01*
X151443428Y-71474467D01*
X151439191Y-71458655D01*
X151434869Y-71448221D01*
X151427278Y-71377631D01*
X151434869Y-71351779D01*
X151439190Y-71341348D01*
X151443428Y-71325531D01*
X151447716Y-71292960D01*
X151445505Y-71278778D01*
X151432348Y-71275000D01*
X150430615Y-71275000D01*
X150415376Y-71279475D01*
X150414171Y-71280865D01*
X150412500Y-71288548D01*
X150412500Y-71506885D01*
X150012500Y-71506885D01*
X150012500Y-71001000D01*
X150032502Y-70932879D01*
X150086158Y-70886386D01*
X150138500Y-70875000D01*
X151431965Y-70875000D01*
X151445736Y-70870956D01*
X151447765Y-70857417D01*
X151443428Y-70824467D01*
X151439190Y-70808652D01*
X151384247Y-70676007D01*
X151376059Y-70661824D01*
X151288656Y-70547920D01*
X151277080Y-70536344D01*
X151263550Y-70525962D01*
X151221683Y-70468624D01*
X151217461Y-70397753D01*
X151252225Y-70335850D01*
X151314938Y-70302569D01*
X151340254Y-70300000D01*
X151774000Y-70300000D01*
X151842121Y-70320002D01*
G37*
%TD.AperFunction*%
%TD*%
%TA.AperFunction,Conductor*%
%TO.N,+3.3VA*%
G36*
X128944216Y-77741002D02*
G01*
X128958607Y-77751775D01*
X128978865Y-77769329D01*
X128986548Y-77771000D01*
X130008885Y-77771000D01*
X130037407Y-77762625D01*
X130074784Y-77738604D01*
X130110283Y-77733500D01*
X131178000Y-77733500D01*
X131246121Y-77753502D01*
X131292614Y-77807158D01*
X131304000Y-77859500D01*
X131304000Y-78115500D01*
X131283998Y-78183621D01*
X131230342Y-78230114D01*
X131178000Y-78241500D01*
X130541115Y-78241500D01*
X130512593Y-78249875D01*
X130475216Y-78273896D01*
X130439717Y-78279000D01*
X128573905Y-78279000D01*
X128505784Y-78258998D01*
X128491393Y-78248225D01*
X128471135Y-78230671D01*
X128463452Y-78229000D01*
X127397081Y-78229000D01*
X127328960Y-78208998D01*
X127280673Y-78151220D01*
X127275348Y-78138364D01*
X127275345Y-78138360D01*
X127272186Y-78130732D01*
X127230727Y-78076702D01*
X127205128Y-78010483D01*
X127219393Y-77940935D01*
X127230729Y-77923296D01*
X127267156Y-77875823D01*
X127267158Y-77875820D01*
X127272186Y-77869267D01*
X127301382Y-77798782D01*
X127345931Y-77743501D01*
X127417791Y-77721000D01*
X128876095Y-77721000D01*
X128944216Y-77741002D01*
G37*
%TD.AperFunction*%
%TD*%
%TA.AperFunction,Conductor*%
%TO.N,MOUT1*%
G36*
X167942121Y-86420002D02*
G01*
X167988614Y-86473658D01*
X168000000Y-86526000D01*
X168000000Y-89874000D01*
X167979998Y-89942121D01*
X167926342Y-89988614D01*
X167874000Y-90000000D01*
X156126000Y-90000000D01*
X156057879Y-89979998D01*
X156011386Y-89926342D01*
X156000000Y-89874000D01*
X156000000Y-89634407D01*
X156020002Y-89566286D01*
X156073658Y-89519793D01*
X156143932Y-89509689D01*
X156170230Y-89516425D01*
X156242394Y-89543478D01*
X156257649Y-89547105D01*
X156308514Y-89552631D01*
X156315328Y-89553000D01*
X156837885Y-89553000D01*
X156853124Y-89548525D01*
X156854329Y-89547135D01*
X156856000Y-89539452D01*
X156856000Y-89534884D01*
X157364000Y-89534884D01*
X157368475Y-89550123D01*
X157369865Y-89551328D01*
X157377548Y-89552999D01*
X157904669Y-89552999D01*
X157911490Y-89552629D01*
X157962352Y-89547105D01*
X157977604Y-89543479D01*
X158098054Y-89498324D01*
X158113649Y-89489786D01*
X158215724Y-89413285D01*
X158228285Y-89400724D01*
X158304786Y-89298649D01*
X158313324Y-89283054D01*
X158333337Y-89229669D01*
X162522001Y-89229669D01*
X162522371Y-89236490D01*
X162527895Y-89287352D01*
X162531521Y-89302604D01*
X162576676Y-89423054D01*
X162585214Y-89438649D01*
X162661715Y-89540724D01*
X162674276Y-89553285D01*
X162776351Y-89629786D01*
X162791946Y-89638324D01*
X162912394Y-89683478D01*
X162927649Y-89687105D01*
X162978514Y-89692631D01*
X162985328Y-89693000D01*
X164737885Y-89693000D01*
X164753124Y-89688525D01*
X164754329Y-89687135D01*
X164756000Y-89679452D01*
X164756000Y-89674884D01*
X165264000Y-89674884D01*
X165268475Y-89690123D01*
X165269865Y-89691328D01*
X165277548Y-89692999D01*
X167034669Y-89692999D01*
X167041490Y-89692629D01*
X167092352Y-89687105D01*
X167107604Y-89683479D01*
X167228054Y-89638324D01*
X167243649Y-89629786D01*
X167345724Y-89553285D01*
X167358285Y-89540724D01*
X167434786Y-89438649D01*
X167443324Y-89423054D01*
X167488478Y-89302606D01*
X167492105Y-89287351D01*
X167497631Y-89236486D01*
X167498000Y-89229672D01*
X167498000Y-88467115D01*
X167493525Y-88451876D01*
X167492135Y-88450671D01*
X167484452Y-88449000D01*
X165282115Y-88449000D01*
X165266876Y-88453475D01*
X165265671Y-88454865D01*
X165264000Y-88462548D01*
X165264000Y-89674884D01*
X164756000Y-89674884D01*
X164756000Y-88467115D01*
X164751525Y-88451876D01*
X164750135Y-88450671D01*
X164742452Y-88449000D01*
X162540116Y-88449000D01*
X162524877Y-88453475D01*
X162523672Y-88454865D01*
X162522001Y-88462548D01*
X162522001Y-89229669D01*
X158333337Y-89229669D01*
X158358478Y-89162606D01*
X158362105Y-89147351D01*
X158367631Y-89096486D01*
X158368000Y-89089672D01*
X158368000Y-88567115D01*
X158363525Y-88551876D01*
X158362135Y-88550671D01*
X158354452Y-88549000D01*
X157382115Y-88549000D01*
X157366876Y-88553475D01*
X157365671Y-88554865D01*
X157364000Y-88562548D01*
X157364000Y-89534884D01*
X156856000Y-89534884D01*
X156856000Y-88022885D01*
X157364000Y-88022885D01*
X157368475Y-88038124D01*
X157369865Y-88039329D01*
X157377548Y-88041000D01*
X158349884Y-88041000D01*
X158365123Y-88036525D01*
X158366328Y-88035135D01*
X158367999Y-88027452D01*
X158367999Y-87922885D01*
X162522000Y-87922885D01*
X162526475Y-87938124D01*
X162527865Y-87939329D01*
X162535548Y-87941000D01*
X164737885Y-87941000D01*
X164753124Y-87936525D01*
X164754329Y-87935135D01*
X164756000Y-87927452D01*
X164756000Y-87922885D01*
X165264000Y-87922885D01*
X165268475Y-87938124D01*
X165269865Y-87939329D01*
X165277548Y-87941000D01*
X167479884Y-87941000D01*
X167495123Y-87936525D01*
X167496328Y-87935135D01*
X167497999Y-87927452D01*
X167497999Y-87160331D01*
X167497629Y-87153510D01*
X167492105Y-87102648D01*
X167488479Y-87087396D01*
X167443324Y-86966946D01*
X167434786Y-86951351D01*
X167358285Y-86849276D01*
X167345724Y-86836715D01*
X167243649Y-86760214D01*
X167228054Y-86751676D01*
X167107606Y-86706522D01*
X167092351Y-86702895D01*
X167041486Y-86697369D01*
X167034672Y-86697000D01*
X165282115Y-86697000D01*
X165266876Y-86701475D01*
X165265671Y-86702865D01*
X165264000Y-86710548D01*
X165264000Y-87922885D01*
X164756000Y-87922885D01*
X164756000Y-86715116D01*
X164751525Y-86699877D01*
X164750135Y-86698672D01*
X164742452Y-86697001D01*
X162985331Y-86697001D01*
X162978510Y-86697371D01*
X162927648Y-86702895D01*
X162912396Y-86706521D01*
X162791946Y-86751676D01*
X162776351Y-86760214D01*
X162674276Y-86836715D01*
X162661715Y-86849276D01*
X162585214Y-86951351D01*
X162576676Y-86966946D01*
X162531522Y-87087394D01*
X162527895Y-87102649D01*
X162522369Y-87153514D01*
X162522000Y-87160328D01*
X162522000Y-87922885D01*
X158367999Y-87922885D01*
X158367999Y-87500331D01*
X158367629Y-87493510D01*
X158362105Y-87442648D01*
X158358479Y-87427396D01*
X158313324Y-87306946D01*
X158304786Y-87291351D01*
X158228285Y-87189276D01*
X158215724Y-87176715D01*
X158113649Y-87100214D01*
X158098054Y-87091676D01*
X157977606Y-87046522D01*
X157962351Y-87042895D01*
X157911486Y-87037369D01*
X157904672Y-87037000D01*
X157382115Y-87037000D01*
X157366876Y-87041475D01*
X157365671Y-87042865D01*
X157364000Y-87050548D01*
X157364000Y-88022885D01*
X156856000Y-88022885D01*
X156856000Y-87055116D01*
X156851525Y-87039877D01*
X156850135Y-87038672D01*
X156842452Y-87037001D01*
X156315331Y-87037001D01*
X156308510Y-87037371D01*
X156257648Y-87042895D01*
X156242396Y-87046521D01*
X156170230Y-87073575D01*
X156099423Y-87078758D01*
X156037054Y-87044837D01*
X156002924Y-86982582D01*
X156000000Y-86955593D01*
X156000000Y-86526000D01*
X156020002Y-86457879D01*
X156073658Y-86411386D01*
X156126000Y-86400000D01*
X167874000Y-86400000D01*
X167942121Y-86420002D01*
G37*
%TD.AperFunction*%
%TD*%
%TA.AperFunction,Conductor*%
%TO.N,GND*%
G36*
X121644298Y-109016287D02*
G01*
X121690845Y-109069895D01*
X121702263Y-109119976D01*
X121736966Y-110959210D01*
X121739097Y-111072171D01*
X121733614Y-111111384D01*
X121706613Y-111199698D01*
X121686626Y-111396462D01*
X121705239Y-111593362D01*
X121714631Y-111624865D01*
X121746978Y-111733373D01*
X121752207Y-111766990D01*
X121776513Y-113055221D01*
X121797508Y-114167978D01*
X121778794Y-114236464D01*
X121726025Y-114283961D01*
X121671655Y-114296355D01*
X121426048Y-114296599D01*
X121357908Y-114276665D01*
X121311361Y-114223055D01*
X121299924Y-114170958D01*
X121299899Y-114162295D01*
X121292630Y-114159000D01*
X118663122Y-114159000D01*
X118649591Y-114162973D01*
X118645502Y-114191415D01*
X118616009Y-114255995D01*
X118556283Y-114294379D01*
X118520911Y-114299483D01*
X118126124Y-114299875D01*
X118057985Y-114279941D01*
X118011438Y-114226331D01*
X118000000Y-114173875D01*
X118000000Y-112900871D01*
X118648456Y-112900871D01*
X118689107Y-113040790D01*
X118695352Y-113055221D01*
X118771912Y-113184678D01*
X118778189Y-113192770D01*
X118804139Y-113258854D01*
X118790241Y-113328477D01*
X118778189Y-113347230D01*
X118771912Y-113355322D01*
X118695352Y-113484779D01*
X118689107Y-113499210D01*
X118650061Y-113633605D01*
X118650101Y-113647706D01*
X118657370Y-113651000D01*
X119702885Y-113651000D01*
X119718124Y-113646525D01*
X119719329Y-113645135D01*
X119721000Y-113637452D01*
X119721000Y-113632885D01*
X120229000Y-113632885D01*
X120233475Y-113648124D01*
X120234865Y-113649329D01*
X120242548Y-113651000D01*
X121286878Y-113651000D01*
X121300409Y-113647027D01*
X121301544Y-113639129D01*
X121260893Y-113499210D01*
X121254648Y-113484779D01*
X121178088Y-113355322D01*
X121171811Y-113347230D01*
X121145861Y-113281146D01*
X121159759Y-113211523D01*
X121171811Y-113192770D01*
X121178088Y-113184678D01*
X121254648Y-113055221D01*
X121260893Y-113040790D01*
X121299939Y-112906395D01*
X121299899Y-112892294D01*
X121292630Y-112889000D01*
X120247115Y-112889000D01*
X120231876Y-112893475D01*
X120230671Y-112894865D01*
X120229000Y-112902548D01*
X120229000Y-113632885D01*
X119721000Y-113632885D01*
X119721000Y-112907115D01*
X119716525Y-112891876D01*
X119715135Y-112890671D01*
X119707452Y-112889000D01*
X118663122Y-112889000D01*
X118649591Y-112892973D01*
X118648456Y-112900871D01*
X118000000Y-112900871D01*
X118000000Y-111630871D01*
X118648456Y-111630871D01*
X118689107Y-111770790D01*
X118695352Y-111785221D01*
X118771912Y-111914678D01*
X118778189Y-111922770D01*
X118804139Y-111988854D01*
X118790241Y-112058477D01*
X118778189Y-112077230D01*
X118771912Y-112085322D01*
X118695352Y-112214779D01*
X118689107Y-112229210D01*
X118650061Y-112363605D01*
X118650101Y-112377706D01*
X118657370Y-112381000D01*
X119702885Y-112381000D01*
X119718124Y-112376525D01*
X119719329Y-112375135D01*
X119721000Y-112367452D01*
X119721000Y-112362885D01*
X120229000Y-112362885D01*
X120233475Y-112378124D01*
X120234865Y-112379329D01*
X120242548Y-112381000D01*
X121286878Y-112381000D01*
X121300409Y-112377027D01*
X121301544Y-112369129D01*
X121260893Y-112229210D01*
X121254648Y-112214779D01*
X121178088Y-112085322D01*
X121171811Y-112077230D01*
X121145861Y-112011146D01*
X121159759Y-111941523D01*
X121171811Y-111922770D01*
X121178088Y-111914678D01*
X121254648Y-111785221D01*
X121260893Y-111770790D01*
X121299939Y-111636395D01*
X121299899Y-111622294D01*
X121292630Y-111619000D01*
X120247115Y-111619000D01*
X120231876Y-111623475D01*
X120230671Y-111624865D01*
X120229000Y-111632548D01*
X120229000Y-112362885D01*
X119721000Y-112362885D01*
X119721000Y-111637115D01*
X119716525Y-111621876D01*
X119715135Y-111620671D01*
X119707452Y-111619000D01*
X118663122Y-111619000D01*
X118649591Y-111622973D01*
X118648456Y-111630871D01*
X118000000Y-111630871D01*
X118000000Y-110360871D01*
X118648456Y-110360871D01*
X118689107Y-110500790D01*
X118695352Y-110515221D01*
X118771912Y-110644678D01*
X118778189Y-110652770D01*
X118804139Y-110718854D01*
X118790241Y-110788477D01*
X118778189Y-110807230D01*
X118771912Y-110815322D01*
X118695352Y-110944779D01*
X118689107Y-110959210D01*
X118650061Y-111093605D01*
X118650101Y-111107706D01*
X118657370Y-111111000D01*
X119702885Y-111111000D01*
X119718124Y-111106525D01*
X119719329Y-111105135D01*
X119721000Y-111097452D01*
X119721000Y-111092885D01*
X120229000Y-111092885D01*
X120233475Y-111108124D01*
X120234865Y-111109329D01*
X120242548Y-111111000D01*
X121286878Y-111111000D01*
X121300409Y-111107027D01*
X121301544Y-111099129D01*
X121260893Y-110959210D01*
X121254648Y-110944779D01*
X121178088Y-110815322D01*
X121171811Y-110807230D01*
X121145861Y-110741146D01*
X121159759Y-110671523D01*
X121171811Y-110652770D01*
X121178088Y-110644678D01*
X121254648Y-110515221D01*
X121260893Y-110500790D01*
X121299939Y-110366395D01*
X121299899Y-110352294D01*
X121292630Y-110349000D01*
X120247115Y-110349000D01*
X120231876Y-110353475D01*
X120230671Y-110354865D01*
X120229000Y-110362548D01*
X120229000Y-111092885D01*
X119721000Y-111092885D01*
X119721000Y-110367115D01*
X119716525Y-110351876D01*
X119715135Y-110350671D01*
X119707452Y-110349000D01*
X118663122Y-110349000D01*
X118649591Y-110352973D01*
X118648456Y-110360871D01*
X118000000Y-110360871D01*
X118000000Y-109823605D01*
X118650061Y-109823605D01*
X118650101Y-109837706D01*
X118657370Y-109841000D01*
X119702885Y-109841000D01*
X119718124Y-109836525D01*
X119719329Y-109835135D01*
X119721000Y-109827452D01*
X119721000Y-109822885D01*
X120229000Y-109822885D01*
X120233475Y-109838124D01*
X120234865Y-109839329D01*
X120242548Y-109841000D01*
X121286878Y-109841000D01*
X121300409Y-109837027D01*
X121301544Y-109829129D01*
X121260893Y-109689210D01*
X121254648Y-109674779D01*
X121178089Y-109545322D01*
X121168449Y-109532896D01*
X121062104Y-109426551D01*
X121049678Y-109416911D01*
X120920221Y-109340352D01*
X120905790Y-109334107D01*
X120759935Y-109291731D01*
X120747333Y-109289430D01*
X120718916Y-109287193D01*
X120713986Y-109287000D01*
X120247115Y-109287000D01*
X120231876Y-109291475D01*
X120230671Y-109292865D01*
X120229000Y-109300548D01*
X120229000Y-109822885D01*
X119721000Y-109822885D01*
X119721000Y-109305116D01*
X119716525Y-109289877D01*
X119715135Y-109288672D01*
X119707452Y-109287001D01*
X119236017Y-109287001D01*
X119231080Y-109287195D01*
X119202664Y-109289430D01*
X119190069Y-109291730D01*
X119044210Y-109334107D01*
X119029779Y-109340352D01*
X118900322Y-109416911D01*
X118887896Y-109426551D01*
X118781551Y-109532896D01*
X118771911Y-109545322D01*
X118695352Y-109674779D01*
X118689107Y-109689210D01*
X118650061Y-109823605D01*
X118000000Y-109823605D01*
X118000000Y-109125872D01*
X118020002Y-109057751D01*
X118073658Y-109011258D01*
X118125872Y-108999872D01*
X120335017Y-108997619D01*
X121576158Y-108996354D01*
X121644298Y-109016287D01*
G37*
%TD.AperFunction*%
%TD*%
%TA.AperFunction,Conductor*%
%TO.N,GND*%
G36*
X143342121Y-95657502D02*
G01*
X143388614Y-95711158D01*
X143400000Y-95763500D01*
X143400000Y-98411500D01*
X143379998Y-98479621D01*
X143326342Y-98526114D01*
X143274000Y-98537500D01*
X142648497Y-98537500D01*
X142580376Y-98517498D01*
X142533883Y-98463842D01*
X142523779Y-98393568D01*
X142553273Y-98328988D01*
X142608621Y-98291976D01*
X142641784Y-98280912D01*
X142654962Y-98274739D01*
X142792807Y-98189437D01*
X142804208Y-98180401D01*
X142918739Y-98065671D01*
X142927751Y-98054260D01*
X143012816Y-97916257D01*
X143018963Y-97903076D01*
X143070138Y-97748790D01*
X143073005Y-97735414D01*
X143082672Y-97641062D01*
X143083000Y-97634646D01*
X143083000Y-97547115D01*
X143078525Y-97531876D01*
X143077135Y-97530671D01*
X143069452Y-97529000D01*
X141572000Y-97529000D01*
X141503879Y-97508998D01*
X141457386Y-97455342D01*
X141446000Y-97403000D01*
X141446000Y-97002885D01*
X141954000Y-97002885D01*
X141958475Y-97018124D01*
X141959865Y-97019329D01*
X141967548Y-97021000D01*
X143064884Y-97021000D01*
X143080123Y-97016525D01*
X143081328Y-97015135D01*
X143082999Y-97007452D01*
X143082999Y-96915405D01*
X143082662Y-96908886D01*
X143072743Y-96813294D01*
X143069851Y-96799900D01*
X143018412Y-96645716D01*
X143012239Y-96632538D01*
X142926937Y-96494693D01*
X142917901Y-96483292D01*
X142803171Y-96368761D01*
X142791760Y-96359749D01*
X142653757Y-96274684D01*
X142640576Y-96268537D01*
X142486290Y-96217362D01*
X142472914Y-96214495D01*
X142378562Y-96204828D01*
X142372145Y-96204500D01*
X141972115Y-96204500D01*
X141956876Y-96208975D01*
X141955671Y-96210365D01*
X141954000Y-96218048D01*
X141954000Y-97002885D01*
X141446000Y-97002885D01*
X141446000Y-96222616D01*
X141441525Y-96207377D01*
X141440135Y-96206172D01*
X141432452Y-96204501D01*
X141027905Y-96204501D01*
X141021386Y-96204838D01*
X140925794Y-96214757D01*
X140912400Y-96217649D01*
X140758216Y-96269088D01*
X140745038Y-96275261D01*
X140607193Y-96360563D01*
X140595792Y-96369599D01*
X140481261Y-96484329D01*
X140472249Y-96495740D01*
X140387184Y-96633743D01*
X140381037Y-96646924D01*
X140357977Y-96716446D01*
X140317546Y-96774806D01*
X140251981Y-96802042D01*
X140182100Y-96789508D01*
X140174243Y-96785230D01*
X140170225Y-96782854D01*
X140155790Y-96776607D01*
X140021395Y-96737561D01*
X140007294Y-96737601D01*
X140004000Y-96744870D01*
X140004000Y-98028000D01*
X139983998Y-98096121D01*
X139930342Y-98142614D01*
X139878000Y-98154000D01*
X139622000Y-98154000D01*
X139553879Y-98133998D01*
X139507386Y-98080342D01*
X139496000Y-98028000D01*
X139496000Y-96750622D01*
X139492027Y-96737091D01*
X139484129Y-96735956D01*
X139361153Y-96771684D01*
X139290157Y-96771481D01*
X139230541Y-96732928D01*
X139201232Y-96668263D01*
X139200000Y-96650687D01*
X139200000Y-95763500D01*
X139220002Y-95695379D01*
X139273658Y-95648886D01*
X139326000Y-95637500D01*
X143274000Y-95637500D01*
X143342121Y-95657502D01*
G37*
%TD.AperFunction*%
%TD*%
%TA.AperFunction,Conductor*%
%TO.N,BUCK_FB*%
G36*
X115193355Y-120420002D02*
G01*
X115239848Y-120473658D01*
X115249952Y-120543932D01*
X115220458Y-120608512D01*
X115200800Y-120626826D01*
X115194274Y-120631717D01*
X115181715Y-120644276D01*
X115105214Y-120746351D01*
X115096676Y-120761946D01*
X115051522Y-120882394D01*
X115047895Y-120897649D01*
X115042369Y-120948514D01*
X115042000Y-120955328D01*
X115042000Y-121127885D01*
X115046475Y-121143124D01*
X115047865Y-121144329D01*
X115055548Y-121146000D01*
X118739884Y-121146000D01*
X118755123Y-121141525D01*
X118756328Y-121140135D01*
X118757999Y-121132452D01*
X118757999Y-120955331D01*
X118757629Y-120948510D01*
X118752105Y-120897648D01*
X118748479Y-120882396D01*
X118703324Y-120761946D01*
X118694786Y-120746351D01*
X118618285Y-120644276D01*
X118605726Y-120631717D01*
X118599200Y-120626826D01*
X118556686Y-120569966D01*
X118551661Y-120499147D01*
X118585721Y-120436854D01*
X118648052Y-120402864D01*
X118674766Y-120400000D01*
X123774000Y-120400000D01*
X123842121Y-120420002D01*
X123888614Y-120473658D01*
X123900000Y-120526000D01*
X123900000Y-122910200D01*
X123899344Y-122923043D01*
X123891500Y-122999600D01*
X123891500Y-124200400D01*
X123891837Y-124203646D01*
X123891837Y-124203650D01*
X123899327Y-124275836D01*
X123900000Y-124288840D01*
X123900000Y-125274000D01*
X123879998Y-125342121D01*
X123826342Y-125388614D01*
X123774000Y-125400000D01*
X114826000Y-125400000D01*
X114757879Y-125379998D01*
X114711386Y-125326342D01*
X114700000Y-125274000D01*
X114700000Y-125135089D01*
X114700690Y-125121919D01*
X114712814Y-125006565D01*
X114713504Y-125000000D01*
X114705825Y-124926937D01*
X114704010Y-124909665D01*
X114716783Y-124839827D01*
X114740147Y-124807477D01*
X114744134Y-124803483D01*
X114749305Y-124798303D01*
X114782939Y-124743739D01*
X114838275Y-124653968D01*
X114838276Y-124653966D01*
X114842115Y-124647738D01*
X114897797Y-124479861D01*
X114908500Y-124375400D01*
X114908500Y-124372095D01*
X115692001Y-124372095D01*
X115692338Y-124378614D01*
X115702257Y-124474206D01*
X115705149Y-124487600D01*
X115756588Y-124641784D01*
X115762761Y-124654962D01*
X115848063Y-124792807D01*
X115857099Y-124804208D01*
X115971829Y-124918739D01*
X115983240Y-124927751D01*
X116121243Y-125012816D01*
X116134424Y-125018963D01*
X116288710Y-125070138D01*
X116302086Y-125073005D01*
X116396438Y-125082672D01*
X116402854Y-125083000D01*
X116490385Y-125083000D01*
X116505624Y-125078525D01*
X116506829Y-125077135D01*
X116508500Y-125069452D01*
X116508500Y-125064884D01*
X117016500Y-125064884D01*
X117020975Y-125080123D01*
X117022365Y-125081328D01*
X117030048Y-125082999D01*
X117122095Y-125082999D01*
X117128614Y-125082662D01*
X117224206Y-125072743D01*
X117237600Y-125069851D01*
X117391784Y-125018412D01*
X117404962Y-125012239D01*
X117542807Y-124926937D01*
X117554208Y-124917901D01*
X117668739Y-124803171D01*
X117677751Y-124791760D01*
X117762816Y-124653757D01*
X117768963Y-124640576D01*
X117820138Y-124486290D01*
X117823005Y-124472914D01*
X117832672Y-124378562D01*
X117833000Y-124372146D01*
X117833000Y-124197095D01*
X119492001Y-124197095D01*
X119492338Y-124203614D01*
X119502257Y-124299206D01*
X119505149Y-124312600D01*
X119556588Y-124466784D01*
X119562761Y-124479962D01*
X119648063Y-124617807D01*
X119657099Y-124629208D01*
X119771829Y-124743739D01*
X119783240Y-124752751D01*
X119921243Y-124837816D01*
X119934424Y-124843963D01*
X120088710Y-124895138D01*
X120102086Y-124898005D01*
X120196438Y-124907672D01*
X120202854Y-124908000D01*
X121227885Y-124908000D01*
X121243124Y-124903525D01*
X121244329Y-124902135D01*
X121246000Y-124894452D01*
X121246000Y-124889884D01*
X121754000Y-124889884D01*
X121758475Y-124905123D01*
X121759865Y-124906328D01*
X121767548Y-124907999D01*
X122797095Y-124907999D01*
X122803614Y-124907662D01*
X122899206Y-124897743D01*
X122912600Y-124894851D01*
X123066784Y-124843412D01*
X123079962Y-124837239D01*
X123217807Y-124751937D01*
X123229208Y-124742901D01*
X123343739Y-124628171D01*
X123352751Y-124616760D01*
X123437816Y-124478757D01*
X123443963Y-124465576D01*
X123495138Y-124311290D01*
X123498005Y-124297914D01*
X123507672Y-124203562D01*
X123508000Y-124197146D01*
X123508000Y-123872115D01*
X123503525Y-123856876D01*
X123502135Y-123855671D01*
X123494452Y-123854000D01*
X121772115Y-123854000D01*
X121756876Y-123858475D01*
X121755671Y-123859865D01*
X121754000Y-123867548D01*
X121754000Y-124889884D01*
X121246000Y-124889884D01*
X121246000Y-123872115D01*
X121241525Y-123856876D01*
X121240135Y-123855671D01*
X121232452Y-123854000D01*
X119510116Y-123854000D01*
X119494877Y-123858475D01*
X119493672Y-123859865D01*
X119492001Y-123867548D01*
X119492001Y-124197095D01*
X117833000Y-124197095D01*
X117833000Y-123972115D01*
X117828525Y-123956876D01*
X117827135Y-123955671D01*
X117819452Y-123954000D01*
X117034615Y-123954000D01*
X117019376Y-123958475D01*
X117018171Y-123959865D01*
X117016500Y-123967548D01*
X117016500Y-125064884D01*
X116508500Y-125064884D01*
X116508500Y-123972115D01*
X116504025Y-123956876D01*
X116502635Y-123955671D01*
X116494952Y-123954000D01*
X115710116Y-123954000D01*
X115694877Y-123958475D01*
X115693672Y-123959865D01*
X115692001Y-123967548D01*
X115692001Y-124372095D01*
X114908500Y-124372095D01*
X114908500Y-123024600D01*
X114905578Y-122996438D01*
X114898238Y-122925692D01*
X114898237Y-122925688D01*
X114897526Y-122918834D01*
X114894646Y-122910200D01*
X114843868Y-122758002D01*
X114841550Y-122751054D01*
X114748478Y-122600652D01*
X114736982Y-122589176D01*
X114702903Y-122526893D01*
X114700000Y-122500003D01*
X114700000Y-121844669D01*
X115042001Y-121844669D01*
X115042371Y-121851490D01*
X115047895Y-121902352D01*
X115051521Y-121917604D01*
X115096676Y-122038054D01*
X115105214Y-122053649D01*
X115181715Y-122155724D01*
X115194276Y-122168285D01*
X115296351Y-122244786D01*
X115311946Y-122253324D01*
X115432394Y-122298478D01*
X115447649Y-122302105D01*
X115498514Y-122307631D01*
X115505328Y-122308000D01*
X115840771Y-122308000D01*
X115908892Y-122328002D01*
X115955385Y-122381658D01*
X115965489Y-122451932D01*
X115935995Y-122516512D01*
X115929944Y-122523018D01*
X115856261Y-122596829D01*
X115847249Y-122608240D01*
X115762184Y-122746243D01*
X115756037Y-122759424D01*
X115704862Y-122913710D01*
X115701995Y-122927086D01*
X115692328Y-123021438D01*
X115692000Y-123027855D01*
X115692000Y-123427885D01*
X115696475Y-123443124D01*
X115697865Y-123444329D01*
X115705548Y-123446000D01*
X116490385Y-123446000D01*
X116505624Y-123441525D01*
X116506829Y-123440135D01*
X116508500Y-123432452D01*
X116508500Y-123427885D01*
X117016500Y-123427885D01*
X117020975Y-123443124D01*
X117022365Y-123444329D01*
X117030048Y-123446000D01*
X117814884Y-123446000D01*
X117830123Y-123441525D01*
X117831328Y-123440135D01*
X117832999Y-123432452D01*
X117832999Y-123327885D01*
X119492000Y-123327885D01*
X119496475Y-123343124D01*
X119497865Y-123344329D01*
X119505548Y-123346000D01*
X121227885Y-123346000D01*
X121243124Y-123341525D01*
X121244329Y-123340135D01*
X121246000Y-123332452D01*
X121246000Y-123327885D01*
X121754000Y-123327885D01*
X121758475Y-123343124D01*
X121759865Y-123344329D01*
X121767548Y-123346000D01*
X123489884Y-123346000D01*
X123505123Y-123341525D01*
X123506328Y-123340135D01*
X123507999Y-123332452D01*
X123507999Y-123002905D01*
X123507662Y-122996386D01*
X123497743Y-122900794D01*
X123494851Y-122887400D01*
X123443412Y-122733216D01*
X123437239Y-122720038D01*
X123351937Y-122582193D01*
X123342901Y-122570792D01*
X123228171Y-122456261D01*
X123216760Y-122447249D01*
X123078757Y-122362184D01*
X123065576Y-122356037D01*
X122911290Y-122304862D01*
X122897914Y-122301995D01*
X122803562Y-122292328D01*
X122797145Y-122292000D01*
X121772115Y-122292000D01*
X121756876Y-122296475D01*
X121755671Y-122297865D01*
X121754000Y-122305548D01*
X121754000Y-123327885D01*
X121246000Y-123327885D01*
X121246000Y-122310116D01*
X121241525Y-122294877D01*
X121240135Y-122293672D01*
X121232452Y-122292001D01*
X120202905Y-122292001D01*
X120196386Y-122292338D01*
X120100794Y-122302257D01*
X120087400Y-122305149D01*
X119933216Y-122356588D01*
X119920038Y-122362761D01*
X119782193Y-122448063D01*
X119770792Y-122457099D01*
X119656261Y-122571829D01*
X119647249Y-122583240D01*
X119562184Y-122721243D01*
X119556037Y-122734424D01*
X119504862Y-122888710D01*
X119501995Y-122902086D01*
X119492328Y-122996438D01*
X119492000Y-123002855D01*
X119492000Y-123327885D01*
X117832999Y-123327885D01*
X117832999Y-123027905D01*
X117832662Y-123021386D01*
X117822743Y-122925794D01*
X117819851Y-122912400D01*
X117768412Y-122758216D01*
X117762239Y-122745038D01*
X117676937Y-122607193D01*
X117667901Y-122595792D01*
X117595155Y-122523172D01*
X117561076Y-122460889D01*
X117566079Y-122390069D01*
X117608577Y-122333196D01*
X117675075Y-122308328D01*
X117684173Y-122307999D01*
X118294669Y-122307999D01*
X118301490Y-122307629D01*
X118352352Y-122302105D01*
X118367604Y-122298479D01*
X118488054Y-122253324D01*
X118503649Y-122244786D01*
X118605724Y-122168285D01*
X118618285Y-122155724D01*
X118694786Y-122053649D01*
X118703324Y-122038054D01*
X118748478Y-121917606D01*
X118752105Y-121902351D01*
X118757631Y-121851486D01*
X118758000Y-121844672D01*
X118758000Y-121672115D01*
X118753525Y-121656876D01*
X118752135Y-121655671D01*
X118744452Y-121654000D01*
X117172115Y-121654000D01*
X117156876Y-121658475D01*
X117155671Y-121659865D01*
X117154000Y-121667548D01*
X117154000Y-122222000D01*
X117133998Y-122290121D01*
X117080342Y-122336614D01*
X117051966Y-122342787D01*
X117051998Y-122342896D01*
X117019376Y-122352475D01*
X117018171Y-122353865D01*
X117016500Y-122361548D01*
X117016500Y-123427885D01*
X116508500Y-123427885D01*
X116508500Y-122403000D01*
X116528502Y-122334879D01*
X116582158Y-122288386D01*
X116610534Y-122282213D01*
X116610502Y-122282104D01*
X116643124Y-122272525D01*
X116644329Y-122271135D01*
X116646000Y-122263452D01*
X116646000Y-121672115D01*
X116641525Y-121656876D01*
X116640135Y-121655671D01*
X116632452Y-121654000D01*
X115060116Y-121654000D01*
X115044877Y-121658475D01*
X115043672Y-121659865D01*
X115042001Y-121667548D01*
X115042001Y-121844669D01*
X114700000Y-121844669D01*
X114700000Y-120526000D01*
X114720002Y-120457879D01*
X114773658Y-120411386D01*
X114826000Y-120400000D01*
X115125234Y-120400000D01*
X115193355Y-120420002D01*
G37*
%TD.AperFunction*%
%TD*%
%TA.AperFunction,Conductor*%
%TO.N,VM*%
G36*
X151342121Y-106220002D02*
G01*
X151388614Y-106273658D01*
X151400000Y-106326000D01*
X151400000Y-109974000D01*
X151379998Y-110042121D01*
X151326342Y-110088614D01*
X151274000Y-110100000D01*
X148700000Y-110100000D01*
X148700000Y-117874000D01*
X148679998Y-117942121D01*
X148626342Y-117988614D01*
X148574000Y-118000000D01*
X136900000Y-118000000D01*
X136900000Y-123474000D01*
X136879998Y-123542121D01*
X136826342Y-123588614D01*
X136774000Y-123600000D01*
X132326000Y-123600000D01*
X132257879Y-123579998D01*
X132211386Y-123526342D01*
X132200000Y-123474000D01*
X132200000Y-122524669D01*
X133037001Y-122524669D01*
X133037371Y-122531490D01*
X133042895Y-122582352D01*
X133046521Y-122597604D01*
X133091676Y-122718054D01*
X133100214Y-122733649D01*
X133176715Y-122835724D01*
X133189276Y-122848285D01*
X133291351Y-122924786D01*
X133306946Y-122933324D01*
X133427394Y-122978478D01*
X133442649Y-122982105D01*
X133493514Y-122987631D01*
X133500328Y-122988000D01*
X134262885Y-122988000D01*
X134278124Y-122983525D01*
X134279329Y-122982135D01*
X134281000Y-122974452D01*
X134281000Y-122969884D01*
X134789000Y-122969884D01*
X134793475Y-122985123D01*
X134794865Y-122986328D01*
X134802548Y-122987999D01*
X135569669Y-122987999D01*
X135576490Y-122987629D01*
X135627352Y-122982105D01*
X135642604Y-122978479D01*
X135763054Y-122933324D01*
X135778649Y-122924786D01*
X135880724Y-122848285D01*
X135893285Y-122835724D01*
X135969786Y-122733649D01*
X135978324Y-122718054D01*
X136023478Y-122597606D01*
X136027105Y-122582351D01*
X136032631Y-122531486D01*
X136033000Y-122524672D01*
X136033000Y-120772115D01*
X136028525Y-120756876D01*
X136027135Y-120755671D01*
X136019452Y-120754000D01*
X134807115Y-120754000D01*
X134791876Y-120758475D01*
X134790671Y-120759865D01*
X134789000Y-120767548D01*
X134789000Y-122969884D01*
X134281000Y-122969884D01*
X134281000Y-120772115D01*
X134276525Y-120756876D01*
X134275135Y-120755671D01*
X134267452Y-120754000D01*
X133055116Y-120754000D01*
X133039877Y-120758475D01*
X133038672Y-120759865D01*
X133037001Y-120767548D01*
X133037001Y-122524669D01*
X132200000Y-122524669D01*
X132200000Y-120227885D01*
X133037000Y-120227885D01*
X133041475Y-120243124D01*
X133042865Y-120244329D01*
X133050548Y-120246000D01*
X134262885Y-120246000D01*
X134278124Y-120241525D01*
X134279329Y-120240135D01*
X134281000Y-120232452D01*
X134281000Y-120227885D01*
X134789000Y-120227885D01*
X134793475Y-120243124D01*
X134794865Y-120244329D01*
X134802548Y-120246000D01*
X136014884Y-120246000D01*
X136030123Y-120241525D01*
X136031328Y-120240135D01*
X136032999Y-120232452D01*
X136032999Y-118475331D01*
X136032629Y-118468510D01*
X136027105Y-118417648D01*
X136023479Y-118402396D01*
X135978324Y-118281946D01*
X135969786Y-118266351D01*
X135893285Y-118164276D01*
X135880724Y-118151715D01*
X135778649Y-118075214D01*
X135763054Y-118066676D01*
X135642606Y-118021522D01*
X135627351Y-118017895D01*
X135576486Y-118012369D01*
X135569672Y-118012000D01*
X134807115Y-118012000D01*
X134791876Y-118016475D01*
X134790671Y-118017865D01*
X134789000Y-118025548D01*
X134789000Y-120227885D01*
X134281000Y-120227885D01*
X134281000Y-118030116D01*
X134276525Y-118014877D01*
X134275135Y-118013672D01*
X134267452Y-118012001D01*
X133500331Y-118012001D01*
X133493510Y-118012371D01*
X133442648Y-118017895D01*
X133427396Y-118021521D01*
X133306946Y-118066676D01*
X133291351Y-118075214D01*
X133189276Y-118151715D01*
X133176715Y-118164276D01*
X133100214Y-118266351D01*
X133091676Y-118281946D01*
X133046522Y-118402394D01*
X133042895Y-118417649D01*
X133037369Y-118468514D01*
X133037000Y-118475328D01*
X133037000Y-120227885D01*
X132200000Y-120227885D01*
X132200000Y-116797095D01*
X143642001Y-116797095D01*
X143642338Y-116803614D01*
X143652257Y-116899206D01*
X143655149Y-116912600D01*
X143706588Y-117066784D01*
X143712761Y-117079962D01*
X143798063Y-117217807D01*
X143807099Y-117229208D01*
X143921829Y-117343739D01*
X143933240Y-117352751D01*
X144071243Y-117437816D01*
X144084424Y-117443963D01*
X144238710Y-117495138D01*
X144252086Y-117498005D01*
X144346438Y-117507672D01*
X144352854Y-117508000D01*
X145627885Y-117508000D01*
X145643124Y-117503525D01*
X145644329Y-117502135D01*
X145646000Y-117494452D01*
X145646000Y-117489884D01*
X146154000Y-117489884D01*
X146158475Y-117505123D01*
X146159865Y-117506328D01*
X146167548Y-117507999D01*
X147447095Y-117507999D01*
X147453614Y-117507662D01*
X147549206Y-117497743D01*
X147562600Y-117494851D01*
X147716784Y-117443412D01*
X147729962Y-117437239D01*
X147867807Y-117351937D01*
X147879208Y-117342901D01*
X147993739Y-117228171D01*
X148002751Y-117216760D01*
X148087816Y-117078757D01*
X148093963Y-117065576D01*
X148145138Y-116911290D01*
X148148005Y-116897914D01*
X148157672Y-116803562D01*
X148158000Y-116797146D01*
X148158000Y-116472115D01*
X148153525Y-116456876D01*
X148152135Y-116455671D01*
X148144452Y-116454000D01*
X146172115Y-116454000D01*
X146156876Y-116458475D01*
X146155671Y-116459865D01*
X146154000Y-116467548D01*
X146154000Y-117489884D01*
X145646000Y-117489884D01*
X145646000Y-116472115D01*
X145641525Y-116456876D01*
X145640135Y-116455671D01*
X145632452Y-116454000D01*
X143660116Y-116454000D01*
X143644877Y-116458475D01*
X143643672Y-116459865D01*
X143642001Y-116467548D01*
X143642001Y-116797095D01*
X132200000Y-116797095D01*
X132200000Y-116126000D01*
X132220002Y-116057879D01*
X132273658Y-116011386D01*
X132326000Y-116000000D01*
X137500000Y-116000000D01*
X137500000Y-115927885D01*
X143642000Y-115927885D01*
X143646475Y-115943124D01*
X143647865Y-115944329D01*
X143655548Y-115946000D01*
X145627885Y-115946000D01*
X145643124Y-115941525D01*
X145644329Y-115940135D01*
X145646000Y-115932452D01*
X145646000Y-115927885D01*
X146154000Y-115927885D01*
X146158475Y-115943124D01*
X146159865Y-115944329D01*
X146167548Y-115946000D01*
X148139884Y-115946000D01*
X148155123Y-115941525D01*
X148156328Y-115940135D01*
X148157999Y-115932452D01*
X148157999Y-115602905D01*
X148157662Y-115596386D01*
X148147743Y-115500794D01*
X148144851Y-115487400D01*
X148093412Y-115333216D01*
X148087239Y-115320038D01*
X148001937Y-115182193D01*
X147992901Y-115170792D01*
X147878171Y-115056261D01*
X147866760Y-115047249D01*
X147728757Y-114962184D01*
X147715576Y-114956037D01*
X147561290Y-114904862D01*
X147547914Y-114901995D01*
X147453562Y-114892328D01*
X147447145Y-114892000D01*
X146172115Y-114892000D01*
X146156876Y-114896475D01*
X146155671Y-114897865D01*
X146154000Y-114905548D01*
X146154000Y-115927885D01*
X145646000Y-115927885D01*
X145646000Y-114910116D01*
X145641525Y-114894877D01*
X145640135Y-114893672D01*
X145632452Y-114892001D01*
X144352905Y-114892001D01*
X144346386Y-114892338D01*
X144250794Y-114902257D01*
X144237400Y-114905149D01*
X144083216Y-114956588D01*
X144070038Y-114962761D01*
X143932193Y-115048063D01*
X143920792Y-115057099D01*
X143806261Y-115171829D01*
X143797249Y-115183240D01*
X143712184Y-115321243D01*
X143706037Y-115334424D01*
X143654862Y-115488710D01*
X143651995Y-115502086D01*
X143642328Y-115596438D01*
X143642000Y-115602855D01*
X143642000Y-115927885D01*
X137500000Y-115927885D01*
X137500000Y-109722095D01*
X137767001Y-109722095D01*
X137767338Y-109728614D01*
X137777257Y-109824206D01*
X137780149Y-109837600D01*
X137831588Y-109991784D01*
X137837761Y-110004962D01*
X137923063Y-110142807D01*
X137932099Y-110154208D01*
X138046829Y-110268739D01*
X138058240Y-110277751D01*
X138196243Y-110362816D01*
X138209424Y-110368963D01*
X138363710Y-110420138D01*
X138377086Y-110423005D01*
X138471438Y-110432672D01*
X138477854Y-110433000D01*
X138677885Y-110433000D01*
X138693124Y-110428525D01*
X138694329Y-110427135D01*
X138696000Y-110419452D01*
X138696000Y-110414884D01*
X139204000Y-110414884D01*
X139208475Y-110430123D01*
X139209865Y-110431328D01*
X139217548Y-110432999D01*
X139422095Y-110432999D01*
X139428614Y-110432662D01*
X139524206Y-110422743D01*
X139537600Y-110419851D01*
X139691784Y-110368412D01*
X139704962Y-110362239D01*
X139842807Y-110276937D01*
X139854208Y-110267901D01*
X139968739Y-110153171D01*
X139977751Y-110141760D01*
X140062816Y-110003757D01*
X140068963Y-109990576D01*
X140120138Y-109836290D01*
X140123005Y-109822914D01*
X140132672Y-109728562D01*
X140133000Y-109722146D01*
X140133000Y-108872115D01*
X140128525Y-108856876D01*
X140127135Y-108855671D01*
X140119452Y-108854000D01*
X139222115Y-108854000D01*
X139206876Y-108858475D01*
X139205671Y-108859865D01*
X139204000Y-108867548D01*
X139204000Y-110414884D01*
X138696000Y-110414884D01*
X138696000Y-108872115D01*
X138691525Y-108856876D01*
X138690135Y-108855671D01*
X138682452Y-108854000D01*
X137785116Y-108854000D01*
X137769877Y-108858475D01*
X137768672Y-108859865D01*
X137767001Y-108867548D01*
X137767001Y-109722095D01*
X137500000Y-109722095D01*
X137500000Y-108327885D01*
X137767000Y-108327885D01*
X137771475Y-108343124D01*
X137772865Y-108344329D01*
X137780548Y-108346000D01*
X138677885Y-108346000D01*
X138693124Y-108341525D01*
X138694329Y-108340135D01*
X138696000Y-108332452D01*
X138696000Y-108327885D01*
X139204000Y-108327885D01*
X139208475Y-108343124D01*
X139209865Y-108344329D01*
X139217548Y-108346000D01*
X140114884Y-108346000D01*
X140130123Y-108341525D01*
X140131328Y-108340135D01*
X140132999Y-108332452D01*
X140132999Y-107477905D01*
X140132662Y-107471386D01*
X140122743Y-107375794D01*
X140119851Y-107362400D01*
X140068412Y-107208216D01*
X140062239Y-107195038D01*
X139976937Y-107057193D01*
X139967901Y-107045792D01*
X139853171Y-106931261D01*
X139841760Y-106922249D01*
X139703757Y-106837184D01*
X139690576Y-106831037D01*
X139536290Y-106779862D01*
X139522914Y-106776995D01*
X139428562Y-106767328D01*
X139422145Y-106767000D01*
X139222115Y-106767000D01*
X139206876Y-106771475D01*
X139205671Y-106772865D01*
X139204000Y-106780548D01*
X139204000Y-108327885D01*
X138696000Y-108327885D01*
X138696000Y-106785116D01*
X138691525Y-106769877D01*
X138690135Y-106768672D01*
X138682452Y-106767001D01*
X138477905Y-106767001D01*
X138471386Y-106767338D01*
X138375794Y-106777257D01*
X138362400Y-106780149D01*
X138208216Y-106831588D01*
X138195038Y-106837761D01*
X138057193Y-106923063D01*
X138045792Y-106932099D01*
X137931261Y-107046829D01*
X137922249Y-107058240D01*
X137837184Y-107196243D01*
X137831037Y-107209424D01*
X137779862Y-107363710D01*
X137776995Y-107377086D01*
X137767328Y-107471438D01*
X137767000Y-107477855D01*
X137767000Y-108327885D01*
X137500000Y-108327885D01*
X137500000Y-106426000D01*
X137520002Y-106357879D01*
X137573658Y-106311386D01*
X137626000Y-106300000D01*
X140874000Y-106300000D01*
X140942121Y-106320002D01*
X140988614Y-106373658D01*
X141000000Y-106426000D01*
X141000000Y-110000000D01*
X141985200Y-110000000D01*
X141998043Y-110000656D01*
X142074600Y-110008500D01*
X142825400Y-110008500D01*
X142828646Y-110008163D01*
X142828650Y-110008163D01*
X142900836Y-110000673D01*
X142913840Y-110000000D01*
X143900000Y-110000000D01*
X143900000Y-109297095D01*
X144317001Y-109297095D01*
X144317338Y-109303614D01*
X144327257Y-109399206D01*
X144330149Y-109412600D01*
X144381588Y-109566784D01*
X144387761Y-109579962D01*
X144473063Y-109717807D01*
X144482099Y-109729208D01*
X144596829Y-109843739D01*
X144608240Y-109852751D01*
X144746243Y-109937816D01*
X144759424Y-109943963D01*
X144913710Y-109995138D01*
X144927086Y-109998005D01*
X145021438Y-110007672D01*
X145027854Y-110008000D01*
X145127885Y-110008000D01*
X145143124Y-110003525D01*
X145144329Y-110002135D01*
X145146000Y-109994452D01*
X145146000Y-109989884D01*
X145654000Y-109989884D01*
X145658475Y-110005123D01*
X145659865Y-110006328D01*
X145667548Y-110007999D01*
X145772095Y-110007999D01*
X145778614Y-110007662D01*
X145874206Y-109997743D01*
X145887600Y-109994851D01*
X146041784Y-109943412D01*
X146054962Y-109937239D01*
X146192807Y-109851937D01*
X146204208Y-109842901D01*
X146318739Y-109728171D01*
X146327751Y-109716760D01*
X146412816Y-109578757D01*
X146418963Y-109565576D01*
X146470138Y-109411290D01*
X146473005Y-109397914D01*
X146482672Y-109303562D01*
X146483000Y-109297146D01*
X146483000Y-108872115D01*
X146478525Y-108856876D01*
X146477135Y-108855671D01*
X146469452Y-108854000D01*
X145672115Y-108854000D01*
X145656876Y-108858475D01*
X145655671Y-108859865D01*
X145654000Y-108867548D01*
X145654000Y-109989884D01*
X145146000Y-109989884D01*
X145146000Y-108872115D01*
X145141525Y-108856876D01*
X145140135Y-108855671D01*
X145132452Y-108854000D01*
X144335116Y-108854000D01*
X144319877Y-108858475D01*
X144318672Y-108859865D01*
X144317001Y-108867548D01*
X144317001Y-109297095D01*
X143900000Y-109297095D01*
X143900000Y-108597095D01*
X148767001Y-108597095D01*
X148767338Y-108603614D01*
X148777257Y-108699206D01*
X148780149Y-108712600D01*
X148831588Y-108866784D01*
X148837761Y-108879962D01*
X148923063Y-109017807D01*
X148932099Y-109029208D01*
X149046829Y-109143739D01*
X149058240Y-109152751D01*
X149196243Y-109237816D01*
X149209424Y-109243963D01*
X149363710Y-109295138D01*
X149377086Y-109298005D01*
X149471438Y-109307672D01*
X149477854Y-109308000D01*
X149577885Y-109308000D01*
X149593124Y-109303525D01*
X149594329Y-109302135D01*
X149596000Y-109294452D01*
X149596000Y-109289884D01*
X150104000Y-109289884D01*
X150108475Y-109305123D01*
X150109865Y-109306328D01*
X150117548Y-109307999D01*
X150222095Y-109307999D01*
X150228614Y-109307662D01*
X150324206Y-109297743D01*
X150337600Y-109294851D01*
X150491784Y-109243412D01*
X150504962Y-109237239D01*
X150642807Y-109151937D01*
X150654208Y-109142901D01*
X150768739Y-109028171D01*
X150777751Y-109016760D01*
X150862816Y-108878757D01*
X150868963Y-108865576D01*
X150920138Y-108711290D01*
X150923005Y-108697914D01*
X150932672Y-108603562D01*
X150933000Y-108597146D01*
X150933000Y-108172115D01*
X150928525Y-108156876D01*
X150927135Y-108155671D01*
X150919452Y-108154000D01*
X150122115Y-108154000D01*
X150106876Y-108158475D01*
X150105671Y-108159865D01*
X150104000Y-108167548D01*
X150104000Y-109289884D01*
X149596000Y-109289884D01*
X149596000Y-108172115D01*
X149591525Y-108156876D01*
X149590135Y-108155671D01*
X149582452Y-108154000D01*
X148785116Y-108154000D01*
X148769877Y-108158475D01*
X148768672Y-108159865D01*
X148767001Y-108167548D01*
X148767001Y-108597095D01*
X143900000Y-108597095D01*
X143900000Y-108327885D01*
X144317000Y-108327885D01*
X144321475Y-108343124D01*
X144322865Y-108344329D01*
X144330548Y-108346000D01*
X145127885Y-108346000D01*
X145143124Y-108341525D01*
X145144329Y-108340135D01*
X145146000Y-108332452D01*
X145146000Y-108327885D01*
X145654000Y-108327885D01*
X145658475Y-108343124D01*
X145659865Y-108344329D01*
X145667548Y-108346000D01*
X146464884Y-108346000D01*
X146480123Y-108341525D01*
X146481328Y-108340135D01*
X146482999Y-108332452D01*
X146482999Y-107902905D01*
X146482662Y-107896386D01*
X146472743Y-107800794D01*
X146469851Y-107787400D01*
X146418412Y-107633216D01*
X146415915Y-107627885D01*
X148767000Y-107627885D01*
X148771475Y-107643124D01*
X148772865Y-107644329D01*
X148780548Y-107646000D01*
X149577885Y-107646000D01*
X149593124Y-107641525D01*
X149594329Y-107640135D01*
X149596000Y-107632452D01*
X149596000Y-107627885D01*
X150104000Y-107627885D01*
X150108475Y-107643124D01*
X150109865Y-107644329D01*
X150117548Y-107646000D01*
X150914884Y-107646000D01*
X150930123Y-107641525D01*
X150931328Y-107640135D01*
X150932999Y-107632452D01*
X150932999Y-107202905D01*
X150932662Y-107196386D01*
X150922743Y-107100794D01*
X150919851Y-107087400D01*
X150868412Y-106933216D01*
X150862239Y-106920038D01*
X150776937Y-106782193D01*
X150767901Y-106770792D01*
X150653171Y-106656261D01*
X150641760Y-106647249D01*
X150503757Y-106562184D01*
X150490576Y-106556037D01*
X150336290Y-106504862D01*
X150322914Y-106501995D01*
X150228562Y-106492328D01*
X150222145Y-106492000D01*
X150122115Y-106492000D01*
X150106876Y-106496475D01*
X150105671Y-106497865D01*
X150104000Y-106505548D01*
X150104000Y-107627885D01*
X149596000Y-107627885D01*
X149596000Y-106510116D01*
X149591525Y-106494877D01*
X149590135Y-106493672D01*
X149582452Y-106492001D01*
X149477905Y-106492001D01*
X149471386Y-106492338D01*
X149375794Y-106502257D01*
X149362400Y-106505149D01*
X149208216Y-106556588D01*
X149195038Y-106562761D01*
X149057193Y-106648063D01*
X149045792Y-106657099D01*
X148931261Y-106771829D01*
X148922249Y-106783240D01*
X148837184Y-106921243D01*
X148831037Y-106934424D01*
X148779862Y-107088710D01*
X148776995Y-107102086D01*
X148767328Y-107196438D01*
X148767000Y-107202855D01*
X148767000Y-107627885D01*
X146415915Y-107627885D01*
X146412239Y-107620038D01*
X146326937Y-107482193D01*
X146317901Y-107470792D01*
X146203171Y-107356261D01*
X146191760Y-107347249D01*
X146053757Y-107262184D01*
X146040576Y-107256037D01*
X145886290Y-107204862D01*
X145872914Y-107201995D01*
X145778562Y-107192328D01*
X145772145Y-107192000D01*
X145672115Y-107192000D01*
X145656876Y-107196475D01*
X145655671Y-107197865D01*
X145654000Y-107205548D01*
X145654000Y-108327885D01*
X145146000Y-108327885D01*
X145146000Y-107210116D01*
X145141525Y-107194877D01*
X145140135Y-107193672D01*
X145132452Y-107192001D01*
X145027905Y-107192001D01*
X145021386Y-107192338D01*
X144925794Y-107202257D01*
X144912400Y-107205149D01*
X144758216Y-107256588D01*
X144745038Y-107262761D01*
X144607193Y-107348063D01*
X144595792Y-107357099D01*
X144481261Y-107471829D01*
X144472249Y-107483240D01*
X144387184Y-107621243D01*
X144381037Y-107634424D01*
X144329862Y-107788710D01*
X144326995Y-107802086D01*
X144317328Y-107896438D01*
X144317000Y-107902855D01*
X144317000Y-108327885D01*
X143900000Y-108327885D01*
X143900000Y-106559500D01*
X143920002Y-106491379D01*
X143973658Y-106444886D01*
X144026000Y-106433500D01*
X147821233Y-106433500D01*
X147832416Y-106434027D01*
X147839909Y-106435702D01*
X147847835Y-106435453D01*
X147847836Y-106435453D01*
X147907986Y-106433562D01*
X147911945Y-106433500D01*
X147939856Y-106433500D01*
X147943791Y-106433003D01*
X147943856Y-106432995D01*
X147955693Y-106432062D01*
X147987951Y-106431048D01*
X147991970Y-106430922D01*
X147999889Y-106430673D01*
X148019343Y-106425021D01*
X148038700Y-106421013D01*
X148050930Y-106419468D01*
X148050931Y-106419468D01*
X148058797Y-106418474D01*
X148066168Y-106415555D01*
X148066170Y-106415555D01*
X148099912Y-106402196D01*
X148111142Y-106398351D01*
X148145983Y-106388229D01*
X148145984Y-106388229D01*
X148153593Y-106386018D01*
X148160412Y-106381985D01*
X148160417Y-106381983D01*
X148171028Y-106375707D01*
X148188776Y-106367012D01*
X148207617Y-106359552D01*
X148243387Y-106333564D01*
X148253307Y-106327048D01*
X148284535Y-106308580D01*
X148284538Y-106308578D01*
X148291362Y-106304542D01*
X148305683Y-106290221D01*
X148320717Y-106277380D01*
X148330694Y-106270131D01*
X148337107Y-106265472D01*
X148342157Y-106259368D01*
X148342162Y-106259363D01*
X148353477Y-106245685D01*
X148412311Y-106205946D01*
X148450562Y-106200000D01*
X151274000Y-106200000D01*
X151342121Y-106220002D01*
G37*
%TD.AperFunction*%
%TD*%
%TA.AperFunction,Conductor*%
%TO.N,+3V3*%
G36*
X117533621Y-83141002D02*
G01*
X117580114Y-83194658D01*
X117591500Y-83247000D01*
X117591500Y-83503000D01*
X117571498Y-83571121D01*
X117517842Y-83617614D01*
X117465500Y-83629000D01*
X115509500Y-83629000D01*
X115441379Y-83608998D01*
X115394886Y-83555342D01*
X115383500Y-83503000D01*
X115383500Y-83247000D01*
X115403502Y-83178879D01*
X115457158Y-83132386D01*
X115509500Y-83121000D01*
X117465500Y-83121000D01*
X117533621Y-83141002D01*
G37*
%TD.AperFunction*%
%TD*%
%TA.AperFunction,Conductor*%
%TO.N,BUCK_OUT*%
G36*
X115293355Y-115120002D02*
G01*
X115339848Y-115173658D01*
X115349952Y-115243932D01*
X115320458Y-115308512D01*
X115300800Y-115326826D01*
X115294274Y-115331717D01*
X115281715Y-115344276D01*
X115205214Y-115446351D01*
X115196676Y-115461946D01*
X115151522Y-115582394D01*
X115147895Y-115597649D01*
X115142369Y-115648514D01*
X115142000Y-115655328D01*
X115142000Y-116327885D01*
X115146475Y-116343124D01*
X115147865Y-116344329D01*
X115155548Y-116346000D01*
X118639884Y-116346000D01*
X118655123Y-116341525D01*
X118656328Y-116340135D01*
X118657999Y-116332452D01*
X118657999Y-115655331D01*
X118657629Y-115648510D01*
X118652105Y-115597648D01*
X118648479Y-115582396D01*
X118603324Y-115461946D01*
X118594786Y-115446351D01*
X118518285Y-115344276D01*
X118505726Y-115331717D01*
X118499200Y-115326826D01*
X118456686Y-115269966D01*
X118451661Y-115199147D01*
X118485721Y-115136854D01*
X118548052Y-115102864D01*
X118574766Y-115100000D01*
X119074000Y-115100000D01*
X119142121Y-115120002D01*
X119188614Y-115173658D01*
X119200000Y-115226000D01*
X119200000Y-115428812D01*
X119191982Y-115473041D01*
X119151029Y-115582282D01*
X119151027Y-115582288D01*
X119148255Y-115589684D01*
X119141500Y-115651866D01*
X119141500Y-117548134D01*
X119148255Y-117610316D01*
X119151027Y-117617712D01*
X119151029Y-117617718D01*
X119191982Y-117726959D01*
X119200000Y-117771188D01*
X119200000Y-119574000D01*
X119179998Y-119642121D01*
X119126342Y-119688614D01*
X119074000Y-119700000D01*
X118884000Y-119700000D01*
X118815879Y-119679998D01*
X118769386Y-119626342D01*
X118758000Y-119574000D01*
X118758000Y-119472115D01*
X118753525Y-119456876D01*
X118752135Y-119455671D01*
X118744452Y-119454000D01*
X115060116Y-119454000D01*
X115044877Y-119458475D01*
X115043672Y-119459865D01*
X115042001Y-119467548D01*
X115042001Y-119574000D01*
X115021999Y-119642121D01*
X114968343Y-119688614D01*
X114916001Y-119700000D01*
X114526000Y-119700000D01*
X114457879Y-119679998D01*
X114411386Y-119626342D01*
X114400000Y-119574000D01*
X114400000Y-118927885D01*
X115042000Y-118927885D01*
X115046475Y-118943124D01*
X115047865Y-118944329D01*
X115055548Y-118946000D01*
X116627885Y-118946000D01*
X116643124Y-118941525D01*
X116644329Y-118940135D01*
X116646000Y-118932452D01*
X116646000Y-118927885D01*
X117154000Y-118927885D01*
X117158475Y-118943124D01*
X117159865Y-118944329D01*
X117167548Y-118946000D01*
X118739884Y-118946000D01*
X118755123Y-118941525D01*
X118756328Y-118940135D01*
X118757999Y-118932452D01*
X118757999Y-118755331D01*
X118757629Y-118748510D01*
X118752105Y-118697648D01*
X118748479Y-118682396D01*
X118703324Y-118561946D01*
X118694786Y-118546351D01*
X118618285Y-118444276D01*
X118605724Y-118431715D01*
X118503649Y-118355214D01*
X118488054Y-118346676D01*
X118367606Y-118301522D01*
X118352351Y-118297895D01*
X118301486Y-118292369D01*
X118294672Y-118292000D01*
X117172115Y-118292000D01*
X117156876Y-118296475D01*
X117155671Y-118297865D01*
X117154000Y-118305548D01*
X117154000Y-118927885D01*
X116646000Y-118927885D01*
X116646000Y-118310116D01*
X116641525Y-118294877D01*
X116640135Y-118293672D01*
X116632452Y-118292001D01*
X115505331Y-118292001D01*
X115498510Y-118292371D01*
X115447648Y-118297895D01*
X115432396Y-118301521D01*
X115311946Y-118346676D01*
X115296351Y-118355214D01*
X115194276Y-118431715D01*
X115181715Y-118444276D01*
X115105214Y-118546351D01*
X115096676Y-118561946D01*
X115051522Y-118682394D01*
X115047895Y-118697649D01*
X115042369Y-118748514D01*
X115042000Y-118755328D01*
X115042000Y-118927885D01*
X114400000Y-118927885D01*
X114400000Y-117544669D01*
X115142001Y-117544669D01*
X115142371Y-117551490D01*
X115147895Y-117602352D01*
X115151521Y-117617604D01*
X115196676Y-117738054D01*
X115205214Y-117753649D01*
X115281715Y-117855724D01*
X115294276Y-117868285D01*
X115396351Y-117944786D01*
X115411946Y-117953324D01*
X115532394Y-117998478D01*
X115547649Y-118002105D01*
X115598514Y-118007631D01*
X115605328Y-118008000D01*
X116627885Y-118008000D01*
X116643124Y-118003525D01*
X116644329Y-118002135D01*
X116646000Y-117994452D01*
X116646000Y-117989884D01*
X117154000Y-117989884D01*
X117158475Y-118005123D01*
X117159865Y-118006328D01*
X117167548Y-118007999D01*
X118194669Y-118007999D01*
X118201490Y-118007629D01*
X118252352Y-118002105D01*
X118267604Y-117998479D01*
X118388054Y-117953324D01*
X118403649Y-117944786D01*
X118505724Y-117868285D01*
X118518285Y-117855724D01*
X118594786Y-117753649D01*
X118603324Y-117738054D01*
X118648478Y-117617606D01*
X118652105Y-117602351D01*
X118657631Y-117551486D01*
X118658000Y-117544672D01*
X118658000Y-116872115D01*
X118653525Y-116856876D01*
X118652135Y-116855671D01*
X118644452Y-116854000D01*
X117172115Y-116854000D01*
X117156876Y-116858475D01*
X117155671Y-116859865D01*
X117154000Y-116867548D01*
X117154000Y-117989884D01*
X116646000Y-117989884D01*
X116646000Y-116872115D01*
X116641525Y-116856876D01*
X116640135Y-116855671D01*
X116632452Y-116854000D01*
X115160116Y-116854000D01*
X115144877Y-116858475D01*
X115143672Y-116859865D01*
X115142001Y-116867548D01*
X115142001Y-117544669D01*
X114400000Y-117544669D01*
X114400000Y-115226000D01*
X114420002Y-115157879D01*
X114473658Y-115111386D01*
X114526000Y-115100000D01*
X115225234Y-115100000D01*
X115293355Y-115120002D01*
G37*
%TD.AperFunction*%
%TD*%
%TA.AperFunction,Conductor*%
%TO.N,BUCK_IN*%
G36*
X126096121Y-102366002D02*
G01*
X126142614Y-102419658D01*
X126154000Y-102472000D01*
X126154000Y-104339884D01*
X126158475Y-104355123D01*
X126159865Y-104356328D01*
X126167548Y-104357999D01*
X127897095Y-104357999D01*
X127903614Y-104357662D01*
X127999206Y-104347743D01*
X128012600Y-104344851D01*
X128166784Y-104293412D01*
X128179962Y-104287238D01*
X128306604Y-104208870D01*
X128375056Y-104190032D01*
X128442826Y-104211193D01*
X128488397Y-104265634D01*
X128498907Y-104316054D01*
X128498894Y-104357662D01*
X128497569Y-108502455D01*
X129022503Y-108501845D01*
X129090645Y-108521767D01*
X129137201Y-108575368D01*
X129147386Y-108645630D01*
X129117968Y-108710246D01*
X129057802Y-108748841D01*
X128919210Y-108789107D01*
X128904779Y-108795352D01*
X128775322Y-108871911D01*
X128762896Y-108881551D01*
X128656551Y-108987896D01*
X128646911Y-109000322D01*
X128570352Y-109129779D01*
X128564107Y-109144210D01*
X128525061Y-109278605D01*
X128525101Y-109292706D01*
X128532370Y-109296000D01*
X129890500Y-109296000D01*
X129958621Y-109316002D01*
X130005114Y-109369658D01*
X130016500Y-109422000D01*
X130016500Y-110339884D01*
X130020975Y-110355123D01*
X130022365Y-110356328D01*
X130030048Y-110357999D01*
X130413984Y-110357999D01*
X130418920Y-110357805D01*
X130447336Y-110355570D01*
X130459932Y-110353270D01*
X130468271Y-110350847D01*
X130539268Y-110351051D01*
X130585987Y-110376666D01*
X130598950Y-110387911D01*
X130598946Y-110394664D01*
X132076242Y-110390774D01*
X132144414Y-110410597D01*
X132191048Y-110464130D01*
X132202521Y-110513138D01*
X132223941Y-111255331D01*
X132241448Y-111861960D01*
X132241500Y-111865595D01*
X132241500Y-113148134D01*
X132248255Y-113210316D01*
X132275680Y-113283471D01*
X132283644Y-113324060D01*
X132287807Y-113468285D01*
X132296338Y-113763899D01*
X132278309Y-113832569D01*
X132226017Y-113880590D01*
X132170578Y-113893534D01*
X129800949Y-113897040D01*
X127926470Y-113899813D01*
X127858320Y-113879912D01*
X127811748Y-113826325D01*
X127800284Y-113773825D01*
X127800269Y-113605123D01*
X127800226Y-113144669D01*
X128242001Y-113144669D01*
X128242371Y-113151490D01*
X128247895Y-113202352D01*
X128251521Y-113217604D01*
X128296676Y-113338054D01*
X128305214Y-113353649D01*
X128381715Y-113455724D01*
X128394276Y-113468285D01*
X128496351Y-113544786D01*
X128511946Y-113553324D01*
X128632394Y-113598478D01*
X128647649Y-113602105D01*
X128698514Y-113607631D01*
X128705328Y-113608000D01*
X129727885Y-113608000D01*
X129743124Y-113603525D01*
X129744329Y-113602135D01*
X129746000Y-113594452D01*
X129746000Y-113589884D01*
X130254000Y-113589884D01*
X130258475Y-113605123D01*
X130259865Y-113606328D01*
X130267548Y-113607999D01*
X131294669Y-113607999D01*
X131301490Y-113607629D01*
X131352352Y-113602105D01*
X131367604Y-113598479D01*
X131488054Y-113553324D01*
X131503649Y-113544786D01*
X131605724Y-113468285D01*
X131618285Y-113455724D01*
X131694786Y-113353649D01*
X131703324Y-113338054D01*
X131748478Y-113217606D01*
X131752105Y-113202351D01*
X131757631Y-113151486D01*
X131758000Y-113144672D01*
X131758000Y-112472115D01*
X131753525Y-112456876D01*
X131752135Y-112455671D01*
X131744452Y-112454000D01*
X130272115Y-112454000D01*
X130256876Y-112458475D01*
X130255671Y-112459865D01*
X130254000Y-112467548D01*
X130254000Y-113589884D01*
X129746000Y-113589884D01*
X129746000Y-112472115D01*
X129741525Y-112456876D01*
X129740135Y-112455671D01*
X129732452Y-112454000D01*
X128260116Y-112454000D01*
X128244877Y-112458475D01*
X128243672Y-112459865D01*
X128242001Y-112467548D01*
X128242001Y-113144669D01*
X127800226Y-113144669D01*
X127800114Y-111927885D01*
X128242000Y-111927885D01*
X128246475Y-111943124D01*
X128247865Y-111944329D01*
X128255548Y-111946000D01*
X129727885Y-111946000D01*
X129743124Y-111941525D01*
X129744329Y-111940135D01*
X129746000Y-111932452D01*
X129746000Y-111927885D01*
X130254000Y-111927885D01*
X130258475Y-111943124D01*
X130259865Y-111944329D01*
X130267548Y-111946000D01*
X131739884Y-111946000D01*
X131755123Y-111941525D01*
X131756328Y-111940135D01*
X131757999Y-111932452D01*
X131757999Y-111255331D01*
X131757629Y-111248510D01*
X131752105Y-111197648D01*
X131748479Y-111182396D01*
X131703324Y-111061946D01*
X131694786Y-111046351D01*
X131618285Y-110944276D01*
X131605724Y-110931715D01*
X131503649Y-110855214D01*
X131488054Y-110846676D01*
X131367606Y-110801522D01*
X131352351Y-110797895D01*
X131301486Y-110792369D01*
X131294672Y-110792000D01*
X130272115Y-110792000D01*
X130256876Y-110796475D01*
X130255671Y-110797865D01*
X130254000Y-110805548D01*
X130254000Y-111927885D01*
X129746000Y-111927885D01*
X129746000Y-110810116D01*
X129741525Y-110794877D01*
X129740135Y-110793672D01*
X129732452Y-110792001D01*
X128705331Y-110792001D01*
X128698510Y-110792371D01*
X128647648Y-110797895D01*
X128632396Y-110801521D01*
X128511946Y-110846676D01*
X128496351Y-110855214D01*
X128394276Y-110931715D01*
X128381715Y-110944276D01*
X128305214Y-111046351D01*
X128296676Y-111061946D01*
X128251522Y-111182394D01*
X128247895Y-111197649D01*
X128242369Y-111248514D01*
X128242000Y-111255328D01*
X128242000Y-111927885D01*
X127800114Y-111927885D01*
X127800108Y-111865595D01*
X127800002Y-110718115D01*
X127800002Y-110718114D01*
X127800000Y-110700000D01*
X126616272Y-110700000D01*
X126548151Y-110679998D01*
X126501658Y-110626342D01*
X126491554Y-110556068D01*
X126503123Y-110523201D01*
X126501499Y-110522498D01*
X126510893Y-110500790D01*
X126549939Y-110366395D01*
X126549899Y-110352294D01*
X126542630Y-110349000D01*
X123913122Y-110349000D01*
X123904962Y-110351396D01*
X123869464Y-110356500D01*
X123126000Y-110356500D01*
X123057879Y-110336498D01*
X123011386Y-110282842D01*
X123000000Y-110230500D01*
X123000000Y-109823605D01*
X123900061Y-109823605D01*
X123900101Y-109837706D01*
X123907370Y-109841000D01*
X124952885Y-109841000D01*
X124968124Y-109836525D01*
X124969329Y-109835135D01*
X124971000Y-109827452D01*
X124971000Y-109822885D01*
X125479000Y-109822885D01*
X125483475Y-109838124D01*
X125484865Y-109839329D01*
X125492548Y-109841000D01*
X126536878Y-109841000D01*
X126550409Y-109837027D01*
X126551544Y-109829129D01*
X126547692Y-109815871D01*
X128523456Y-109815871D01*
X128564107Y-109955790D01*
X128570352Y-109970221D01*
X128646911Y-110099678D01*
X128656551Y-110112104D01*
X128762896Y-110218449D01*
X128775322Y-110228089D01*
X128904779Y-110304648D01*
X128919210Y-110310893D01*
X129065065Y-110353269D01*
X129077667Y-110355570D01*
X129106084Y-110357807D01*
X129111014Y-110358000D01*
X129490385Y-110358000D01*
X129505624Y-110353525D01*
X129506829Y-110352135D01*
X129508500Y-110344452D01*
X129508500Y-109822115D01*
X129504025Y-109806876D01*
X129502635Y-109805671D01*
X129494952Y-109804000D01*
X128538122Y-109804000D01*
X128524591Y-109807973D01*
X128523456Y-109815871D01*
X126547692Y-109815871D01*
X126510893Y-109689210D01*
X126504648Y-109674779D01*
X126428089Y-109545322D01*
X126418449Y-109532896D01*
X126312104Y-109426551D01*
X126299678Y-109416911D01*
X126170221Y-109340352D01*
X126155790Y-109334107D01*
X126009935Y-109291731D01*
X125997333Y-109289430D01*
X125968916Y-109287193D01*
X125963986Y-109287000D01*
X125497115Y-109287000D01*
X125481876Y-109291475D01*
X125480671Y-109292865D01*
X125479000Y-109300548D01*
X125479000Y-109822885D01*
X124971000Y-109822885D01*
X124971000Y-109305116D01*
X124966525Y-109289877D01*
X124965135Y-109288672D01*
X124957452Y-109287001D01*
X124486017Y-109287001D01*
X124481080Y-109287195D01*
X124452664Y-109289430D01*
X124440069Y-109291730D01*
X124294210Y-109334107D01*
X124279779Y-109340352D01*
X124150322Y-109416911D01*
X124137896Y-109426551D01*
X124031551Y-109532896D01*
X124021911Y-109545322D01*
X123945352Y-109674779D01*
X123939107Y-109689210D01*
X123900061Y-109823605D01*
X123000000Y-109823605D01*
X123000000Y-103923497D01*
X123020002Y-103855376D01*
X123073658Y-103808883D01*
X123143932Y-103798779D01*
X123208512Y-103828273D01*
X123245524Y-103883621D01*
X123256588Y-103916784D01*
X123262761Y-103929962D01*
X123348063Y-104067807D01*
X123357099Y-104079208D01*
X123471829Y-104193739D01*
X123483240Y-104202751D01*
X123621243Y-104287816D01*
X123634424Y-104293963D01*
X123788710Y-104345138D01*
X123802086Y-104348005D01*
X123896438Y-104357672D01*
X123902854Y-104358000D01*
X125627885Y-104358000D01*
X125643124Y-104353525D01*
X125644329Y-104352135D01*
X125646000Y-104344452D01*
X125646000Y-102472000D01*
X125666002Y-102403879D01*
X125719658Y-102357386D01*
X125772000Y-102346000D01*
X126028000Y-102346000D01*
X126096121Y-102366002D01*
G37*
%TD.AperFunction*%
%TD*%
%TA.AperFunction,Conductor*%
%TO.N,+3V3*%
G36*
X126250000Y-82639885D02*
G01*
X126254475Y-82655124D01*
X126255865Y-82656329D01*
X126263548Y-82658000D01*
X126796592Y-82658000D01*
X126804802Y-82657462D01*
X126865241Y-82649505D01*
X126935389Y-82660444D01*
X126988488Y-82707572D01*
X126991162Y-82713521D01*
X126997865Y-82719329D01*
X127005548Y-82721000D01*
X128528000Y-82721000D01*
X128596121Y-82741002D01*
X128642614Y-82794658D01*
X128654000Y-82847000D01*
X128654000Y-84039884D01*
X128658475Y-84055123D01*
X128659865Y-84056328D01*
X128667548Y-84057999D01*
X129097095Y-84057999D01*
X129103614Y-84057662D01*
X129199206Y-84047743D01*
X129212600Y-84044851D01*
X129366784Y-83993412D01*
X129379962Y-83987239D01*
X129517807Y-83901937D01*
X129529208Y-83892901D01*
X129584827Y-83837185D01*
X129647110Y-83803106D01*
X129717930Y-83808109D01*
X129774802Y-83850606D01*
X129799671Y-83917105D01*
X129800000Y-83926203D01*
X129800000Y-84724000D01*
X129779998Y-84792121D01*
X129726342Y-84838614D01*
X129674000Y-84850000D01*
X129189800Y-84850000D01*
X129176957Y-84849344D01*
X129100400Y-84841500D01*
X128554583Y-84841500D01*
X128522665Y-84836559D01*
X128522591Y-84836909D01*
X128516570Y-84835629D01*
X128510694Y-84833765D01*
X128505398Y-84833171D01*
X128500302Y-84831613D01*
X128407743Y-84822210D01*
X128406607Y-84822089D01*
X128372992Y-84818319D01*
X128360270Y-84816892D01*
X128360266Y-84816892D01*
X128356773Y-84816500D01*
X128353246Y-84816500D01*
X128352261Y-84816445D01*
X128346581Y-84815998D01*
X128317175Y-84813011D01*
X128309663Y-84812248D01*
X128309661Y-84812248D01*
X128303538Y-84811626D01*
X128261259Y-84815623D01*
X128257891Y-84815941D01*
X128246033Y-84816500D01*
X127429360Y-84816500D01*
X127361239Y-84796498D01*
X127314746Y-84742842D01*
X127304642Y-84672568D01*
X127306900Y-84662986D01*
X127306549Y-84662911D01*
X127310858Y-84642810D01*
X127320172Y-84551903D01*
X127320429Y-84546874D01*
X127316025Y-84531876D01*
X127314635Y-84530671D01*
X127306952Y-84529000D01*
X126209500Y-84529000D01*
X126141379Y-84508998D01*
X126094886Y-84455342D01*
X126083500Y-84403000D01*
X126083500Y-84002885D01*
X126591500Y-84002885D01*
X126595975Y-84018124D01*
X126597365Y-84019329D01*
X126605048Y-84021000D01*
X127302385Y-84021000D01*
X127337859Y-84010584D01*
X127363539Y-83994080D01*
X127438706Y-83995383D01*
X127588710Y-84045138D01*
X127602086Y-84048005D01*
X127696438Y-84057672D01*
X127702854Y-84058000D01*
X128127885Y-84058000D01*
X128143124Y-84053525D01*
X128144329Y-84052135D01*
X128146000Y-84044452D01*
X128146000Y-83247115D01*
X128141525Y-83231876D01*
X128140135Y-83230671D01*
X128132452Y-83229000D01*
X127010116Y-83229000D01*
X126994877Y-83233475D01*
X126993672Y-83234865D01*
X126989122Y-83255783D01*
X126986735Y-83255264D01*
X126971999Y-83305450D01*
X126918343Y-83351943D01*
X126848069Y-83362047D01*
X126826334Y-83356922D01*
X126743689Y-83329510D01*
X126730310Y-83326642D01*
X126639403Y-83317328D01*
X126632986Y-83317000D01*
X126609615Y-83317000D01*
X126594376Y-83321475D01*
X126593171Y-83322865D01*
X126591500Y-83330548D01*
X126591500Y-84002885D01*
X126083500Y-84002885D01*
X126083500Y-83335115D01*
X126079025Y-83319876D01*
X126077635Y-83318671D01*
X126069952Y-83317000D01*
X126042062Y-83317000D01*
X126035547Y-83317337D01*
X125943443Y-83326894D01*
X125930044Y-83329788D01*
X125781393Y-83379381D01*
X125768215Y-83385555D01*
X125680494Y-83439838D01*
X125612042Y-83458676D01*
X125544273Y-83437515D01*
X125498701Y-83383074D01*
X125488195Y-83333675D01*
X125483923Y-82784981D01*
X125503394Y-82716707D01*
X125556686Y-82669797D01*
X125609919Y-82658000D01*
X125931885Y-82658000D01*
X125947124Y-82653525D01*
X125948329Y-82652135D01*
X125950000Y-82644452D01*
X125950000Y-82216095D01*
X126250000Y-82214841D01*
X126250000Y-82639885D01*
G37*
%TD.AperFunction*%
%TD*%
%TA.AperFunction,Conductor*%
%TO.N,MOUT2*%
G36*
X167942121Y-81320002D02*
G01*
X167988614Y-81373658D01*
X168000000Y-81426000D01*
X168000000Y-84874000D01*
X167979998Y-84942121D01*
X167926342Y-84988614D01*
X167874000Y-85000000D01*
X156126000Y-85000000D01*
X156057879Y-84979998D01*
X156011386Y-84926342D01*
X156000000Y-84874000D01*
X156000000Y-84569093D01*
X156020002Y-84500972D01*
X156073658Y-84454479D01*
X156143932Y-84444375D01*
X156155150Y-84446511D01*
X156157650Y-84447106D01*
X156208514Y-84452631D01*
X156215328Y-84453000D01*
X156737885Y-84453000D01*
X156753124Y-84448525D01*
X156754329Y-84447135D01*
X156756000Y-84439452D01*
X156756000Y-84434884D01*
X157264000Y-84434884D01*
X157268475Y-84450123D01*
X157269865Y-84451328D01*
X157277548Y-84452999D01*
X157804669Y-84452999D01*
X157811490Y-84452629D01*
X157862352Y-84447105D01*
X157877604Y-84443479D01*
X157998054Y-84398324D01*
X158013649Y-84389786D01*
X158115724Y-84313285D01*
X158128285Y-84300724D01*
X158204786Y-84198649D01*
X158213324Y-84183054D01*
X158258478Y-84062606D01*
X158262105Y-84047351D01*
X158267631Y-83996486D01*
X158268000Y-83989672D01*
X158268000Y-83467194D01*
X162546135Y-83467194D01*
X162557006Y-83538236D01*
X162559395Y-83548263D01*
X162632709Y-83772570D01*
X162636706Y-83782079D01*
X162745669Y-83991395D01*
X162751163Y-84000120D01*
X162892854Y-84188835D01*
X162899697Y-84196542D01*
X163070310Y-84359584D01*
X163078316Y-84366067D01*
X163273274Y-84499057D01*
X163282226Y-84504143D01*
X163496285Y-84603506D01*
X163505945Y-84607060D01*
X163733369Y-84670130D01*
X163743473Y-84672057D01*
X163936102Y-84692644D01*
X163942794Y-84693000D01*
X164737885Y-84693000D01*
X164753124Y-84688525D01*
X164754329Y-84687135D01*
X164756000Y-84679452D01*
X164756000Y-84674885D01*
X165264000Y-84674885D01*
X165268475Y-84690124D01*
X165269865Y-84691329D01*
X165277548Y-84693000D01*
X166059857Y-84693000D01*
X166065030Y-84692788D01*
X166240350Y-84678374D01*
X166250512Y-84676691D01*
X166479396Y-84619200D01*
X166489151Y-84615879D01*
X166705557Y-84521782D01*
X166714655Y-84516904D01*
X166912787Y-84388727D01*
X166920956Y-84382437D01*
X167095501Y-84223613D01*
X167102526Y-84216080D01*
X167248787Y-84030880D01*
X167254492Y-84022293D01*
X167368536Y-83815703D01*
X167372766Y-83806291D01*
X167451539Y-83583844D01*
X167454173Y-83573873D01*
X167473239Y-83466837D01*
X167471779Y-83453540D01*
X167457222Y-83449000D01*
X165282115Y-83449000D01*
X165266876Y-83453475D01*
X165265671Y-83454865D01*
X165264000Y-83462548D01*
X165264000Y-84674885D01*
X164756000Y-84674885D01*
X164756000Y-83467115D01*
X164751525Y-83451876D01*
X164750135Y-83450671D01*
X164742452Y-83449000D01*
X162561466Y-83449000D01*
X162548122Y-83452918D01*
X162546135Y-83467194D01*
X158268000Y-83467194D01*
X158268000Y-83467115D01*
X158263525Y-83451876D01*
X158262135Y-83450671D01*
X158254452Y-83449000D01*
X157282115Y-83449000D01*
X157266876Y-83453475D01*
X157265671Y-83454865D01*
X157264000Y-83462548D01*
X157264000Y-84434884D01*
X156756000Y-84434884D01*
X156756000Y-82922885D01*
X157264000Y-82922885D01*
X157268475Y-82938124D01*
X157269865Y-82939329D01*
X157277548Y-82941000D01*
X158249884Y-82941000D01*
X158265123Y-82936525D01*
X158266328Y-82935135D01*
X158267999Y-82927452D01*
X158267999Y-82923163D01*
X162546761Y-82923163D01*
X162548221Y-82936460D01*
X162562778Y-82941000D01*
X164737885Y-82941000D01*
X164753124Y-82936525D01*
X164754329Y-82935135D01*
X164756000Y-82927452D01*
X164756000Y-82922885D01*
X165264000Y-82922885D01*
X165268475Y-82938124D01*
X165269865Y-82939329D01*
X165277548Y-82941000D01*
X167458534Y-82941000D01*
X167471878Y-82937082D01*
X167473865Y-82922806D01*
X167462994Y-82851764D01*
X167460605Y-82841737D01*
X167387291Y-82617430D01*
X167383294Y-82607921D01*
X167274331Y-82398605D01*
X167268837Y-82389880D01*
X167127146Y-82201165D01*
X167120303Y-82193458D01*
X166949690Y-82030416D01*
X166941684Y-82023933D01*
X166746726Y-81890943D01*
X166737774Y-81885857D01*
X166523715Y-81786494D01*
X166514055Y-81782940D01*
X166286631Y-81719870D01*
X166276527Y-81717943D01*
X166083898Y-81697356D01*
X166077206Y-81697000D01*
X165282115Y-81697000D01*
X165266876Y-81701475D01*
X165265671Y-81702865D01*
X165264000Y-81710548D01*
X165264000Y-82922885D01*
X164756000Y-82922885D01*
X164756000Y-81715115D01*
X164751525Y-81699876D01*
X164750135Y-81698671D01*
X164742452Y-81697000D01*
X163960143Y-81697000D01*
X163954970Y-81697212D01*
X163779650Y-81711626D01*
X163769488Y-81713309D01*
X163540604Y-81770800D01*
X163530849Y-81774121D01*
X163314443Y-81868218D01*
X163305345Y-81873096D01*
X163107213Y-82001273D01*
X163099044Y-82007563D01*
X162924499Y-82166387D01*
X162917474Y-82173920D01*
X162771213Y-82359120D01*
X162765508Y-82367707D01*
X162651464Y-82574297D01*
X162647234Y-82583709D01*
X162568461Y-82806156D01*
X162565827Y-82816127D01*
X162546761Y-82923163D01*
X158267999Y-82923163D01*
X158267999Y-82400331D01*
X158267629Y-82393510D01*
X158262105Y-82342648D01*
X158258479Y-82327396D01*
X158213324Y-82206946D01*
X158204786Y-82191351D01*
X158128285Y-82089276D01*
X158115724Y-82076715D01*
X158013649Y-82000214D01*
X157998054Y-81991676D01*
X157877606Y-81946522D01*
X157862351Y-81942895D01*
X157811486Y-81937369D01*
X157804672Y-81937000D01*
X157282115Y-81937000D01*
X157266876Y-81941475D01*
X157265671Y-81942865D01*
X157264000Y-81950548D01*
X157264000Y-82922885D01*
X156756000Y-82922885D01*
X156756000Y-81955116D01*
X156751525Y-81939877D01*
X156750135Y-81938672D01*
X156742452Y-81937001D01*
X156215331Y-81937001D01*
X156208510Y-81937371D01*
X156157651Y-81942894D01*
X156155142Y-81943491D01*
X156153128Y-81943386D01*
X156149793Y-81943748D01*
X156149734Y-81943208D01*
X156084242Y-81939786D01*
X156026600Y-81898338D01*
X156000517Y-81832307D01*
X156000000Y-81820907D01*
X156000000Y-81426000D01*
X156020002Y-81357879D01*
X156073658Y-81311386D01*
X156126000Y-81300000D01*
X167874000Y-81300000D01*
X167942121Y-81320002D01*
G37*
%TD.AperFunction*%
%TD*%
%TA.AperFunction,Conductor*%
%TO.N,CSENS3*%
G36*
X140598068Y-99941002D02*
G01*
X140601957Y-99943914D01*
X140611548Y-99946000D01*
X141828000Y-99946000D01*
X141896121Y-99966002D01*
X141942614Y-100019658D01*
X141954000Y-100072000D01*
X141954000Y-101252384D01*
X141958475Y-101267623D01*
X141959865Y-101268828D01*
X141967548Y-101270499D01*
X142372095Y-101270499D01*
X142378614Y-101270162D01*
X142474206Y-101260243D01*
X142487603Y-101257350D01*
X142634125Y-101208468D01*
X142705074Y-101205884D01*
X142766158Y-101242068D01*
X142797982Y-101305533D01*
X142800000Y-101327992D01*
X142800000Y-101511500D01*
X142779998Y-101579621D01*
X142726342Y-101626114D01*
X142674000Y-101637500D01*
X139326000Y-101637500D01*
X139257879Y-101617498D01*
X139211386Y-101563842D01*
X139200000Y-101511500D01*
X139200000Y-101424313D01*
X139220002Y-101356192D01*
X139273658Y-101309699D01*
X139343932Y-101299595D01*
X139361153Y-101303316D01*
X139478604Y-101337439D01*
X139492706Y-101337399D01*
X139496000Y-101330130D01*
X139496000Y-101324378D01*
X140004000Y-101324378D01*
X140007973Y-101337909D01*
X140015871Y-101339044D01*
X140155790Y-101298393D01*
X140170221Y-101292148D01*
X140299678Y-101215589D01*
X140312104Y-101205949D01*
X140415223Y-101102830D01*
X140477535Y-101068804D01*
X140548350Y-101073869D01*
X140593336Y-101102752D01*
X140596829Y-101106239D01*
X140608240Y-101115251D01*
X140746243Y-101200316D01*
X140759424Y-101206463D01*
X140913710Y-101257638D01*
X140927086Y-101260505D01*
X141021438Y-101270172D01*
X141027854Y-101270500D01*
X141427885Y-101270500D01*
X141443124Y-101266025D01*
X141444329Y-101264635D01*
X141446000Y-101256952D01*
X141446000Y-100472115D01*
X141441525Y-100456876D01*
X141440135Y-100455671D01*
X141432452Y-100454000D01*
X140345053Y-100454000D01*
X140276932Y-100433998D01*
X140273043Y-100431086D01*
X140263452Y-100429000D01*
X140022115Y-100429000D01*
X140006876Y-100433475D01*
X140005671Y-100434865D01*
X140004000Y-100442548D01*
X140004000Y-101324378D01*
X139496000Y-101324378D01*
X139496000Y-101092342D01*
X139513547Y-101028203D01*
X139555108Y-100957927D01*
X139559145Y-100951101D01*
X139605562Y-100791331D01*
X139608500Y-100754002D01*
X139608500Y-100047000D01*
X139628502Y-99978879D01*
X139682158Y-99932386D01*
X139734500Y-99921000D01*
X140529947Y-99921000D01*
X140598068Y-99941002D01*
G37*
%TD.AperFunction*%
%TD*%
%TA.AperFunction,Conductor*%
%TO.N,GND*%
G36*
X154842121Y-106020002D02*
G01*
X154888614Y-106073658D01*
X154900000Y-106126000D01*
X154900000Y-109874000D01*
X154879998Y-109942121D01*
X154826342Y-109988614D01*
X154774000Y-110000000D01*
X152226000Y-110000000D01*
X152157879Y-109979998D01*
X152111386Y-109926342D01*
X152100000Y-109874000D01*
X152100000Y-109398796D01*
X152120002Y-109330675D01*
X152173658Y-109284182D01*
X152243932Y-109274078D01*
X152265667Y-109279203D01*
X152313707Y-109295137D01*
X152327086Y-109298005D01*
X152421438Y-109307672D01*
X152427854Y-109308000D01*
X152527885Y-109308000D01*
X152543124Y-109303525D01*
X152544329Y-109302135D01*
X152546000Y-109294452D01*
X152546000Y-109289884D01*
X153054000Y-109289884D01*
X153058475Y-109305123D01*
X153059865Y-109306328D01*
X153067548Y-109307999D01*
X153172095Y-109307999D01*
X153178614Y-109307662D01*
X153274206Y-109297743D01*
X153287600Y-109294851D01*
X153441784Y-109243412D01*
X153454962Y-109237239D01*
X153592807Y-109151937D01*
X153604208Y-109142901D01*
X153718739Y-109028171D01*
X153727751Y-109016760D01*
X153812816Y-108878757D01*
X153818963Y-108865576D01*
X153870138Y-108711290D01*
X153873005Y-108697914D01*
X153882672Y-108603562D01*
X153883000Y-108597146D01*
X153883000Y-108172115D01*
X153878525Y-108156876D01*
X153877135Y-108155671D01*
X153869452Y-108154000D01*
X153072115Y-108154000D01*
X153056876Y-108158475D01*
X153055671Y-108159865D01*
X153054000Y-108167548D01*
X153054000Y-109289884D01*
X152546000Y-109289884D01*
X152546000Y-107627885D01*
X153054000Y-107627885D01*
X153058475Y-107643124D01*
X153059865Y-107644329D01*
X153067548Y-107646000D01*
X153864884Y-107646000D01*
X153880123Y-107641525D01*
X153881328Y-107640135D01*
X153882999Y-107632452D01*
X153882999Y-107202905D01*
X153882662Y-107196386D01*
X153872743Y-107100794D01*
X153869851Y-107087400D01*
X153818412Y-106933216D01*
X153812239Y-106920038D01*
X153726937Y-106782193D01*
X153717901Y-106770792D01*
X153603171Y-106656261D01*
X153591760Y-106647249D01*
X153453757Y-106562184D01*
X153440576Y-106556037D01*
X153286290Y-106504862D01*
X153272914Y-106501995D01*
X153178562Y-106492328D01*
X153172145Y-106492000D01*
X153072115Y-106492000D01*
X153056876Y-106496475D01*
X153055671Y-106497865D01*
X153054000Y-106505548D01*
X153054000Y-107627885D01*
X152546000Y-107627885D01*
X152546000Y-106510116D01*
X152541525Y-106494877D01*
X152540135Y-106493672D01*
X152532452Y-106492001D01*
X152427905Y-106492001D01*
X152421386Y-106492338D01*
X152325794Y-106502257D01*
X152312397Y-106505150D01*
X152265875Y-106520670D01*
X152194926Y-106523254D01*
X152133842Y-106487070D01*
X152102018Y-106423605D01*
X152100000Y-106401146D01*
X152100000Y-106126000D01*
X152120002Y-106057879D01*
X152173658Y-106011386D01*
X152226000Y-106000000D01*
X154774000Y-106000000D01*
X154842121Y-106020002D01*
G37*
%TD.AperFunction*%
%TD*%
%TA.AperFunction,Conductor*%
%TO.N,CSENS2*%
G36*
X140598068Y-93003502D02*
G01*
X140601957Y-93006414D01*
X140611548Y-93008500D01*
X141828000Y-93008500D01*
X141896121Y-93028502D01*
X141942614Y-93082158D01*
X141954000Y-93134500D01*
X141954000Y-94314884D01*
X141958475Y-94330123D01*
X141959865Y-94331328D01*
X141967548Y-94332999D01*
X142372095Y-94332999D01*
X142378614Y-94332662D01*
X142474206Y-94322743D01*
X142487603Y-94319850D01*
X142634125Y-94270968D01*
X142705074Y-94268384D01*
X142766158Y-94304568D01*
X142797982Y-94368033D01*
X142800000Y-94390492D01*
X142800000Y-94574000D01*
X142779998Y-94642121D01*
X142726342Y-94688614D01*
X142674000Y-94700000D01*
X139326000Y-94700000D01*
X139257879Y-94679998D01*
X139211386Y-94626342D01*
X139200000Y-94574000D01*
X139200000Y-94486813D01*
X139220002Y-94418692D01*
X139273658Y-94372199D01*
X139343932Y-94362095D01*
X139361153Y-94365816D01*
X139478604Y-94399939D01*
X139492706Y-94399899D01*
X139496000Y-94392630D01*
X139496000Y-94386878D01*
X140004000Y-94386878D01*
X140007973Y-94400409D01*
X140015871Y-94401544D01*
X140155790Y-94360893D01*
X140170221Y-94354648D01*
X140299678Y-94278089D01*
X140312104Y-94268449D01*
X140415223Y-94165330D01*
X140477535Y-94131304D01*
X140548350Y-94136369D01*
X140593336Y-94165252D01*
X140596829Y-94168739D01*
X140608240Y-94177751D01*
X140746243Y-94262816D01*
X140759424Y-94268963D01*
X140913710Y-94320138D01*
X140927086Y-94323005D01*
X141021438Y-94332672D01*
X141027854Y-94333000D01*
X141427885Y-94333000D01*
X141443124Y-94328525D01*
X141444329Y-94327135D01*
X141446000Y-94319452D01*
X141446000Y-93534615D01*
X141441525Y-93519376D01*
X141440135Y-93518171D01*
X141432452Y-93516500D01*
X140345053Y-93516500D01*
X140276932Y-93496498D01*
X140273043Y-93493586D01*
X140263452Y-93491500D01*
X140022115Y-93491500D01*
X140006876Y-93495975D01*
X140005671Y-93497365D01*
X140004000Y-93505048D01*
X140004000Y-94386878D01*
X139496000Y-94386878D01*
X139496000Y-94154842D01*
X139513547Y-94090703D01*
X139555108Y-94020427D01*
X139559145Y-94013601D01*
X139605562Y-93853831D01*
X139608500Y-93816502D01*
X139608500Y-93109500D01*
X139628502Y-93041379D01*
X139682158Y-92994886D01*
X139734500Y-92983500D01*
X140529947Y-92983500D01*
X140598068Y-93003502D01*
G37*
%TD.AperFunction*%
%TD*%
%TA.AperFunction,Conductor*%
%TO.N,GND*%
G36*
X154242121Y-114020002D02*
G01*
X154288614Y-114073658D01*
X154300000Y-114126000D01*
X154300000Y-118074000D01*
X154279998Y-118142121D01*
X154226342Y-118188614D01*
X154174000Y-118200000D01*
X149526000Y-118200000D01*
X149457879Y-118179998D01*
X149411386Y-118126342D01*
X149400000Y-118074000D01*
X149400000Y-117496302D01*
X149420002Y-117428181D01*
X149473658Y-117381688D01*
X149543932Y-117371584D01*
X149592116Y-117389042D01*
X149671243Y-117437816D01*
X149684424Y-117443963D01*
X149838710Y-117495138D01*
X149852086Y-117498005D01*
X149946438Y-117507672D01*
X149952854Y-117508000D01*
X151227885Y-117508000D01*
X151243124Y-117503525D01*
X151244329Y-117502135D01*
X151246000Y-117494452D01*
X151246000Y-117489884D01*
X151754000Y-117489884D01*
X151758475Y-117505123D01*
X151759865Y-117506328D01*
X151767548Y-117507999D01*
X153047095Y-117507999D01*
X153053614Y-117507662D01*
X153149206Y-117497743D01*
X153162600Y-117494851D01*
X153316784Y-117443412D01*
X153329962Y-117437239D01*
X153467807Y-117351937D01*
X153479208Y-117342901D01*
X153593739Y-117228171D01*
X153602751Y-117216760D01*
X153687816Y-117078757D01*
X153693963Y-117065576D01*
X153745138Y-116911290D01*
X153748005Y-116897914D01*
X153757672Y-116803562D01*
X153758000Y-116797146D01*
X153758000Y-116472115D01*
X153753525Y-116456876D01*
X153752135Y-116455671D01*
X153744452Y-116454000D01*
X151772115Y-116454000D01*
X151756876Y-116458475D01*
X151755671Y-116459865D01*
X151754000Y-116467548D01*
X151754000Y-117489884D01*
X151246000Y-117489884D01*
X151246000Y-115927885D01*
X151754000Y-115927885D01*
X151758475Y-115943124D01*
X151759865Y-115944329D01*
X151767548Y-115946000D01*
X153739884Y-115946000D01*
X153755123Y-115941525D01*
X153756328Y-115940135D01*
X153757999Y-115932452D01*
X153757999Y-115602905D01*
X153757662Y-115596386D01*
X153747743Y-115500794D01*
X153744851Y-115487400D01*
X153693412Y-115333216D01*
X153687239Y-115320038D01*
X153601937Y-115182193D01*
X153592901Y-115170792D01*
X153478171Y-115056261D01*
X153466760Y-115047249D01*
X153328757Y-114962184D01*
X153315576Y-114956037D01*
X153161290Y-114904862D01*
X153147914Y-114901995D01*
X153053562Y-114892328D01*
X153047145Y-114892000D01*
X151772115Y-114892000D01*
X151756876Y-114896475D01*
X151755671Y-114897865D01*
X151754000Y-114905548D01*
X151754000Y-115927885D01*
X151246000Y-115927885D01*
X151246000Y-114910116D01*
X151241525Y-114894877D01*
X151240135Y-114893672D01*
X151232452Y-114892001D01*
X149952905Y-114892001D01*
X149946386Y-114892338D01*
X149850794Y-114902257D01*
X149837400Y-114905149D01*
X149683216Y-114956588D01*
X149670037Y-114962762D01*
X149592303Y-115010865D01*
X149523851Y-115029703D01*
X149456081Y-115008542D01*
X149410510Y-114954101D01*
X149400000Y-114903721D01*
X149400000Y-114126000D01*
X149420002Y-114057879D01*
X149473658Y-114011386D01*
X149526000Y-114000000D01*
X154174000Y-114000000D01*
X154242121Y-114020002D01*
G37*
%TD.AperFunction*%
%TD*%
%TA.AperFunction,Conductor*%
%TO.N,MOUT3*%
G36*
X167942121Y-76420002D02*
G01*
X167988614Y-76473658D01*
X168000000Y-76526000D01*
X168000000Y-79874000D01*
X167979998Y-79942121D01*
X167926342Y-79988614D01*
X167874000Y-80000000D01*
X156259500Y-80000000D01*
X156191379Y-79979998D01*
X156144886Y-79926342D01*
X156133500Y-79874000D01*
X156133500Y-79679000D01*
X156153502Y-79610879D01*
X156207158Y-79564386D01*
X156259500Y-79553000D01*
X156737885Y-79553000D01*
X156753124Y-79548525D01*
X156754329Y-79547135D01*
X156756000Y-79539452D01*
X156756000Y-79534884D01*
X157264000Y-79534884D01*
X157268475Y-79550123D01*
X157269865Y-79551328D01*
X157277548Y-79552999D01*
X157804669Y-79552999D01*
X157811490Y-79552629D01*
X157862352Y-79547105D01*
X157877604Y-79543479D01*
X157998054Y-79498324D01*
X158013649Y-79489786D01*
X158115724Y-79413285D01*
X158128285Y-79400724D01*
X158204786Y-79298649D01*
X158213324Y-79283054D01*
X158258478Y-79162606D01*
X158262105Y-79147351D01*
X158267631Y-79096486D01*
X158268000Y-79089672D01*
X158268000Y-78567115D01*
X158263525Y-78551876D01*
X158262135Y-78550671D01*
X158254452Y-78549000D01*
X157282115Y-78549000D01*
X157266876Y-78553475D01*
X157265671Y-78554865D01*
X157264000Y-78562548D01*
X157264000Y-79534884D01*
X156756000Y-79534884D01*
X156756000Y-78467194D01*
X162546135Y-78467194D01*
X162557006Y-78538236D01*
X162559395Y-78548263D01*
X162632709Y-78772570D01*
X162636706Y-78782079D01*
X162745669Y-78991395D01*
X162751163Y-79000120D01*
X162892854Y-79188835D01*
X162899697Y-79196542D01*
X163070310Y-79359584D01*
X163078316Y-79366067D01*
X163273274Y-79499057D01*
X163282226Y-79504143D01*
X163496285Y-79603506D01*
X163505945Y-79607060D01*
X163733369Y-79670130D01*
X163743473Y-79672057D01*
X163936102Y-79692644D01*
X163942794Y-79693000D01*
X164737885Y-79693000D01*
X164753124Y-79688525D01*
X164754329Y-79687135D01*
X164756000Y-79679452D01*
X164756000Y-79674885D01*
X165264000Y-79674885D01*
X165268475Y-79690124D01*
X165269865Y-79691329D01*
X165277548Y-79693000D01*
X166059857Y-79693000D01*
X166065030Y-79692788D01*
X166240350Y-79678374D01*
X166250512Y-79676691D01*
X166479396Y-79619200D01*
X166489151Y-79615879D01*
X166705557Y-79521782D01*
X166714655Y-79516904D01*
X166912787Y-79388727D01*
X166920956Y-79382437D01*
X167095501Y-79223613D01*
X167102526Y-79216080D01*
X167248787Y-79030880D01*
X167254492Y-79022293D01*
X167368536Y-78815703D01*
X167372766Y-78806291D01*
X167451539Y-78583844D01*
X167454173Y-78573873D01*
X167473239Y-78466837D01*
X167471779Y-78453540D01*
X167457222Y-78449000D01*
X165282115Y-78449000D01*
X165266876Y-78453475D01*
X165265671Y-78454865D01*
X165264000Y-78462548D01*
X165264000Y-79674885D01*
X164756000Y-79674885D01*
X164756000Y-78467115D01*
X164751525Y-78451876D01*
X164750135Y-78450671D01*
X164742452Y-78449000D01*
X162561466Y-78449000D01*
X162548122Y-78452918D01*
X162546135Y-78467194D01*
X156756000Y-78467194D01*
X156756000Y-78022885D01*
X157264000Y-78022885D01*
X157268475Y-78038124D01*
X157269865Y-78039329D01*
X157277548Y-78041000D01*
X158249884Y-78041000D01*
X158265123Y-78036525D01*
X158266328Y-78035135D01*
X158267999Y-78027452D01*
X158267999Y-77923163D01*
X162546761Y-77923163D01*
X162548221Y-77936460D01*
X162562778Y-77941000D01*
X164737885Y-77941000D01*
X164753124Y-77936525D01*
X164754329Y-77935135D01*
X164756000Y-77927452D01*
X164756000Y-77922885D01*
X165264000Y-77922885D01*
X165268475Y-77938124D01*
X165269865Y-77939329D01*
X165277548Y-77941000D01*
X167458534Y-77941000D01*
X167471878Y-77937082D01*
X167473865Y-77922806D01*
X167462994Y-77851764D01*
X167460605Y-77841737D01*
X167387291Y-77617430D01*
X167383294Y-77607921D01*
X167274331Y-77398605D01*
X167268837Y-77389880D01*
X167127146Y-77201165D01*
X167120303Y-77193458D01*
X166949690Y-77030416D01*
X166941684Y-77023933D01*
X166746726Y-76890943D01*
X166737774Y-76885857D01*
X166523715Y-76786494D01*
X166514055Y-76782940D01*
X166286631Y-76719870D01*
X166276527Y-76717943D01*
X166083898Y-76697356D01*
X166077206Y-76697000D01*
X165282115Y-76697000D01*
X165266876Y-76701475D01*
X165265671Y-76702865D01*
X165264000Y-76710548D01*
X165264000Y-77922885D01*
X164756000Y-77922885D01*
X164756000Y-76715115D01*
X164751525Y-76699876D01*
X164750135Y-76698671D01*
X164742452Y-76697000D01*
X163960143Y-76697000D01*
X163954970Y-76697212D01*
X163779650Y-76711626D01*
X163769488Y-76713309D01*
X163540604Y-76770800D01*
X163530849Y-76774121D01*
X163314443Y-76868218D01*
X163305345Y-76873096D01*
X163107213Y-77001273D01*
X163099044Y-77007563D01*
X162924499Y-77166387D01*
X162917474Y-77173920D01*
X162771213Y-77359120D01*
X162765508Y-77367707D01*
X162651464Y-77574297D01*
X162647234Y-77583709D01*
X162568461Y-77806156D01*
X162565827Y-77816127D01*
X162546761Y-77923163D01*
X158267999Y-77923163D01*
X158267999Y-77500331D01*
X158267629Y-77493510D01*
X158262105Y-77442648D01*
X158258479Y-77427396D01*
X158213324Y-77306946D01*
X158204786Y-77291351D01*
X158128285Y-77189276D01*
X158115724Y-77176715D01*
X158013649Y-77100214D01*
X157998054Y-77091676D01*
X157877606Y-77046522D01*
X157862351Y-77042895D01*
X157811486Y-77037369D01*
X157804672Y-77037000D01*
X157282115Y-77037000D01*
X157266876Y-77041475D01*
X157265671Y-77042865D01*
X157264000Y-77050548D01*
X157264000Y-78022885D01*
X156756000Y-78022885D01*
X156756000Y-77055116D01*
X156751525Y-77039877D01*
X156750135Y-77038672D01*
X156742452Y-77037001D01*
X156259500Y-77037001D01*
X156191379Y-77016999D01*
X156144886Y-76963343D01*
X156133500Y-76911001D01*
X156133500Y-76526000D01*
X156153502Y-76457879D01*
X156207158Y-76411386D01*
X156259500Y-76400000D01*
X167874000Y-76400000D01*
X167942121Y-76420002D01*
G37*
%TD.AperFunction*%
%TD*%
%TA.AperFunction,Conductor*%
%TO.N,CSENS1*%
G36*
X143942121Y-86020002D02*
G01*
X143988614Y-86073658D01*
X144000000Y-86126000D01*
X144000000Y-88174000D01*
X143979998Y-88242121D01*
X143926342Y-88288614D01*
X143874000Y-88300000D01*
X142713408Y-88300000D01*
X142645287Y-88279998D01*
X142598794Y-88226342D01*
X142588690Y-88156068D01*
X142618184Y-88091488D01*
X142649700Y-88067658D01*
X142648732Y-88066094D01*
X142792807Y-87976937D01*
X142804208Y-87967901D01*
X142918739Y-87853171D01*
X142927751Y-87841760D01*
X143012816Y-87703757D01*
X143018963Y-87690576D01*
X143070138Y-87536290D01*
X143073005Y-87522914D01*
X143082672Y-87428562D01*
X143083000Y-87422146D01*
X143083000Y-87334615D01*
X143078525Y-87319376D01*
X143077135Y-87318171D01*
X143069452Y-87316500D01*
X140345053Y-87316500D01*
X140276932Y-87296498D01*
X140273043Y-87293586D01*
X140263452Y-87291500D01*
X139634500Y-87291500D01*
X139566379Y-87271498D01*
X139519886Y-87217842D01*
X139508500Y-87165500D01*
X139508500Y-86909500D01*
X139528502Y-86841379D01*
X139582158Y-86794886D01*
X139634500Y-86783500D01*
X140429947Y-86783500D01*
X140498068Y-86803502D01*
X140501957Y-86806414D01*
X140511548Y-86808500D01*
X143064884Y-86808500D01*
X143080123Y-86804025D01*
X143081328Y-86802635D01*
X143082999Y-86794952D01*
X143082999Y-86702905D01*
X143082662Y-86696386D01*
X143072743Y-86600794D01*
X143069851Y-86587400D01*
X143018412Y-86433216D01*
X143012239Y-86420038D01*
X142926937Y-86282193D01*
X142917901Y-86270792D01*
X142862185Y-86215173D01*
X142828106Y-86152890D01*
X142833109Y-86082070D01*
X142875606Y-86025198D01*
X142942105Y-86000329D01*
X142951203Y-86000000D01*
X143874000Y-86000000D01*
X143942121Y-86020002D01*
G37*
%TD.AperFunction*%
%TD*%
%TA.AperFunction,Conductor*%
%TO.N,V3P3OUT*%
G36*
X140190415Y-70428502D02*
G01*
X140236908Y-70482158D01*
X140243190Y-70499003D01*
X140252474Y-70530624D01*
X140253865Y-70531829D01*
X140261548Y-70533500D01*
X141458885Y-70533500D01*
X141484073Y-70526104D01*
X141519571Y-70521000D01*
X142628000Y-70521000D01*
X142696121Y-70541002D01*
X142742614Y-70594658D01*
X142754000Y-70647000D01*
X142754000Y-70838569D01*
X142733998Y-70906690D01*
X142680342Y-70953183D01*
X142610068Y-70963287D01*
X142586988Y-70957149D01*
X142584580Y-70955825D01*
X142564957Y-70950787D01*
X142546254Y-70944383D01*
X142534940Y-70939487D01*
X142534939Y-70939487D01*
X142527665Y-70936339D01*
X142519842Y-70935100D01*
X142519832Y-70935097D01*
X142483996Y-70929421D01*
X142472376Y-70927015D01*
X142437231Y-70917992D01*
X142437230Y-70917992D01*
X142429550Y-70916020D01*
X142409296Y-70916020D01*
X142389585Y-70914469D01*
X142377406Y-70912540D01*
X142369577Y-70911300D01*
X142361685Y-70912046D01*
X142325559Y-70915461D01*
X142313701Y-70916020D01*
X136872000Y-70916020D01*
X136803879Y-70896018D01*
X136757386Y-70842362D01*
X136746000Y-70790020D01*
X136746000Y-70534500D01*
X136766002Y-70466379D01*
X136819658Y-70419886D01*
X136872000Y-70408500D01*
X140122294Y-70408500D01*
X140190415Y-70428502D01*
G37*
%TD.AperFunction*%
%TD*%
%TA.AperFunction,Conductor*%
%TO.N,GND*%
G36*
X120642121Y-100320002D02*
G01*
X120688614Y-100373658D01*
X120700000Y-100426000D01*
X120700000Y-104674000D01*
X120679998Y-104742121D01*
X120626342Y-104788614D01*
X120574000Y-104800000D01*
X114426000Y-104800000D01*
X114357879Y-104779998D01*
X114311386Y-104726342D01*
X114300000Y-104674000D01*
X114300000Y-103647095D01*
X114792001Y-103647095D01*
X114792338Y-103653614D01*
X114802257Y-103749206D01*
X114805149Y-103762600D01*
X114856588Y-103916784D01*
X114862761Y-103929962D01*
X114948063Y-104067807D01*
X114957099Y-104079208D01*
X115071829Y-104193739D01*
X115083240Y-104202751D01*
X115221243Y-104287816D01*
X115234424Y-104293963D01*
X115388710Y-104345138D01*
X115402086Y-104348005D01*
X115496438Y-104357672D01*
X115502854Y-104358000D01*
X117227885Y-104358000D01*
X117243124Y-104353525D01*
X117244329Y-104352135D01*
X117246000Y-104344452D01*
X117246000Y-104339884D01*
X117754000Y-104339884D01*
X117758475Y-104355123D01*
X117759865Y-104356328D01*
X117767548Y-104357999D01*
X119497095Y-104357999D01*
X119503614Y-104357662D01*
X119599206Y-104347743D01*
X119612600Y-104344851D01*
X119766784Y-104293412D01*
X119779962Y-104287239D01*
X119917807Y-104201937D01*
X119929208Y-104192901D01*
X120043739Y-104078171D01*
X120052751Y-104066760D01*
X120137816Y-103928757D01*
X120143963Y-103915576D01*
X120195138Y-103761290D01*
X120198005Y-103747914D01*
X120207672Y-103653562D01*
X120208000Y-103647146D01*
X120208000Y-102872115D01*
X120203525Y-102856876D01*
X120202135Y-102855671D01*
X120194452Y-102854000D01*
X117772115Y-102854000D01*
X117756876Y-102858475D01*
X117755671Y-102859865D01*
X117754000Y-102867548D01*
X117754000Y-104339884D01*
X117246000Y-104339884D01*
X117246000Y-102872115D01*
X117241525Y-102856876D01*
X117240135Y-102855671D01*
X117232452Y-102854000D01*
X114810116Y-102854000D01*
X114794877Y-102858475D01*
X114793672Y-102859865D01*
X114792001Y-102867548D01*
X114792001Y-103647095D01*
X114300000Y-103647095D01*
X114300000Y-102327885D01*
X114792000Y-102327885D01*
X114796475Y-102343124D01*
X114797865Y-102344329D01*
X114805548Y-102346000D01*
X117227885Y-102346000D01*
X117243124Y-102341525D01*
X117244329Y-102340135D01*
X117246000Y-102332452D01*
X117246000Y-102327885D01*
X117754000Y-102327885D01*
X117758475Y-102343124D01*
X117759865Y-102344329D01*
X117767548Y-102346000D01*
X120189884Y-102346000D01*
X120205123Y-102341525D01*
X120206328Y-102340135D01*
X120207999Y-102332452D01*
X120207999Y-101552905D01*
X120207662Y-101546386D01*
X120197743Y-101450794D01*
X120194851Y-101437400D01*
X120143412Y-101283216D01*
X120137239Y-101270038D01*
X120051937Y-101132193D01*
X120042901Y-101120792D01*
X119928171Y-101006261D01*
X119916760Y-100997249D01*
X119778757Y-100912184D01*
X119765576Y-100906037D01*
X119611290Y-100854862D01*
X119597914Y-100851995D01*
X119503562Y-100842328D01*
X119497145Y-100842000D01*
X117772115Y-100842000D01*
X117756876Y-100846475D01*
X117755671Y-100847865D01*
X117754000Y-100855548D01*
X117754000Y-102327885D01*
X117246000Y-102327885D01*
X117246000Y-100860116D01*
X117241525Y-100844877D01*
X117240135Y-100843672D01*
X117232452Y-100842001D01*
X115502905Y-100842001D01*
X115496386Y-100842338D01*
X115400794Y-100852257D01*
X115387400Y-100855149D01*
X115233216Y-100906588D01*
X115220038Y-100912761D01*
X115082193Y-100998063D01*
X115070792Y-101007099D01*
X114956261Y-101121829D01*
X114947249Y-101133240D01*
X114862184Y-101271243D01*
X114856037Y-101284424D01*
X114804862Y-101438710D01*
X114801995Y-101452086D01*
X114792328Y-101546438D01*
X114792000Y-101552855D01*
X114792000Y-102327885D01*
X114300000Y-102327885D01*
X114300000Y-100426000D01*
X114320002Y-100357879D01*
X114373658Y-100311386D01*
X114426000Y-100300000D01*
X120574000Y-100300000D01*
X120642121Y-100320002D01*
G37*
%TD.AperFunction*%
%TD*%
%TA.AperFunction,Conductor*%
%TO.N,GND*%
G36*
X143842121Y-89020002D02*
G01*
X143888614Y-89073658D01*
X143900000Y-89126000D01*
X143900000Y-91574000D01*
X143879998Y-91642121D01*
X143826342Y-91688614D01*
X143774000Y-91700000D01*
X140681829Y-91700000D01*
X140613708Y-91679998D01*
X140567215Y-91626342D01*
X140556217Y-91564115D01*
X140557807Y-91543916D01*
X140558000Y-91538986D01*
X140558000Y-91447464D01*
X140578002Y-91379343D01*
X140631658Y-91332850D01*
X140701932Y-91322746D01*
X140738941Y-91336155D01*
X140739609Y-91334723D01*
X140759424Y-91343963D01*
X140913710Y-91395138D01*
X140927086Y-91398005D01*
X141021438Y-91407672D01*
X141027854Y-91408000D01*
X141427885Y-91408000D01*
X141443124Y-91403525D01*
X141444329Y-91402135D01*
X141446000Y-91394452D01*
X141446000Y-91389884D01*
X141954000Y-91389884D01*
X141958475Y-91405123D01*
X141959865Y-91406328D01*
X141967548Y-91407999D01*
X142372095Y-91407999D01*
X142378614Y-91407662D01*
X142474206Y-91397743D01*
X142487600Y-91394851D01*
X142641784Y-91343412D01*
X142654962Y-91337239D01*
X142792807Y-91251937D01*
X142804208Y-91242901D01*
X142918739Y-91128171D01*
X142927751Y-91116760D01*
X143012816Y-90978757D01*
X143018963Y-90965576D01*
X143070138Y-90811290D01*
X143073005Y-90797914D01*
X143082672Y-90703562D01*
X143083000Y-90697146D01*
X143083000Y-90609615D01*
X143078525Y-90594376D01*
X143077135Y-90593171D01*
X143069452Y-90591500D01*
X141972115Y-90591500D01*
X141956876Y-90595975D01*
X141955671Y-90597365D01*
X141954000Y-90605048D01*
X141954000Y-91389884D01*
X141446000Y-91389884D01*
X141446000Y-90065385D01*
X141954000Y-90065385D01*
X141958475Y-90080624D01*
X141959865Y-90081829D01*
X141967548Y-90083500D01*
X143064884Y-90083500D01*
X143080123Y-90079025D01*
X143081328Y-90077635D01*
X143082999Y-90069952D01*
X143082999Y-89977905D01*
X143082662Y-89971386D01*
X143072743Y-89875794D01*
X143069851Y-89862400D01*
X143018412Y-89708216D01*
X143012239Y-89695038D01*
X142926937Y-89557193D01*
X142917901Y-89545792D01*
X142803171Y-89431261D01*
X142791760Y-89422249D01*
X142653757Y-89337184D01*
X142640576Y-89331037D01*
X142486290Y-89279862D01*
X142472914Y-89276995D01*
X142378562Y-89267328D01*
X142372145Y-89267000D01*
X141972115Y-89267000D01*
X141956876Y-89271475D01*
X141955671Y-89272865D01*
X141954000Y-89280548D01*
X141954000Y-90065385D01*
X141446000Y-90065385D01*
X141446000Y-89285116D01*
X141441525Y-89269877D01*
X141440135Y-89268672D01*
X141432452Y-89267001D01*
X141027905Y-89267001D01*
X141021386Y-89267338D01*
X140925794Y-89277257D01*
X140912400Y-89280149D01*
X140758216Y-89331588D01*
X140745038Y-89337761D01*
X140607193Y-89423063D01*
X140595792Y-89432099D01*
X140481261Y-89546829D01*
X140472249Y-89558240D01*
X140387184Y-89696243D01*
X140381037Y-89709424D01*
X140357977Y-89778946D01*
X140317546Y-89837306D01*
X140251981Y-89864542D01*
X140182100Y-89852008D01*
X140174243Y-89847730D01*
X140170225Y-89845354D01*
X140155790Y-89839107D01*
X140021395Y-89800061D01*
X140007294Y-89800101D01*
X140004000Y-89807370D01*
X140004000Y-91090500D01*
X139983998Y-91158621D01*
X139930342Y-91205114D01*
X139878000Y-91216500D01*
X139622000Y-91216500D01*
X139553879Y-91196498D01*
X139507386Y-91142842D01*
X139496000Y-91090500D01*
X139496000Y-89813122D01*
X139492027Y-89799591D01*
X139484129Y-89798456D01*
X139344210Y-89839107D01*
X139329779Y-89845352D01*
X139200322Y-89921911D01*
X139187896Y-89931551D01*
X139115095Y-90004352D01*
X139052783Y-90038378D01*
X138981968Y-90033313D01*
X138925132Y-89990766D01*
X138900321Y-89924246D01*
X138900000Y-89915257D01*
X138900000Y-89126000D01*
X138920002Y-89057879D01*
X138973658Y-89011386D01*
X139026000Y-89000000D01*
X143774000Y-89000000D01*
X143842121Y-89020002D01*
G37*
%TD.AperFunction*%
%TD*%
M02*
