M48
; DRILL file {KiCad (6.0.5)} date Mon May 23 22:17:39 2022
; FORMAT={-:-/ absolute / inch / decimal}
; #@! TF.CreationDate,2022-05-23T22:17:39-04:00
; #@! TF.GenerationSoftware,Kicad,Pcbnew,(6.0.5)
; #@! TF.FileFunction,Plated,1,4,PTH
FMAT,2
INCH
; #@! TA.AperFunction,Plated,PTH,ViaDrill
T1C0.0157
; #@! TA.AperFunction,Plated,PTH,ComponentDrill
T2C0.0236
; #@! TA.AperFunction,Plated,PTH,ComponentDrill
T3C0.0335
; #@! TA.AperFunction,Plated,PTH,ComponentDrill
T4C0.0394
; #@! TA.AperFunction,Plated,PTH,ComponentDrill
T5C0.0520
; #@! TA.AperFunction,Plated,PTH,ComponentDrill
T6C0.0866
%
G90
G05
T1
X4.122Y-3.6299
X4.1457Y-3.0984
X4.1457Y-3.3031
X4.1949Y-3.7559
X4.2343Y-3.4252
X4.2343Y-3.5039
X4.2638Y-3.126
X4.2717Y-2.937
X4.3858Y-4.5512
X4.3858Y-4.6654
X4.4193Y-3.2352
X4.4291Y-3.3888
X4.4355Y-3.0851
X4.436Y-2.9528
X4.4409Y-4.8701
X4.4567Y-3.5
X4.4646Y-4.7638
X4.4803Y-4.9213
X4.4931Y-2.9518
X4.5005Y-3.2357
X4.5157Y-3.3465
X4.5197Y-4.0394
X4.5217Y-3.498
X4.5236Y-3.1004
X4.5276Y-3.5551
X4.5278Y-3.0285
X4.5394Y-2.9213
X4.5551Y-3.2362
X4.5748Y-2.8425
X4.626Y-3.9685
X4.626Y-4.1063
X4.626Y-4.3346
X4.626Y-4.437
X4.626Y-4.4803
X4.6417Y-2.8386
X4.6654Y-3.3543
X4.6654Y-3.4528
X4.6894Y-3.2313
X4.6949Y-3.0423
X4.6949Y-3.5315
X4.6969Y-2.8268
X4.7047Y-3.4528
X4.7052Y-3.3548
X4.7175Y-3.1977
X4.7323Y-4.0433
X4.7323Y-4.5276
X4.7481Y-3.4528
X4.7559Y-3.1811
X4.78Y-2.8898
X4.7825Y-3.3497
X4.7874Y-3.4528
X4.8022Y-3.1772
X4.8228Y-3.5433
X4.8268Y-3.0157
X4.8307Y-2.8622
X4.8307Y-3.2283
X4.8307Y-3.4528
X4.8307Y-4.3858
X4.872Y-3.2283
X4.8731Y-3.0159
X4.8898Y-3.3346
X4.8988Y-3.05
X4.9114Y-3.2283
X4.9567Y-4.815
X4.9641Y-2.972
X4.9961Y-2.8336
X5.0276Y-2.8031
X5.0276Y-3.4843
X5.0394Y-3.122
X5.0394Y-4.8661
X5.0679Y-3.315
X5.0679Y-3.4291
X5.0748Y-3.0079
X5.0748Y-3.9252
X5.0984Y-3.1693
X5.1102Y-4.2087
X5.122Y-3.0079
X5.1417Y-2.8632
X5.1536Y-3.2559
X5.1923Y-3.1463
X5.1929Y-3.2559
X5.2205Y-4.0472
X5.2321Y-3.1468
X5.2323Y-3.2559
X5.2402Y-3.9252
X5.2913Y-3.8189
X5.3031Y-4.0512
X5.3701Y-4.4252
X5.3976Y-3.8519
X5.4213Y-3.2913
X5.4252Y-3.5276
X5.4685Y-2.9282
X5.5197Y-3.1457
X5.5276Y-2.9242
X5.5866Y-2.9055
X5.5866Y-2.9636
X5.5866Y-3.0039
X5.6339Y-3.311
X5.6339Y-3.5551
X5.6339Y-3.8282
X5.6417Y-3.1299
X5.6457Y-2.7244
X5.6457Y-3.4252
X5.6496Y-3.6732
X5.6535Y-3.9464
X5.6575Y-2.6457
X5.7638Y-3.1063
X5.7776Y-2.8347
X5.8169Y-2.8346
X5.9606Y-2.7913
X5.9606Y-2.8386
X5.9646Y-4.5157
X5.9646Y-4.6339
X5.9961Y-3.0157
X6.0157Y-4.311
X6.0197Y-4.189
X6.0394Y-2.9871
X6.0551Y-4.5748
X6.0669Y-4.248
X6.0709Y-2.9035
X6.0906Y-2.7677
X6.1457Y-2.7205
X6.2008Y-2.7638
T3
X4.0969Y-2.9459
X4.0969Y-3.1427
T4
X4.1328Y-3.9909
X4.1328Y-4.0909
X4.1328Y-4.1909
X4.1328Y-4.2909
X4.1328Y-4.3909
X4.2328Y-3.9909
X4.2328Y-4.0909
X4.2328Y-4.1909
X4.2328Y-4.2909
X4.2328Y-4.3909
X4.3927Y-3.6811
X4.4927Y-3.6811
X4.5927Y-3.6811
X4.6927Y-3.6811
X4.7927Y-3.6811
X4.8927Y-3.6811
X4.9927Y-3.6811
X5.0927Y-3.6811
X5.1927Y-3.6811
X5.2927Y-3.6811
T5
X5.2967Y-4.7441
X5.4935Y-4.7441
X6.4921Y-4.3858
X6.4921Y-4.5827
X6.4929Y-3.7358
X6.4929Y-3.9327
X6.4929Y-4.1295
X6.4965Y-3.0785
X6.4965Y-3.2754
X6.4965Y-3.4722
T6
X4.0472Y-2.6693
X4.0591Y-4.8819
X6.626Y-2.6811
X6.6339Y-4.8858
T2
G00X3.9769Y-2.9065
M15
G01X4.0044Y-2.9065
M16
G05
G00X4.0044Y-3.1821
M15
G01X3.9769Y-3.1821
M16
G05
T0
M30
