%TF.GenerationSoftware,KiCad,Pcbnew,(6.0.5)*%
%TF.CreationDate,2022-05-23T22:17:39-04:00*%
%TF.ProjectId,HVAC_STM32_Motor_Controller,48564143-5f53-4544-9d33-325f4d6f746f,rev?*%
%TF.SameCoordinates,Original*%
%TF.FileFunction,Copper,L4,Bot*%
%TF.FilePolarity,Positive*%
%FSLAX46Y46*%
G04 Gerber Fmt 4.6, Leading zero omitted, Abs format (unit mm)*
G04 Created by KiCad (PCBNEW (6.0.5)) date 2022-05-23 22:17:39*
%MOMM*%
%LPD*%
G01*
G04 APERTURE LIST*
G04 Aperture macros list*
%AMRoundRect*
0 Rectangle with rounded corners*
0 $1 Rounding radius*
0 $2 $3 $4 $5 $6 $7 $8 $9 X,Y pos of 4 corners*
0 Add a 4 corners polygon primitive as box body*
4,1,4,$2,$3,$4,$5,$6,$7,$8,$9,$2,$3,0*
0 Add four circle primitives for the rounded corners*
1,1,$1+$1,$2,$3*
1,1,$1+$1,$4,$5*
1,1,$1+$1,$6,$7*
1,1,$1+$1,$8,$9*
0 Add four rect primitives between the rounded corners*
20,1,$1+$1,$2,$3,$4,$5,0*
20,1,$1+$1,$4,$5,$6,$7,0*
20,1,$1+$1,$6,$7,$8,$9,0*
20,1,$1+$1,$8,$9,$2,$3,0*%
G04 Aperture macros list end*
%TA.AperFunction,ComponentPad*%
%ADD10RoundRect,0.250000X-0.600000X-0.600000X0.600000X-0.600000X0.600000X0.600000X-0.600000X0.600000X0*%
%TD*%
%TA.AperFunction,ComponentPad*%
%ADD11C,1.700000*%
%TD*%
%TA.AperFunction,ComponentPad*%
%ADD12C,4.400000*%
%TD*%
%TA.AperFunction,ComponentPad*%
%ADD13R,3.960000X1.980000*%
%TD*%
%TA.AperFunction,ComponentPad*%
%ADD14O,3.960000X1.980000*%
%TD*%
%TA.AperFunction,ComponentPad*%
%ADD15O,1.900000X1.200000*%
%TD*%
%TA.AperFunction,ComponentPad*%
%ADD16C,1.450000*%
%TD*%
%TA.AperFunction,ComponentPad*%
%ADD17R,1.980000X3.960000*%
%TD*%
%TA.AperFunction,ComponentPad*%
%ADD18O,1.980000X3.960000*%
%TD*%
%TA.AperFunction,ComponentPad*%
%ADD19R,1.700000X1.700000*%
%TD*%
%TA.AperFunction,ComponentPad*%
%ADD20O,1.700000X1.700000*%
%TD*%
%TA.AperFunction,ViaPad*%
%ADD21C,0.800000*%
%TD*%
%TA.AperFunction,Conductor*%
%ADD22C,1.000000*%
%TD*%
%TA.AperFunction,Conductor*%
%ADD23C,0.250000*%
%TD*%
G04 APERTURE END LIST*
D10*
%TO.P,J1,1,Pin_1*%
%TO.N,+3V3*%
X104972500Y-101370000D03*
D11*
%TO.P,J1,2,Pin_2*%
%TO.N,SWDIO*%
X107512500Y-101370000D03*
%TO.P,J1,3,Pin_3*%
%TO.N,GND*%
X104972500Y-103910000D03*
%TO.P,J1,4,Pin_4*%
%TO.N,SWCLK*%
X107512500Y-103910000D03*
%TO.P,J1,5,Pin_5*%
%TO.N,GND*%
X104972500Y-106450000D03*
%TO.P,J1,6,Pin_6*%
%TO.N,SWO*%
X107512500Y-106450000D03*
%TO.P,J1,7,Pin_7*%
%TO.N,unconnected-(J1-Pad7)*%
X104972500Y-108990000D03*
%TO.P,J1,8,Pin_8*%
%TO.N,unconnected-(J1-Pad8)*%
X107512500Y-108990000D03*
%TO.P,J1,9,Pin_9*%
%TO.N,GND*%
X104972500Y-111530000D03*
%TO.P,J1,10,Pin_10*%
%TO.N,NRST*%
X107512500Y-111530000D03*
%TD*%
D12*
%TO.P,H2,1,1*%
%TO.N,GND*%
X168300000Y-68100000D03*
%TD*%
D13*
%TO.P,J9,1,Pin_1*%
%TO.N,BUCK_FB*%
X164900000Y-116400000D03*
D14*
%TO.P,J9,2,Pin_2*%
%TO.N,GND*%
X164900000Y-111400000D03*
%TD*%
D15*
%TO.P,J5,6,Shield*%
%TO.N,unconnected-(J5-Pad6)*%
X101362500Y-80825000D03*
X101362500Y-73825000D03*
D16*
X104062500Y-79825000D03*
X104062500Y-74825000D03*
%TD*%
D12*
%TO.P,H3,1,1*%
%TO.N,GND*%
X168500000Y-124100000D03*
%TD*%
D17*
%TO.P,J3,1,Pin_1*%
%TO.N,VM*%
X134535000Y-120500000D03*
D18*
%TO.P,J3,2,Pin_2*%
%TO.N,GND*%
X139535000Y-120500000D03*
%TD*%
D12*
%TO.P,H4,1,1*%
%TO.N,GND*%
X103100000Y-124000000D03*
%TD*%
D13*
%TO.P,J4,1,Pin_1*%
%TO.N,HALL1*%
X164920000Y-104890000D03*
D14*
%TO.P,J4,2,Pin_2*%
%TO.N,HALL2*%
X164920000Y-99890000D03*
%TO.P,J4,3,Pin_3*%
%TO.N,HALL3*%
X164920000Y-94890000D03*
%TD*%
D13*
%TO.P,J6,1,Pin_1*%
%TO.N,MOUT1*%
X165010000Y-88195000D03*
D14*
%TO.P,J6,2,Pin_2*%
%TO.N,MOUT2*%
X165010000Y-83195000D03*
%TO.P,J6,3,Pin_3*%
%TO.N,MOUT3*%
X165010000Y-78195000D03*
%TD*%
D19*
%TO.P,J2,1,Pin_1*%
%TO.N,+3V3*%
X111575000Y-93500000D03*
D20*
%TO.P,J2,2,Pin_2*%
%TO.N,I2C1_SCL*%
X114115000Y-93500000D03*
%TO.P,J2,3,Pin_3*%
%TO.N,I2C1_SDA*%
X116655000Y-93500000D03*
%TO.P,J2,4,Pin_4*%
%TO.N,SPI2_SCK*%
X119195000Y-93500000D03*
%TO.P,J2,5,Pin_5*%
%TO.N,SPI2_MISO*%
X121735000Y-93500000D03*
%TO.P,J2,6,Pin_6*%
%TO.N,SPI2_MOSI*%
X124275000Y-93500000D03*
%TO.P,J2,7,Pin_7*%
%TO.N,SPI2_NSS*%
X126815000Y-93500000D03*
%TO.P,J2,8,Pin_8*%
%TO.N,UART1_TX*%
X129355000Y-93500000D03*
%TO.P,J2,9,Pin_9*%
%TO.N,UART1_RX*%
X131895000Y-93500000D03*
%TO.P,J2,10,Pin_10*%
%TO.N,GND*%
X134435000Y-93500000D03*
%TD*%
D12*
%TO.P,H1,1,1*%
%TO.N,GND*%
X102800000Y-67800000D03*
%TD*%
D21*
%TO.N,GND*%
X117500000Y-104300000D03*
X108300000Y-79400000D03*
X120200000Y-102700000D03*
X152900000Y-106400000D03*
X157500000Y-70200000D03*
X120200000Y-115000000D03*
X151400000Y-70900000D03*
X119300000Y-71800000D03*
X143300000Y-79500000D03*
X151500000Y-114700000D03*
X129800000Y-106900000D03*
X143400000Y-69200000D03*
X143100000Y-90300000D03*
X128900000Y-99700000D03*
X125900000Y-122300000D03*
X105300000Y-78700000D03*
X143100000Y-84100000D03*
X152800000Y-109500000D03*
X129500000Y-80500000D03*
X104700000Y-92200000D03*
X114800000Y-102600000D03*
X151500000Y-117700000D03*
X117500000Y-110100000D03*
X133100000Y-99700000D03*
X130600000Y-72724500D03*
X143700000Y-67200000D03*
X114700000Y-85000000D03*
X128724500Y-87100000D03*
X128900000Y-76400000D03*
X117900000Y-72100000D03*
X116200000Y-72200000D03*
X124200000Y-84700000D03*
X156100000Y-69100000D03*
X117500000Y-113800000D03*
X154700000Y-70300000D03*
X151400000Y-72100000D03*
X143100000Y-97237500D03*
X117500000Y-100800000D03*
X111400000Y-115600000D03*
X117500000Y-112700000D03*
X128000000Y-123600000D03*
X140200000Y-79900000D03*
X154100000Y-107900000D03*
X112249951Y-82174549D03*
X153800000Y-116200000D03*
%TO.N,+3V3*%
X130100000Y-76400000D03*
X115006425Y-76924500D03*
X128724500Y-84200000D03*
X111400000Y-118500000D03*
X115300000Y-74200000D03*
X134700000Y-102900000D03*
X105300000Y-83900000D03*
X113800000Y-125000000D03*
X134400000Y-97000000D03*
X137800000Y-89600000D03*
X132600000Y-102800000D03*
X115700000Y-82200000D03*
X137700000Y-83600000D03*
X127700000Y-88500000D03*
X122500000Y-90000000D03*
X112800000Y-123700000D03*
X137100000Y-97837500D03*
%TO.N,BUCK_FB*%
X113400000Y-121000000D03*
X122700000Y-111400000D03*
%TO.N,+5VD*%
X108500000Y-74600000D03*
X136400000Y-112400000D03*
%TO.N,SWDIO*%
X107550000Y-89000000D03*
X107550000Y-87000000D03*
%TO.N,SWCLK*%
X114850000Y-88850000D03*
X118500000Y-85200000D03*
X113200000Y-88900000D03*
X118500000Y-87700000D03*
%TO.N,SWO*%
X119112000Y-82075500D03*
X106550000Y-95400000D03*
%TO.N,NRST*%
X128000000Y-79300000D03*
%TO.N,I2C1_SDA*%
X120600498Y-87699989D03*
X121475500Y-85081513D03*
%TO.N,SPI2_SCK*%
X119250000Y-89700000D03*
X119250000Y-77275500D03*
%TO.N,SPI2_MISO*%
X112662299Y-78362299D03*
X112675500Y-75000000D03*
X114124500Y-74975500D03*
%TO.N,SPI2_MOSI*%
X123750000Y-82000000D03*
%TO.N,SPI2_NSS*%
X124749503Y-82000000D03*
%TO.N,UART1_TX*%
X121975500Y-80700000D03*
X121600000Y-87700000D03*
%TO.N,UART1_RX*%
X122700000Y-82000000D03*
X122700000Y-87700000D03*
%TO.N,HALL1*%
X114900000Y-78750011D03*
X112500000Y-86075500D03*
X114312299Y-82187701D03*
%TO.N,HALL2*%
X119512299Y-85212299D03*
X115000000Y-90300000D03*
X119500000Y-87700000D03*
%TO.N,HALL3*%
X120800000Y-80800000D03*
%TO.N,CSENS1*%
X152300000Y-76600000D03*
X143400000Y-87000000D03*
%TO.N,CSENS3*%
X154200000Y-73749500D03*
X143600000Y-100237500D03*
%TO.N,CSENS2*%
X143500000Y-93300000D03*
X153400000Y-75873179D03*
%TO.N,ADC1_IN1*%
X132895825Y-79927792D03*
X132900000Y-82700000D03*
X124430159Y-77469841D03*
X126087701Y-75487701D03*
%TO.N,PWM2*%
X140400000Y-74275500D03*
X123775500Y-76602762D03*
%TO.N,ADC1_IN3*%
X131900494Y-82700037D03*
X131884023Y-79914996D03*
%TO.N,PWM1*%
X146400000Y-78900000D03*
X122700000Y-72700000D03*
%TO.N,PWM1_EN*%
X122600000Y-76600000D03*
X138900000Y-74375500D03*
%TO.N,ADC1_IN11*%
X121412000Y-73400000D03*
X130900992Y-82700000D03*
%TO.N,DRV_nSLEEP*%
X126900000Y-71974500D03*
X146750000Y-72000498D03*
%TO.N,DRV_nRESET*%
X147750000Y-72000000D03*
X127700000Y-71200000D03*
%TO.N,PWM3*%
X141900000Y-73800000D03*
X141900000Y-75274980D03*
%TO.N,PWM2_EN*%
X141900000Y-76300000D03*
X119824500Y-81220583D03*
%TD*%
D22*
%TO.N,BUCK_FB*%
X112700000Y-119800000D02*
X112700000Y-120300000D01*
X112700000Y-120300000D02*
X113400000Y-121000000D01*
X114800000Y-111400000D02*
X112700000Y-113500000D01*
X122700000Y-111400000D02*
X114800000Y-111400000D01*
X112700000Y-113500000D02*
X112700000Y-119800000D01*
D23*
%TO.N,+5VD*%
X106100960Y-82629525D02*
X106100960Y-86152991D01*
X103500000Y-112100000D02*
X104500000Y-113100000D01*
X108700000Y-113100000D02*
X113300000Y-108500000D01*
X106100960Y-86152991D02*
X105650960Y-86602992D01*
X104500000Y-113100000D02*
X108700000Y-113100000D01*
X132500000Y-108500000D02*
X136400000Y-112400000D01*
X106100000Y-82628565D02*
X106100960Y-82629525D01*
X105650960Y-86602992D02*
X105650960Y-94638708D01*
X107000000Y-74600000D02*
X106100000Y-75500000D01*
X103500000Y-96789668D02*
X103500000Y-112100000D01*
X105650960Y-94638708D02*
X103500000Y-96789668D01*
X113300000Y-108500000D02*
X132500000Y-108500000D01*
X108500000Y-74600000D02*
X107000000Y-74600000D01*
X106100000Y-75500000D02*
X106100000Y-82628565D01*
%TO.N,SWDIO*%
X107550000Y-87000000D02*
X107550000Y-89000000D01*
%TO.N,SWCLK*%
X113250000Y-88850000D02*
X113200000Y-88900000D01*
X118500000Y-87700000D02*
X118500000Y-85200000D01*
X114850000Y-88850000D02*
X113250000Y-88850000D01*
%TO.N,SWO*%
X119974511Y-77575603D02*
X119974511Y-76274511D01*
X119100000Y-78450114D02*
X119974511Y-77575603D01*
X115110812Y-75649520D02*
X114610800Y-76149531D01*
X119112000Y-82075500D02*
X119100000Y-82063500D01*
X119100000Y-82063500D02*
X119100000Y-78450114D01*
X107000000Y-83000000D02*
X107000000Y-86525386D01*
X114610800Y-76149531D02*
X113850469Y-76149531D01*
X107000000Y-86525386D02*
X106550000Y-86975386D01*
X119974511Y-76274511D02*
X119349520Y-75649520D01*
X119349520Y-75649520D02*
X115110812Y-75649520D01*
X113850469Y-76149531D02*
X107000000Y-83000000D01*
X106550000Y-86975386D02*
X106550000Y-95400000D01*
%TO.N,NRST*%
X106100480Y-86789189D02*
X106100480Y-94824906D01*
X113664271Y-75700011D02*
X106550480Y-82813803D01*
X114924614Y-75200000D02*
X114424603Y-75700011D01*
X104300000Y-98685007D02*
X106147011Y-100532018D01*
X104300000Y-96625386D02*
X104300000Y-98685007D01*
X114424603Y-75700011D02*
X113664271Y-75700011D01*
X128000000Y-79300000D02*
X127000000Y-80300000D01*
X127000000Y-80300000D02*
X124635718Y-80300000D01*
X124635718Y-80300000D02*
X119535718Y-75200000D01*
X106147011Y-100532018D02*
X106147011Y-110164511D01*
X119535718Y-75200000D02*
X114924614Y-75200000D01*
X106100480Y-94824906D02*
X104300000Y-96625386D01*
X106550480Y-86339188D02*
X106100480Y-86789189D01*
X106147011Y-110164511D02*
X107512500Y-111530000D01*
X106550480Y-82813803D02*
X106550480Y-86339188D01*
%TO.N,I2C1_SDA*%
X121475500Y-86799886D02*
X120600498Y-87674888D01*
X121475500Y-85081513D02*
X121475500Y-86799886D01*
X120600498Y-87674888D02*
X120600498Y-87699989D01*
%TO.N,SPI2_SCK*%
X118124500Y-77275500D02*
X116600000Y-78800000D01*
X116600000Y-87050000D02*
X119250000Y-89700000D01*
X119250000Y-77275500D02*
X118124500Y-77275500D01*
X116600000Y-78800000D02*
X116600000Y-87050000D01*
%TO.N,SPI2_MISO*%
X112662299Y-78362299D02*
X112662299Y-81562299D01*
X121735000Y-91935000D02*
X121735000Y-93500000D01*
X113700000Y-82600000D02*
X113700000Y-85174614D01*
X120224511Y-90424511D02*
X121735000Y-91935000D01*
X118949897Y-90424511D02*
X120224511Y-90424511D01*
X113700000Y-85174614D02*
X118949897Y-90424511D01*
X112662299Y-81562299D02*
X113700000Y-82600000D01*
X114124500Y-74975500D02*
X112700000Y-74975500D01*
X112700000Y-74975500D02*
X112675500Y-75000000D01*
%TO.N,SPI2_MOSI*%
X123475489Y-92700489D02*
X124275000Y-93500000D01*
X123475489Y-82274511D02*
X123475489Y-92700489D01*
X123750000Y-82000000D02*
X123475489Y-82274511D01*
%TO.N,SPI2_NSS*%
X124749503Y-82000000D02*
X125000000Y-82250497D01*
X125000000Y-90000000D02*
X126815000Y-91815000D01*
X126815000Y-91815000D02*
X126815000Y-93500000D01*
X125000000Y-82250497D02*
X125000000Y-90000000D01*
%TO.N,UART1_TX*%
X121975500Y-80700000D02*
X122200000Y-80924500D01*
X121975489Y-81699897D02*
X121975489Y-82300103D01*
X122200000Y-87100000D02*
X121600000Y-87700000D01*
X122200000Y-81475386D02*
X121975489Y-81699897D01*
X121975489Y-82300103D02*
X122200000Y-82524614D01*
X122200000Y-82524614D02*
X122200000Y-87100000D01*
X122200000Y-80924500D02*
X122200000Y-81475386D01*
%TO.N,UART1_RX*%
X122700000Y-82000000D02*
X122700000Y-87700000D01*
%TO.N,HALL1*%
X112475489Y-86100011D02*
X112475489Y-92225978D01*
X112940489Y-92690978D02*
X112940489Y-94040489D01*
X112475489Y-92225978D02*
X112940489Y-92690978D01*
X112940489Y-94040489D02*
X123790000Y-104890000D01*
X123790000Y-104890000D02*
X164920000Y-104890000D01*
X112500000Y-86075500D02*
X112475489Y-86100011D01*
X114900000Y-78750011D02*
X114900000Y-81600000D01*
X114900000Y-81600000D02*
X114312299Y-82187701D01*
%TO.N,HALL2*%
X160510000Y-104300000D02*
X164920000Y-99890000D01*
X119500000Y-85224598D02*
X119500000Y-87700000D01*
X115000000Y-90300000D02*
X115289511Y-90589511D01*
X115289511Y-95589511D02*
X124000000Y-104300000D01*
X119512299Y-85212299D02*
X119500000Y-85224598D01*
X115289511Y-90589511D02*
X115289511Y-95589511D01*
X124000000Y-104300000D02*
X160510000Y-104300000D01*
%TO.N,HALL3*%
X162200000Y-97610000D02*
X164920000Y-94890000D01*
X130529511Y-91529511D02*
X130529511Y-102829511D01*
X131500000Y-103800000D02*
X159800000Y-103800000D01*
X128424511Y-88199897D02*
X128424511Y-89424511D01*
X125049606Y-81275489D02*
X125474014Y-81699897D01*
X159800000Y-103800000D02*
X162200000Y-101400000D01*
X125474014Y-81699897D02*
X125474014Y-85249400D01*
X120800000Y-80800000D02*
X121624511Y-79975489D01*
X162200000Y-101400000D02*
X162200000Y-97610000D01*
X122275603Y-79975489D02*
X123575603Y-81275489D01*
X128424511Y-89424511D02*
X130529511Y-91529511D01*
X121624511Y-79975489D02*
X122275603Y-79975489D01*
X130529511Y-102829511D02*
X131500000Y-103800000D01*
X123575603Y-81275489D02*
X125049606Y-81275489D01*
X125474014Y-85249400D02*
X128424511Y-88199897D01*
%TO.N,CSENS1*%
X151500000Y-87000000D02*
X143400000Y-87000000D01*
X152300000Y-76600000D02*
X152300000Y-86200000D01*
X152300000Y-86200000D02*
X151500000Y-87000000D01*
%TO.N,CSENS3*%
X143637500Y-100200000D02*
X143600000Y-100237500D01*
X154200000Y-73749500D02*
X154200000Y-97800000D01*
X151800000Y-100200000D02*
X143637500Y-100200000D01*
X154200000Y-97800000D02*
X151800000Y-100200000D01*
%TO.N,CSENS2*%
X153400000Y-92000000D02*
X152100000Y-93300000D01*
X153400000Y-75873179D02*
X153400000Y-92000000D01*
X152100000Y-93300000D02*
X143500000Y-93300000D01*
%TO.N,ADC1_IN1*%
X132900000Y-82700000D02*
X132895825Y-82695825D01*
X132895825Y-82695825D02*
X132895825Y-79927792D01*
X124500000Y-77400000D02*
X124500000Y-76500000D01*
X124500000Y-76500000D02*
X125512299Y-75487701D01*
X124430159Y-77469841D02*
X124500000Y-77400000D01*
X125512299Y-75487701D02*
X126087701Y-75487701D01*
%TO.N,PWM2*%
X132514423Y-75100000D02*
X139575500Y-75100000D01*
X131689923Y-74275500D02*
X132514423Y-75100000D01*
X139575500Y-75100000D02*
X140400000Y-74275500D01*
X123775500Y-76524500D02*
X126024500Y-74275500D01*
X123775500Y-76602762D02*
X123775500Y-76524500D01*
X126024500Y-74275500D02*
X131689923Y-74275500D01*
%TO.N,ADC1_IN3*%
X131900494Y-82700037D02*
X131884023Y-82683566D01*
X131884023Y-82683566D02*
X131884023Y-79914996D01*
%TO.N,PWM1*%
X148474511Y-71588794D02*
X148474511Y-76825489D01*
X148474511Y-76825489D02*
X146400000Y-78900000D01*
X123424511Y-70475489D02*
X147361206Y-70475489D01*
X122700000Y-71200000D02*
X123424511Y-70475489D01*
X147361206Y-70475489D02*
X148474511Y-71588794D01*
X122700000Y-72700000D02*
X122700000Y-71200000D01*
%TO.N,PWM1_EN*%
X125374020Y-73825980D02*
X122600000Y-76600000D01*
X138900000Y-74375500D02*
X138625020Y-74650480D01*
X138625020Y-74650480D02*
X132700621Y-74650480D01*
X132700621Y-74650480D02*
X131876121Y-73825980D01*
X131876121Y-73825980D02*
X125374020Y-73825980D01*
%TO.N,ADC1_IN11*%
X126424906Y-79850480D02*
X124821916Y-79850480D01*
X127775386Y-78500000D02*
X126424906Y-79850480D01*
X130900000Y-79500000D02*
X129900000Y-78500000D01*
X129900000Y-78500000D02*
X127775386Y-78500000D01*
X130900000Y-82699008D02*
X130900000Y-79500000D01*
X124821916Y-79850480D02*
X121412000Y-76440564D01*
X121412000Y-76440564D02*
X121412000Y-73400000D01*
X130900992Y-82700000D02*
X130900000Y-82699008D01*
%TO.N,DRV_nSLEEP*%
X146749502Y-72000000D02*
X146750000Y-72000498D01*
X126900000Y-71974500D02*
X126925500Y-72000000D01*
X126925500Y-72000000D02*
X146749502Y-72000000D01*
%TO.N,DRV_nRESET*%
X127700000Y-71200000D02*
X127750000Y-71250000D01*
X127750000Y-71250000D02*
X147500000Y-71250000D01*
X147750000Y-71500000D02*
X147750000Y-72000000D01*
X147500000Y-71250000D02*
X147750000Y-71500000D01*
%TO.N,PWM3*%
X141900000Y-73800000D02*
X141900000Y-75274980D01*
%TO.N,PWM2_EN*%
X133024614Y-83600000D02*
X133624511Y-83000103D01*
X133624511Y-83000103D02*
X133624511Y-79631864D01*
X119824500Y-81220583D02*
X119824500Y-80575500D01*
X133624511Y-79631864D02*
X133200000Y-79207353D01*
X134100000Y-76300000D02*
X141900000Y-76300000D01*
X124525969Y-80825969D02*
X127625969Y-80825969D01*
X127625969Y-80825969D02*
X130400000Y-83600000D01*
X130400000Y-83600000D02*
X133024614Y-83600000D01*
X133200000Y-77200000D02*
X134100000Y-76300000D01*
X121700000Y-78700000D02*
X122400000Y-78700000D01*
X119824500Y-80575500D02*
X121700000Y-78700000D01*
X133200000Y-79207353D02*
X133200000Y-77200000D01*
X122400000Y-78700000D02*
X124525969Y-80825969D01*
%TD*%
M02*
