%TF.GenerationSoftware,KiCad,Pcbnew,(6.0.5)*%
%TF.CreationDate,2022-05-23T22:17:39-04:00*%
%TF.ProjectId,HVAC_STM32_Motor_Controller,48564143-5f53-4544-9d33-325f4d6f746f,rev?*%
%TF.SameCoordinates,Original*%
%TF.FileFunction,Paste,Top*%
%TF.FilePolarity,Positive*%
%FSLAX46Y46*%
G04 Gerber Fmt 4.6, Leading zero omitted, Abs format (unit mm)*
G04 Created by KiCad (PCBNEW (6.0.5)) date 2022-05-23 22:17:39*
%MOMM*%
%LPD*%
G01*
G04 APERTURE LIST*
G04 Aperture macros list*
%AMRoundRect*
0 Rectangle with rounded corners*
0 $1 Rounding radius*
0 $2 $3 $4 $5 $6 $7 $8 $9 X,Y pos of 4 corners*
0 Add a 4 corners polygon primitive as box body*
4,1,4,$2,$3,$4,$5,$6,$7,$8,$9,$2,$3,0*
0 Add four circle primitives for the rounded corners*
1,1,$1+$1,$2,$3*
1,1,$1+$1,$4,$5*
1,1,$1+$1,$6,$7*
1,1,$1+$1,$8,$9*
0 Add four rect primitives between the rounded corners*
20,1,$1+$1,$2,$3,$4,$5,0*
20,1,$1+$1,$4,$5,$6,$7,0*
20,1,$1+$1,$6,$7,$8,$9,0*
20,1,$1+$1,$8,$9,$2,$3,0*%
G04 Aperture macros list end*
%ADD10RoundRect,0.250000X0.625000X-0.312500X0.625000X0.312500X-0.625000X0.312500X-0.625000X-0.312500X0*%
%ADD11RoundRect,0.250000X-0.650000X0.325000X-0.650000X-0.325000X0.650000X-0.325000X0.650000X0.325000X0*%
%ADD12RoundRect,0.150000X-0.512500X-0.150000X0.512500X-0.150000X0.512500X0.150000X-0.512500X0.150000X0*%
%ADD13RoundRect,0.250000X0.650000X-0.325000X0.650000X0.325000X-0.650000X0.325000X-0.650000X-0.325000X0*%
%ADD14RoundRect,0.250000X-0.262500X-0.450000X0.262500X-0.450000X0.262500X0.450000X-0.262500X0.450000X0*%
%ADD15RoundRect,0.200000X0.200000X0.275000X-0.200000X0.275000X-0.200000X-0.275000X0.200000X-0.275000X0*%
%ADD16RoundRect,0.225000X-0.250000X0.225000X-0.250000X-0.225000X0.250000X-0.225000X0.250000X0.225000X0*%
%ADD17RoundRect,0.250000X0.262500X0.450000X-0.262500X0.450000X-0.262500X-0.450000X0.262500X-0.450000X0*%
%ADD18RoundRect,0.218750X-0.256250X0.218750X-0.256250X-0.218750X0.256250X-0.218750X0.256250X0.218750X0*%
%ADD19RoundRect,0.250000X-0.450000X0.262500X-0.450000X-0.262500X0.450000X-0.262500X0.450000X0.262500X0*%
%ADD20RoundRect,0.218750X0.218750X0.256250X-0.218750X0.256250X-0.218750X-0.256250X0.218750X-0.256250X0*%
%ADD21R,1.400000X1.200000*%
%ADD22RoundRect,0.225000X0.250000X-0.225000X0.250000X0.225000X-0.250000X0.225000X-0.250000X-0.225000X0*%
%ADD23RoundRect,0.250000X1.950000X1.000000X-1.950000X1.000000X-1.950000X-1.000000X1.950000X-1.000000X0*%
%ADD24RoundRect,0.250000X-0.625000X0.312500X-0.625000X-0.312500X0.625000X-0.312500X0.625000X0.312500X0*%
%ADD25RoundRect,0.250000X0.325000X0.650000X-0.325000X0.650000X-0.325000X-0.650000X0.325000X-0.650000X0*%
%ADD26RoundRect,0.200000X-0.200000X-0.275000X0.200000X-0.275000X0.200000X0.275000X-0.200000X0.275000X0*%
%ADD27RoundRect,0.150000X0.150000X-0.512500X0.150000X0.512500X-0.150000X0.512500X-0.150000X-0.512500X0*%
%ADD28R,2.500000X1.800000*%
%ADD29RoundRect,0.150000X-0.587500X-0.150000X0.587500X-0.150000X0.587500X0.150000X-0.587500X0.150000X0*%
%ADD30RoundRect,0.100000X-0.712500X-0.100000X0.712500X-0.100000X0.712500X0.100000X-0.712500X0.100000X0*%
%ADD31R,0.800000X1.000000*%
%ADD32R,1.500000X0.700000*%
%ADD33RoundRect,0.250000X-1.250000X-0.550000X1.250000X-0.550000X1.250000X0.550000X-1.250000X0.550000X0*%
%ADD34R,1.350000X0.400000*%
%ADD35R,1.900000X1.500000*%
%ADD36RoundRect,0.200000X-0.275000X0.200000X-0.275000X-0.200000X0.275000X-0.200000X0.275000X0.200000X0*%
%ADD37RoundRect,0.250000X0.450000X-0.262500X0.450000X0.262500X-0.450000X0.262500X-0.450000X-0.262500X0*%
%ADD38RoundRect,0.225000X0.225000X0.250000X-0.225000X0.250000X-0.225000X-0.250000X0.225000X-0.250000X0*%
%ADD39RoundRect,0.250000X-0.312500X-0.625000X0.312500X-0.625000X0.312500X0.625000X-0.312500X0.625000X0*%
%ADD40RoundRect,0.250000X0.425000X1.075000X-0.425000X1.075000X-0.425000X-1.075000X0.425000X-1.075000X0*%
%ADD41RoundRect,0.250001X0.899999X1.924999X-0.899999X1.924999X-0.899999X-1.924999X0.899999X-1.924999X0*%
%ADD42RoundRect,0.100000X0.637500X0.100000X-0.637500X0.100000X-0.637500X-0.100000X0.637500X-0.100000X0*%
%ADD43RoundRect,0.250000X-0.325000X-0.650000X0.325000X-0.650000X0.325000X0.650000X-0.325000X0.650000X0*%
%ADD44RoundRect,0.250000X-1.500000X-0.550000X1.500000X-0.550000X1.500000X0.550000X-1.500000X0.550000X0*%
%ADD45RoundRect,0.150000X0.675000X0.150000X-0.675000X0.150000X-0.675000X-0.150000X0.675000X-0.150000X0*%
%ADD46RoundRect,0.250000X0.312500X0.625000X-0.312500X0.625000X-0.312500X-0.625000X0.312500X-0.625000X0*%
%ADD47R,2.700000X0.800000*%
%ADD48RoundRect,0.075000X0.662500X0.075000X-0.662500X0.075000X-0.662500X-0.075000X0.662500X-0.075000X0*%
%ADD49RoundRect,0.075000X0.075000X0.662500X-0.075000X0.662500X-0.075000X-0.662500X0.075000X-0.662500X0*%
G04 APERTURE END LIST*
D10*
%TO.C,R4*%
X112700000Y-118462500D03*
X112700000Y-115537500D03*
%TD*%
D11*
%TO.C,C18*%
X145400000Y-81325000D03*
X145400000Y-84275000D03*
%TD*%
D12*
%TO.C,U3*%
X107212500Y-76300000D03*
X107212500Y-77250000D03*
X107212500Y-78200000D03*
X109487500Y-78200000D03*
X109487500Y-77250000D03*
X109487500Y-76300000D03*
%TD*%
D13*
%TO.C,C1*%
X128400000Y-85925000D03*
X128400000Y-82975000D03*
%TD*%
D14*
%TO.C,R16*%
X140837500Y-67250000D03*
X142662500Y-67250000D03*
%TD*%
D15*
%TO.C,R5*%
X110925000Y-88125000D03*
X109275000Y-88125000D03*
%TD*%
D16*
%TO.C,C8*%
X116237500Y-73075000D03*
X116237500Y-74625000D03*
%TD*%
D17*
%TO.C,R7*%
X136662500Y-76350000D03*
X134837500Y-76350000D03*
%TD*%
D18*
%TO.C,L2*%
X131050000Y-76412500D03*
X131050000Y-77987500D03*
%TD*%
D19*
%TO.C,R20*%
X139000000Y-68837500D03*
X139000000Y-70662500D03*
%TD*%
D20*
%TO.C,D1*%
X126137500Y-73200000D03*
X124562500Y-73200000D03*
%TD*%
D21*
%TO.C,Y1*%
X135050000Y-79950000D03*
X137250000Y-79950000D03*
X137250000Y-78250000D03*
X135050000Y-78250000D03*
%TD*%
D22*
%TO.C,C6*%
X117337500Y-84925000D03*
X117337500Y-83375000D03*
%TD*%
D23*
%TO.C,C7*%
X125900000Y-102600000D03*
X117500000Y-102600000D03*
%TD*%
D22*
%TO.C,C4*%
X115637500Y-84925000D03*
X115637500Y-83375000D03*
%TD*%
D24*
%TO.C,R13*%
X134700000Y-101437500D03*
X134700000Y-104362500D03*
%TD*%
D25*
%TO.C,C14*%
X145400000Y-108600000D03*
X142450000Y-108600000D03*
%TD*%
D22*
%TO.C,C10*%
X129500000Y-79575000D03*
X129500000Y-78025000D03*
%TD*%
D26*
%TO.C,R6*%
X120625000Y-89050000D03*
X122275000Y-89050000D03*
%TD*%
D27*
%TO.C,U8*%
X137850000Y-93237500D03*
X138800000Y-93237500D03*
X139750000Y-93237500D03*
X139750000Y-90962500D03*
X137850000Y-90962500D03*
%TD*%
D14*
%TO.C,R19*%
X137337500Y-67000000D03*
X139162500Y-67000000D03*
%TD*%
D28*
%TO.C,D3*%
X130000000Y-112200000D03*
X134000000Y-112200000D03*
%TD*%
D29*
%TO.C,Q1*%
X129762500Y-107650000D03*
X129762500Y-109550000D03*
X131637500Y-108600000D03*
%TD*%
D30*
%TO.C,U7*%
X128887500Y-97025000D03*
X128887500Y-97675000D03*
X128887500Y-98325000D03*
X128887500Y-98975000D03*
X133112500Y-98975000D03*
X133112500Y-98325000D03*
X133112500Y-97675000D03*
X133112500Y-97025000D03*
%TD*%
D27*
%TO.C,U5*%
X137750000Y-87037500D03*
X138700000Y-87037500D03*
X139650000Y-87037500D03*
X139650000Y-84762500D03*
X137750000Y-84762500D03*
%TD*%
D31*
%TO.C,SW1*%
X101670000Y-83650000D03*
X103880000Y-83650000D03*
X103880000Y-90950000D03*
X101670000Y-90950000D03*
D32*
X104530000Y-85050000D03*
X104530000Y-88050000D03*
X104530000Y-89550000D03*
%TD*%
D33*
%TO.C,C5*%
X121500000Y-123600000D03*
X125900000Y-123600000D03*
%TD*%
D19*
%TO.C,R9*%
X133000000Y-68887500D03*
X133000000Y-70712500D03*
%TD*%
D34*
%TO.C,J5*%
X104062500Y-76025000D03*
X104062500Y-76675000D03*
X104062500Y-77325000D03*
X104062500Y-77975000D03*
X104062500Y-78625000D03*
D35*
X101362500Y-76325000D03*
X101362500Y-78325000D03*
%TD*%
D22*
%TO.C,C12*%
X139250000Y-79975000D03*
X139250000Y-78425000D03*
%TD*%
D14*
%TO.C,R1*%
X127737500Y-73262500D03*
X129562500Y-73262500D03*
%TD*%
D36*
%TO.C,R8*%
X124400000Y-86975000D03*
X124400000Y-88625000D03*
%TD*%
D10*
%TO.C,R15*%
X141700000Y-93262500D03*
X141700000Y-90337500D03*
%TD*%
D22*
%TO.C,C16*%
X142500000Y-70775000D03*
X142500000Y-69225000D03*
%TD*%
D14*
%TO.C,R14*%
X133837500Y-67000000D03*
X135662500Y-67000000D03*
%TD*%
D15*
%TO.C,R2*%
X115925000Y-77550000D03*
X114275000Y-77550000D03*
%TD*%
D37*
%TO.C,R17*%
X135000000Y-70712500D03*
X135000000Y-68887500D03*
%TD*%
D38*
%TO.C,C11*%
X136625000Y-81650000D03*
X135075000Y-81650000D03*
%TD*%
D16*
%TO.C,C9*%
X127950000Y-76425000D03*
X127950000Y-77975000D03*
%TD*%
D39*
%TO.C,R12*%
X129737500Y-101500000D03*
X132662500Y-101500000D03*
%TD*%
D18*
%TO.C,D4*%
X140750000Y-69212500D03*
X140750000Y-70787500D03*
%TD*%
D40*
%TO.C,F1*%
X138950000Y-108600000D03*
X134450000Y-108600000D03*
%TD*%
D41*
%TO.C,U4*%
X147350000Y-75300000D03*
D42*
X150212500Y-79525000D03*
X150212500Y-78875000D03*
X150212500Y-78225000D03*
X150212500Y-77575000D03*
X150212500Y-76925000D03*
X150212500Y-76275000D03*
X150212500Y-75625000D03*
X150212500Y-74975000D03*
X150212500Y-74325000D03*
X150212500Y-73675000D03*
X150212500Y-73025000D03*
X150212500Y-72375000D03*
X150212500Y-71725000D03*
X150212500Y-71075000D03*
X144487500Y-71075000D03*
X144487500Y-71725000D03*
X144487500Y-72375000D03*
X144487500Y-73025000D03*
X144487500Y-73675000D03*
X144487500Y-74325000D03*
X144487500Y-74975000D03*
X144487500Y-75625000D03*
X144487500Y-76275000D03*
X144487500Y-76925000D03*
X144487500Y-77575000D03*
X144487500Y-78225000D03*
X144487500Y-78875000D03*
X144487500Y-79525000D03*
%TD*%
D16*
%TO.C,C3*%
X117937500Y-72975000D03*
X117937500Y-74525000D03*
%TD*%
D28*
%TO.C,D2*%
X116900000Y-116600000D03*
X120900000Y-116600000D03*
%TD*%
D43*
%TO.C,C15*%
X149850000Y-107900000D03*
X152800000Y-107900000D03*
%TD*%
D44*
%TO.C,C13*%
X145900000Y-116200000D03*
X151500000Y-116200000D03*
%TD*%
D45*
%TO.C,U2*%
X125225000Y-113905000D03*
X125225000Y-112635000D03*
X125225000Y-111365000D03*
X125225000Y-110095000D03*
X119975000Y-110095000D03*
X119975000Y-111365000D03*
X119975000Y-112635000D03*
X119975000Y-113905000D03*
%TD*%
D46*
%TO.C,R3*%
X116762500Y-123700000D03*
X113837500Y-123700000D03*
%TD*%
D10*
%TO.C,R10*%
X141700000Y-87062500D03*
X141700000Y-84137500D03*
%TD*%
%TO.C,R11*%
X141700000Y-100200000D03*
X141700000Y-97275000D03*
%TD*%
D13*
%TO.C,C17*%
X156100000Y-73175000D03*
X156100000Y-70225000D03*
%TD*%
D47*
%TO.C,L1*%
X116900000Y-119200000D03*
X116900000Y-121400000D03*
%TD*%
D22*
%TO.C,C2*%
X126337500Y-85825000D03*
X126337500Y-84275000D03*
%TD*%
D48*
%TO.C,U1*%
X126100000Y-82000000D03*
X126100000Y-81500000D03*
X126100000Y-81000000D03*
X126100000Y-80500000D03*
X126100000Y-80000000D03*
X126100000Y-79500000D03*
X126100000Y-79000000D03*
X126100000Y-78500000D03*
X126100000Y-78000000D03*
X126100000Y-77500000D03*
X126100000Y-77000000D03*
X126100000Y-76500000D03*
D49*
X124687500Y-75087500D03*
X124187500Y-75087500D03*
X123687500Y-75087500D03*
X123187500Y-75087500D03*
X122687500Y-75087500D03*
X122187500Y-75087500D03*
X121687500Y-75087500D03*
X121187500Y-75087500D03*
X120687500Y-75087500D03*
X120187500Y-75087500D03*
X119687500Y-75087500D03*
X119187500Y-75087500D03*
D48*
X117775000Y-76500000D03*
X117775000Y-77000000D03*
X117775000Y-77500000D03*
X117775000Y-78000000D03*
X117775000Y-78500000D03*
X117775000Y-79000000D03*
X117775000Y-79500000D03*
X117775000Y-80000000D03*
X117775000Y-80500000D03*
X117775000Y-81000000D03*
X117775000Y-81500000D03*
X117775000Y-82000000D03*
D49*
X119187500Y-83412500D03*
X119687500Y-83412500D03*
X120187500Y-83412500D03*
X120687500Y-83412500D03*
X121187500Y-83412500D03*
X121687500Y-83412500D03*
X122187500Y-83412500D03*
X122687500Y-83412500D03*
X123187500Y-83412500D03*
X123687500Y-83412500D03*
X124187500Y-83412500D03*
X124687500Y-83412500D03*
%TD*%
D27*
%TO.C,U6*%
X137850000Y-100175000D03*
X138800000Y-100175000D03*
X139750000Y-100175000D03*
X139750000Y-97900000D03*
X137850000Y-97900000D03*
%TD*%
D19*
%TO.C,R18*%
X137000000Y-68837500D03*
X137000000Y-70662500D03*
%TD*%
M02*
